<svg width="18" height="16" viewBox="0 0 18 16" fill="none" xmlns="http://www.w3.org/2000/svg">
<path d="M7.19667 0.828564L0.198189 13.5526C0.0641345 13.7963 -0.00410683 14.0707 0.000191169 14.3488C0.00448917 14.6268 0.0811779 14.899 0.222699 15.1384C0.36422 15.3779 0.565688 15.5763 0.807245 15.7141C1.0488 15.852 1.32211 15.9245 1.60023 15.9245H15.5983C15.8764 15.9245 16.1497 15.852 16.3912 15.7141C16.6328 15.5763 16.8343 15.3779 16.9758 15.1384C17.1173 14.899 17.194 14.6268 17.1983 14.3488C17.2026 14.0707 17.1344 13.7963 17.0003 13.5526L10.0008 0.828564C9.86259 0.577625 9.65961 0.368366 9.413 0.222624C9.16638 0.0768824 8.88517 0 8.59871 0C8.31225 0 8.03104 0.0768824 7.78442 0.222624C7.53781 0.368366 7.33483 0.577625 7.19667 0.828564ZM8.59871 4.98774C8.81095 4.98774 9.0145 5.07206 9.16457 5.22213C9.31465 5.37221 9.39896 5.57576 9.39896 5.788V10.056C9.39896 10.2683 9.31465 10.4718 9.16457 10.6219C9.0145 10.772 8.81095 10.8563 8.59871 10.8563C8.38647 10.8563 8.18292 10.772 8.03285 10.6219C7.88277 10.4718 7.79846 10.2683 7.79846 10.056V5.788C7.79846 5.57576 7.88277 5.37221 8.03285 5.22213C8.18292 5.07206 8.38647 4.98774 8.59871 4.98774ZM9.39896 12.4568C9.39896 12.669 9.31465 12.8726 9.16457 13.0226C9.0145 13.1727 8.81095 13.257 8.59871 13.257C8.38647 13.257 8.18292 13.1727 8.03285 13.0226C7.88277 12.8726 7.79846 12.669 7.79846 12.4568C7.79846 12.2445 7.88277 12.041 8.03285 11.8909C8.18292 11.7408 8.38647 11.6565 8.59871 11.6565C8.81095 11.6565 9.0145 11.7408 9.16457 11.8909C9.31465 12.041 9.39896 12.2445 9.39896 12.4568Z" fill="#F60268"/>
</svg>
