<svg width="343" height="184" viewBox="0 0 343 184" fill="none" xmlns="http://www.w3.org/2000/svg">
<rect width="343" height="184" rx="10" fill="url(#paint0_linear)"/>
<mask id="mask0" mask-type="alpha" maskUnits="userSpaceOnUse" x="0" y="0" width="343" height="184">
<rect width="343" height="184" rx="10" fill="url(#paint1_linear)"/>
</mask>
<g mask="url(#mask0)">
<path d="M186.322 107.934C186.228 107.968 186.235 108.103 186.332 108.126L250.074 123.099C250.092 123.103 250.112 123.102 250.13 123.096L326.459 96.1712C326.553 96.138 326.546 96.0024 326.449 95.9796L262.708 81.0067C262.689 81.0023 262.67 81.0034 262.652 81.0097L186.322 107.934Z" fill="#0A0A1E" stroke="black" stroke-width="3"/>
<path d="M186.322 107.934C186.228 107.968 186.235 108.103 186.332 108.126L250.074 123.099C250.092 123.103 250.112 123.102 250.129 123.096L262.612 118.807C262.652 118.793 262.679 118.755 262.679 118.712V81.1413C262.679 81.0723 262.611 81.0241 262.546 81.047L186.322 107.934Z" fill="#C4C4C4" stroke="black" stroke-width="3"/>
<path d="M186 108.174C186 108.11 186.06 108.062 186.123 108.077L250.025 123.087C250.07 123.098 250.102 123.138 250.102 123.185V213.013C250.102 213.078 250.042 213.125 249.979 213.111L186.077 198.1C186.032 198.089 186 198.049 186 198.003L186 108.174Z" fill="#EC1C79" stroke="black" stroke-width="3"/>
<path d="M326.578 96.0599C326.578 95.9908 326.51 95.9425 326.445 95.9657L250.169 123.082C250.129 123.096 250.102 123.134 250.102 123.176L250.102 213.757C250.102 213.826 250.171 213.875 250.236 213.852L326.512 186.735C326.552 186.721 326.578 186.683 326.578 186.641L326.578 96.0599Z" fill="white" stroke="black" stroke-width="3"/>
</g>
<path d="M21.368 34.514H16.088V32.6H28.826V34.514H23.546V48H21.368V34.514ZM41.5028 36.34V48H39.5008V46.24C39.0755 46.8413 38.5108 47.3107 37.8068 47.648C37.1175 47.9707 36.3621 48.132 35.5408 48.132C33.9861 48.132 32.7615 47.7067 31.8668 46.856C30.9721 45.9907 30.5248 44.722 30.5248 43.05V36.34H32.6368V42.808C32.6368 43.9373 32.9081 44.7953 33.4508 45.382C33.9935 45.954 34.7708 46.24 35.7828 46.24C36.8975 46.24 37.7775 45.9027 38.4228 45.228C39.0681 44.5533 39.3908 43.6 39.3908 42.368V36.34H41.5028ZM47.5475 38.298C47.9142 37.6233 48.4568 37.11 49.1755 36.758C49.8942 36.406 50.7668 36.23 51.7935 36.23V38.276C51.6762 38.2613 51.5148 38.254 51.3095 38.254C50.1655 38.254 49.2635 38.5987 48.6035 39.288C47.9582 39.9627 47.6355 40.9307 47.6355 42.192V48H45.5235V36.34H47.5475V38.298ZM60.5785 36.23C61.7079 36.23 62.7199 36.4793 63.6145 36.978C64.5092 37.4767 65.2059 38.1733 65.7045 39.068C66.2179 39.9627 66.4745 40.9967 66.4745 42.17C66.4745 43.3433 66.2179 44.3847 65.7045 45.294C65.2059 46.1887 64.5092 46.8853 63.6145 47.384C62.7199 47.8827 61.7079 48.132 60.5785 48.132C59.7132 48.132 58.9212 47.9633 58.2025 47.626C57.4839 47.2887 56.8899 46.7973 56.4205 46.152V48H54.3965V31.676H56.5085V38.1C56.9779 37.484 57.5645 37.022 58.2685 36.714C58.9725 36.3913 59.7425 36.23 60.5785 36.23ZM60.4025 46.284C61.1505 46.284 61.8179 46.1153 62.4045 45.778C63.0059 45.426 63.4752 44.942 63.8125 44.326C64.1645 43.6953 64.3405 42.9767 64.3405 42.17C64.3405 41.3633 64.1645 40.652 63.8125 40.036C63.4752 39.4053 63.0059 38.9213 62.4045 38.584C61.8179 38.2467 61.1505 38.078 60.4025 38.078C59.6692 38.078 59.0019 38.2467 58.4005 38.584C57.7992 38.9213 57.3299 39.4053 56.9925 40.036C56.6552 40.652 56.4865 41.3633 56.4865 42.17C56.4865 42.9767 56.6552 43.6953 56.9925 44.326C57.3299 44.942 57.7992 45.426 58.4005 45.778C59.0019 46.1153 59.6692 46.284 60.4025 46.284ZM74.3866 48.132C73.228 48.132 72.1866 47.8753 71.2626 47.362C70.3386 46.8487 69.6126 46.1447 69.0846 45.25C68.5713 44.3407 68.3146 43.314 68.3146 42.17C68.3146 41.026 68.5713 40.0067 69.0846 39.112C69.6126 38.2027 70.3386 37.4987 71.2626 37C72.1866 36.4867 73.228 36.23 74.3866 36.23C75.5453 36.23 76.5793 36.4867 77.4886 37C78.4126 37.4987 79.1313 38.2027 79.6446 39.112C80.1726 40.0067 80.4366 41.026 80.4366 42.17C80.4366 43.314 80.1726 44.3407 79.6446 45.25C79.1313 46.1447 78.4126 46.8487 77.4886 47.362C76.5793 47.8753 75.5453 48.132 74.3866 48.132ZM74.3866 46.284C75.1346 46.284 75.802 46.1153 76.3886 45.778C76.99 45.426 77.4593 44.942 77.7966 44.326C78.134 43.6953 78.3026 42.9767 78.3026 42.17C78.3026 41.3633 78.134 40.652 77.7966 40.036C77.4593 39.4053 76.99 38.9213 76.3886 38.584C75.802 38.2467 75.1346 38.078 74.3866 38.078C73.6386 38.078 72.964 38.2467 72.3626 38.584C71.776 38.9213 71.3066 39.4053 70.9546 40.036C70.6173 40.652 70.4486 41.3633 70.4486 42.17C70.4486 42.9767 70.6173 43.6953 70.9546 44.326C71.3066 44.942 71.776 45.426 72.3626 45.778C72.964 46.1153 73.6386 46.284 74.3866 46.284ZM100.75 46.086V48H89.5737V32.6H100.442V34.514H91.7737V39.244H99.4957V41.114H91.7737V46.086H100.75ZM107.37 34.514H102.09V32.6H114.828V34.514H109.548V48H107.37V34.514ZM130.468 32.6V48H128.268V41.136H119.424V48H117.224V32.6H119.424V39.222H128.268V32.6H130.468Z" fill="white"/>
<path d="M27.16 66V67.36L21.5 80H19.38L24.92 67.74H18.52V70.24H16.6V66H27.16ZM29.198 80.12C28.8246 80.12 28.5046 79.9933 28.238 79.74C27.9713 79.4733 27.838 79.14 27.838 78.74C27.838 78.3533 27.9713 78.0333 28.238 77.78C28.5046 77.5133 28.8246 77.38 29.198 77.38C29.5713 77.38 29.8846 77.5067 30.138 77.76C30.3913 78.0133 30.518 78.34 30.518 78.74C30.518 79.14 30.3846 79.4733 30.118 79.74C29.8646 79.9933 29.558 80.12 29.198 80.12ZM44.4134 76.56H41.7534V80H39.8134V76.56H32.0334V75.16L39.1934 66H41.3534L34.4934 74.84H39.8734V71.8H41.7534V74.84H44.4134V76.56ZM57.7923 76.56H55.1323V80H53.1923V76.56H45.4123V75.16L52.5723 66H54.7323L47.8723 74.84H53.2523V71.8H55.1323V74.84H57.7923V76.56ZM61.4258 73.52C60.4524 73.52 59.6658 73.1667 59.0658 72.46C58.4658 71.7533 58.1658 70.8333 58.1658 69.7C58.1658 68.5667 58.4658 67.6467 59.0658 66.94C59.6658 66.2333 60.4524 65.88 61.4258 65.88C62.3991 65.88 63.1791 66.2333 63.7658 66.94C64.3658 67.6333 64.6658 68.5533 64.6658 69.7C64.6658 70.8467 64.3658 71.7733 63.7658 72.48C63.1791 73.1733 62.3991 73.52 61.4258 73.52ZM69.8658 66H71.4058L61.8458 80H60.3058L69.8658 66ZM61.4258 72.38C62.0391 72.38 62.5191 72.1467 62.8658 71.68C63.2124 71.2 63.3858 70.54 63.3858 69.7C63.3858 68.86 63.2124 68.2067 62.8658 67.74C62.5191 67.26 62.0391 67.02 61.4258 67.02C60.8258 67.02 60.3458 67.26 59.9858 67.74C59.6391 68.22 59.4658 68.8733 59.4658 69.7C59.4658 70.5267 59.6391 71.18 59.9858 71.66C60.3458 72.14 60.8258 72.38 61.4258 72.38ZM70.2858 80.12C69.3124 80.12 68.5258 79.7733 67.9258 79.08C67.3391 78.3733 67.0458 77.4467 67.0458 76.3C67.0458 75.1533 67.3391 74.2333 67.9258 73.54C68.5258 72.8333 69.3124 72.48 70.2858 72.48C71.2591 72.48 72.0458 72.8333 72.6458 73.54C73.2458 74.2467 73.5458 75.1667 73.5458 76.3C73.5458 77.4333 73.2458 78.3533 72.6458 79.06C72.0458 79.7667 71.2591 80.12 70.2858 80.12ZM70.2858 78.98C70.8858 78.98 71.3591 78.74 71.7058 78.26C72.0658 77.78 72.2458 77.1267 72.2458 76.3C72.2458 75.4733 72.0658 74.82 71.7058 74.34C71.3591 73.86 70.8858 73.62 70.2858 73.62C69.6724 73.62 69.1924 73.86 68.8458 74.34C68.4991 74.8067 68.3258 75.46 68.3258 76.3C68.3258 77.14 68.4991 77.8 68.8458 78.28C69.1924 78.7467 69.6724 78.98 70.2858 78.98ZM87.3386 77.9H82.8746L81.9506 80H80.7146L84.5186 71.6H85.7066L89.5226 80H88.2626L87.3386 77.9ZM86.9186 76.94L85.1066 72.824L83.2946 76.94H86.9186ZM94.0516 71.6C95.1396 71.6 95.9956 71.86 96.6196 72.38C97.2436 72.9 97.5556 73.616 97.5556 74.528C97.5556 75.44 97.2436 76.156 96.6196 76.676C95.9956 77.196 95.1396 77.456 94.0516 77.456H91.9756V80H90.7756V71.6H94.0516ZM94.0156 76.412C94.7756 76.412 95.3556 76.252 95.7556 75.932C96.1556 75.604 96.3556 75.136 96.3556 74.528C96.3556 73.92 96.1556 73.456 95.7556 73.136C95.3556 72.808 94.7756 72.644 94.0156 72.644H91.9756V76.412H94.0156ZM104.935 80L103.123 77.42C102.899 77.436 102.723 77.444 102.595 77.444H100.519V80H99.3186V71.6H102.595C103.683 71.6 104.539 71.86 105.163 72.38C105.787 72.9 106.099 73.616 106.099 74.528C106.099 75.176 105.939 75.728 105.619 76.184C105.299 76.64 104.843 76.972 104.251 77.18L106.243 80H104.935ZM102.559 76.424C103.319 76.424 103.899 76.26 104.299 75.932C104.699 75.604 104.899 75.136 104.899 74.528C104.899 73.92 104.699 73.456 104.299 73.136C103.899 72.808 103.319 72.644 102.559 72.644H100.519V76.424H102.559ZM113.816 80.072C113.184 80.072 112.616 79.932 112.112 79.652C111.608 79.372 111.212 78.988 110.924 78.5C110.644 78.004 110.504 77.444 110.504 76.82C110.504 76.196 110.644 75.64 110.924 75.152C111.212 74.656 111.608 74.272 112.112 74C112.616 73.72 113.184 73.58 113.816 73.58C114.448 73.58 115.012 73.72 115.508 74C116.012 74.272 116.404 74.656 116.684 75.152C116.972 75.64 117.116 76.196 117.116 76.82C117.116 77.444 116.972 78.004 116.684 78.5C116.404 78.988 116.012 79.372 115.508 79.652C115.012 79.932 114.448 80.072 113.816 80.072ZM113.816 79.064C114.224 79.064 114.588 78.972 114.908 78.788C115.236 78.596 115.492 78.332 115.676 77.996C115.86 77.652 115.952 77.26 115.952 76.82C115.952 76.38 115.86 75.992 115.676 75.656C115.492 75.312 115.236 75.048 114.908 74.864C114.588 74.68 114.224 74.588 113.816 74.588C113.408 74.588 113.04 74.68 112.712 74.864C112.392 75.048 112.136 75.312 111.944 75.656C111.76 75.992 111.668 76.38 111.668 76.82C111.668 77.26 111.76 77.652 111.944 77.996C112.136 78.332 112.392 78.596 112.712 78.788C113.04 78.972 113.408 79.064 113.816 79.064ZM122.105 73.58C122.913 73.58 123.553 73.816 124.025 74.288C124.505 74.752 124.745 75.436 124.745 76.34V80H123.593V76.472C123.593 75.856 123.445 75.392 123.149 75.08C122.853 74.768 122.429 74.612 121.877 74.612C121.253 74.612 120.761 74.796 120.401 75.164C120.041 75.524 119.861 76.044 119.861 76.724V80H118.709V73.64H119.813V74.6C120.045 74.272 120.357 74.02 120.749 73.844C121.149 73.668 121.601 73.58 122.105 73.58ZM133.544 71.6C134.632 71.6 135.488 71.86 136.112 72.38C136.736 72.9 137.048 73.616 137.048 74.528C137.048 75.44 136.736 76.156 136.112 76.676C135.488 77.196 134.632 77.456 133.544 77.456H131.468V80H130.268V71.6H133.544ZM133.508 76.412C134.268 76.412 134.848 76.252 135.248 75.932C135.648 75.604 135.848 75.136 135.848 74.528C135.848 73.92 135.648 73.456 135.248 73.136C134.848 72.808 134.268 72.644 133.508 72.644H131.468V76.412H133.508ZM141.343 80.072C140.711 80.072 140.143 79.932 139.639 79.652C139.135 79.372 138.739 78.988 138.451 78.5C138.171 78.004 138.031 77.444 138.031 76.82C138.031 76.196 138.171 75.64 138.451 75.152C138.739 74.656 139.135 74.272 139.639 74C140.143 73.72 140.711 73.58 141.343 73.58C141.975 73.58 142.539 73.72 143.035 74C143.539 74.272 143.931 74.656 144.211 75.152C144.499 75.64 144.643 76.196 144.643 76.82C144.643 77.444 144.499 78.004 144.211 78.5C143.931 78.988 143.539 79.372 143.035 79.652C142.539 79.932 141.975 80.072 141.343 80.072ZM141.343 79.064C141.751 79.064 142.115 78.972 142.435 78.788C142.763 78.596 143.019 78.332 143.203 77.996C143.387 77.652 143.479 77.26 143.479 76.82C143.479 76.38 143.387 75.992 143.203 75.656C143.019 75.312 142.763 75.048 142.435 74.864C142.115 74.68 141.751 74.588 141.343 74.588C140.935 74.588 140.567 74.68 140.239 74.864C139.919 75.048 139.663 75.312 139.471 75.656C139.287 75.992 139.195 76.38 139.195 76.82C139.195 77.26 139.287 77.652 139.471 77.996C139.663 78.332 139.919 78.596 140.239 78.788C140.567 78.972 140.935 79.064 141.343 79.064ZM146.237 71.096H147.389V80H146.237V71.096ZM155.216 73.64L152.132 80.636C151.86 81.284 151.54 81.74 151.172 82.004C150.812 82.268 150.376 82.4 149.864 82.4C149.552 82.4 149.248 82.348 148.952 82.244C148.664 82.148 148.424 82.004 148.232 81.812L148.724 80.948C149.052 81.26 149.432 81.416 149.864 81.416C150.144 81.416 150.376 81.34 150.56 81.188C150.752 81.044 150.924 80.792 151.076 80.432L151.28 79.988L148.472 73.64H149.672L151.892 78.728L154.088 73.64H155.216ZM162.199 73.64V79.136C162.199 80.248 161.923 81.068 161.371 81.596C160.819 82.132 159.995 82.4 158.899 82.4C158.299 82.4 157.727 82.316 157.183 82.148C156.639 81.988 156.199 81.756 155.863 81.452L156.415 80.564C156.711 80.82 157.075 81.02 157.507 81.164C157.947 81.316 158.399 81.392 158.863 81.392C159.607 81.392 160.155 81.216 160.507 80.864C160.867 80.512 161.047 79.976 161.047 79.256V78.752C160.775 79.08 160.439 79.328 160.039 79.496C159.647 79.656 159.219 79.736 158.755 79.736C158.147 79.736 157.595 79.608 157.099 79.352C156.611 79.088 156.227 78.724 155.947 78.26C155.667 77.788 155.527 77.252 155.527 76.652C155.527 76.052 155.667 75.52 155.947 75.056C156.227 74.584 156.611 74.22 157.099 73.964C157.595 73.708 158.147 73.58 158.755 73.58C159.235 73.58 159.679 73.668 160.087 73.844C160.503 74.02 160.843 74.28 161.107 74.624V73.64H162.199ZM158.887 78.728C159.303 78.728 159.675 78.64 160.003 78.464C160.339 78.288 160.599 78.044 160.783 77.732C160.975 77.412 161.071 77.052 161.071 76.652C161.071 76.036 160.867 75.54 160.459 75.164C160.051 74.78 159.527 74.588 158.887 74.588C158.239 74.588 157.711 74.78 157.303 75.164C156.895 75.54 156.691 76.036 156.691 76.652C156.691 77.052 156.783 77.412 156.967 77.732C157.159 78.044 157.419 78.288 157.747 78.464C158.083 78.64 158.463 78.728 158.887 78.728ZM167.125 80.072C166.493 80.072 165.925 79.932 165.421 79.652C164.917 79.372 164.521 78.988 164.233 78.5C163.953 78.004 163.813 77.444 163.813 76.82C163.813 76.196 163.953 75.64 164.233 75.152C164.521 74.656 164.917 74.272 165.421 74C165.925 73.72 166.493 73.58 167.125 73.58C167.757 73.58 168.321 73.72 168.817 74C169.321 74.272 169.713 74.656 169.993 75.152C170.281 75.64 170.425 76.196 170.425 76.82C170.425 77.444 170.281 78.004 169.993 78.5C169.713 78.988 169.321 79.372 168.817 79.652C168.321 79.932 167.757 80.072 167.125 80.072ZM167.125 79.064C167.533 79.064 167.897 78.972 168.217 78.788C168.545 78.596 168.801 78.332 168.985 77.996C169.169 77.652 169.261 77.26 169.261 76.82C169.261 76.38 169.169 75.992 168.985 75.656C168.801 75.312 168.545 75.048 168.217 74.864C167.897 74.68 167.533 74.588 167.125 74.588C166.717 74.588 166.349 74.68 166.021 74.864C165.701 75.048 165.445 75.312 165.253 75.656C165.069 75.992 164.977 76.38 164.977 76.82C164.977 77.26 165.069 77.652 165.253 77.996C165.445 78.332 165.701 78.596 166.021 78.788C166.349 78.972 166.717 79.064 167.125 79.064ZM175.414 73.58C176.222 73.58 176.862 73.816 177.334 74.288C177.814 74.752 178.054 75.436 178.054 76.34V80H176.902V76.472C176.902 75.856 176.754 75.392 176.458 75.08C176.162 74.768 175.738 74.612 175.186 74.612C174.562 74.612 174.07 74.796 173.71 75.164C173.35 75.524 173.17 76.044 173.17 76.724V80H172.018V73.64H173.122V74.6C173.354 74.272 173.666 74.02 174.058 73.844C174.458 73.668 174.91 73.58 175.414 73.58ZM185.46 73.328L186.888 74.132L186.516 74.792L185.064 73.94L185.076 75.572H184.356L184.368 73.94L182.916 74.792L182.544 74.132L183.984 73.328L182.544 72.536L182.916 71.864L184.368 72.716L184.356 71.096H185.076L185.064 72.716L186.516 71.864L186.888 72.536L185.46 73.328Z" fill="white"/>
<path d="M20.96 98.58C22.96 98.58 24.4267 98.96 25.36 99.72C26.3067 100.467 26.78 101.493 26.78 102.8C26.78 103.627 26.58 104.373 26.18 105.04C25.7933 105.693 25.2 106.213 24.4 106.6C23.6133 106.973 22.64 107.16 21.48 107.16C20.4933 107.16 19.54 107.013 18.62 106.72C17.7 106.413 16.94 105.993 16.34 105.46L17.26 103.88C17.74 104.333 18.3533 104.7 19.1 104.98C19.8467 105.247 20.6333 105.38 21.46 105.38C22.5133 105.38 23.3267 105.16 23.9 104.72C24.4867 104.267 24.78 103.653 24.78 102.88C24.78 102.04 24.46 101.407 23.82 100.98C23.18 100.54 22.0867 100.32 20.54 100.32H17.36L18.1 93H26V94.74H19.78L19.4 98.58H20.96ZM29.7644 107.12C29.391 107.12 29.071 106.993 28.8044 106.74C28.5377 106.473 28.4044 106.14 28.4044 105.74C28.4044 105.353 28.5377 105.033 28.8044 104.78C29.071 104.513 29.391 104.38 29.7644 104.38C30.1377 104.38 30.451 104.507 30.7044 104.76C30.9577 105.013 31.0844 105.34 31.0844 105.74C31.0844 106.14 30.951 106.473 30.6844 106.74C30.431 106.993 30.1244 107.12 29.7644 107.12ZM37.0617 93V107H35.0817V94.74H31.9217V93H37.0617ZM44.6641 92.84C46.5441 92.84 47.9907 93.4467 49.0041 94.66C50.0307 95.8733 50.5441 97.5933 50.5441 99.82C50.5441 101.38 50.2641 102.713 49.7041 103.82C49.1574 104.913 48.3841 105.747 47.3841 106.32C46.3974 106.88 45.2441 107.16 43.9241 107.16C43.2441 107.16 42.6041 107.093 42.0041 106.96C41.4041 106.813 40.8841 106.607 40.4441 106.34L41.2041 104.78C41.8841 105.22 42.7841 105.44 43.9041 105.44C45.3574 105.44 46.4907 104.993 47.3041 104.1C48.1307 103.193 48.5441 101.88 48.5441 100.16V99.66C48.1441 100.26 47.5907 100.72 46.8841 101.04C46.1774 101.347 45.3841 101.5 44.5041 101.5C43.5841 101.5 42.7574 101.327 42.0241 100.98C41.3041 100.633 40.7374 100.14 40.3241 99.5C39.9241 98.8467 39.7241 98.1 39.7241 97.26C39.7241 96.38 39.9374 95.6067 40.3641 94.94C40.8041 94.2733 41.3974 93.76 42.1441 93.4C42.8907 93.0267 43.7307 92.84 44.6641 92.84ZM44.8441 99.88C45.4707 99.88 46.0307 99.76 46.5241 99.52C47.0174 99.28 47.3974 98.9533 47.6641 98.54C47.9441 98.1267 48.0841 97.6667 48.0841 97.16C48.0841 96.6667 47.9507 96.22 47.6841 95.82C47.4307 95.4067 47.0507 95.08 46.5441 94.84C46.0507 94.5867 45.4507 94.46 44.7441 94.46C43.8241 94.46 43.0774 94.7067 42.5041 95.2C41.9441 95.6933 41.6641 96.3533 41.6641 97.18C41.6641 98.0067 41.9507 98.6667 42.5241 99.16C43.0974 99.64 43.8707 99.88 44.8441 99.88ZM55.5078 100.52C54.5345 100.52 53.7478 100.167 53.1478 99.46C52.5478 98.7533 52.2478 97.8333 52.2478 96.7C52.2478 95.5667 52.5478 94.6467 53.1478 93.94C53.7478 93.2333 54.5345 92.88 55.5078 92.88C56.4811 92.88 57.2611 93.2333 57.8478 93.94C58.4478 94.6333 58.7478 95.5533 58.7478 96.7C58.7478 97.8467 58.4478 98.7733 57.8478 99.48C57.2611 100.173 56.4811 100.52 55.5078 100.52ZM63.9478 93H65.4878L55.9278 107H54.3878L63.9478 93ZM55.5078 99.38C56.1211 99.38 56.6011 99.1467 56.9478 98.68C57.2945 98.2 57.4678 97.54 57.4678 96.7C57.4678 95.86 57.2945 95.2067 56.9478 94.74C56.6011 94.26 56.1211 94.02 55.5078 94.02C54.9078 94.02 54.4278 94.26 54.0678 94.74C53.7211 95.22 53.5478 95.8733 53.5478 96.7C53.5478 97.5267 53.7211 98.18 54.0678 98.66C54.4278 99.14 54.9078 99.38 55.5078 99.38ZM64.3678 107.12C63.3945 107.12 62.6078 106.773 62.0078 106.08C61.4211 105.373 61.1278 104.447 61.1278 103.3C61.1278 102.153 61.4211 101.233 62.0078 100.54C62.6078 99.8333 63.3945 99.48 64.3678 99.48C65.3411 99.48 66.1278 99.8333 66.7278 100.54C67.3278 101.247 67.6278 102.167 67.6278 103.3C67.6278 104.433 67.3278 105.353 66.7278 106.06C66.1278 106.767 65.3411 107.12 64.3678 107.12ZM64.3678 105.98C64.9678 105.98 65.4411 105.74 65.7878 105.26C66.1478 104.78 66.3278 104.127 66.3278 103.3C66.3278 102.473 66.1478 101.82 65.7878 101.34C65.4411 100.86 64.9678 100.62 64.3678 100.62C63.7545 100.62 63.2745 100.86 62.9278 101.34C62.5811 101.807 62.4078 102.46 62.4078 103.3C62.4078 104.14 62.5811 104.8 62.9278 105.28C63.2745 105.747 63.7545 105.98 64.3678 105.98ZM81.4206 104.9H76.9566L76.0326 107H74.7966L78.6006 98.6H79.7886L83.6046 107H82.3446L81.4206 104.9ZM81.0006 103.94L79.1886 99.824L77.3766 103.94H81.0006ZM88.1337 98.6C89.2217 98.6 90.0777 98.86 90.7017 99.38C91.3257 99.9 91.6377 100.616 91.6377 101.528C91.6377 102.44 91.3257 103.156 90.7017 103.676C90.0777 104.196 89.2217 104.456 88.1337 104.456H86.0577V107H84.8577V98.6H88.1337ZM88.0977 103.412C88.8577 103.412 89.4377 103.252 89.8377 102.932C90.2377 102.604 90.4377 102.136 90.4377 101.528C90.4377 100.92 90.2377 100.456 89.8377 100.136C89.4377 99.808 88.8577 99.644 88.0977 99.644H86.0577V103.412H88.0977ZM99.0166 107L97.2046 104.42C96.9806 104.436 96.8046 104.444 96.6766 104.444H94.6006V107H93.4006V98.6H96.6766C97.7646 98.6 98.6206 98.86 99.2446 99.38C99.8686 99.9 100.181 100.616 100.181 101.528C100.181 102.176 100.021 102.728 99.7006 103.184C99.3806 103.64 98.9246 103.972 98.3326 104.18L100.325 107H99.0166ZM96.6406 103.424C97.4006 103.424 97.9806 103.26 98.3806 102.932C98.7806 102.604 98.9806 102.136 98.9806 101.528C98.9806 100.92 98.7806 100.456 98.3806 100.136C97.9806 99.808 97.4006 99.644 96.6406 99.644H94.6006V103.424H96.6406ZM107.898 107.072C107.266 107.072 106.698 106.932 106.194 106.652C105.69 106.372 105.294 105.988 105.006 105.5C104.726 105.004 104.586 104.444 104.586 103.82C104.586 103.196 104.726 102.64 105.006 102.152C105.294 101.656 105.69 101.272 106.194 101C106.698 100.72 107.266 100.58 107.898 100.58C108.53 100.58 109.094 100.72 109.59 101C110.094 101.272 110.486 101.656 110.766 102.152C111.054 102.64 111.198 103.196 111.198 103.82C111.198 104.444 111.054 105.004 110.766 105.5C110.486 105.988 110.094 106.372 109.59 106.652C109.094 106.932 108.53 107.072 107.898 107.072ZM107.898 106.064C108.306 106.064 108.67 105.972 108.99 105.788C109.318 105.596 109.574 105.332 109.758 104.996C109.942 104.652 110.034 104.26 110.034 103.82C110.034 103.38 109.942 102.992 109.758 102.656C109.574 102.312 109.318 102.048 108.99 101.864C108.67 101.68 108.306 101.588 107.898 101.588C107.49 101.588 107.122 101.68 106.794 101.864C106.474 102.048 106.218 102.312 106.026 102.656C105.842 102.992 105.75 103.38 105.75 103.82C105.75 104.26 105.842 104.652 106.026 104.996C106.218 105.332 106.474 105.596 106.794 105.788C107.122 105.972 107.49 106.064 107.898 106.064ZM116.187 100.58C116.995 100.58 117.635 100.816 118.107 101.288C118.587 101.752 118.827 102.436 118.827 103.34V107H117.675V103.472C117.675 102.856 117.527 102.392 117.231 102.08C116.935 101.768 116.511 101.612 115.959 101.612C115.335 101.612 114.843 101.796 114.483 102.164C114.123 102.524 113.943 103.044 113.943 103.724V107H112.791V100.64H113.895V101.6C114.127 101.272 114.439 101.02 114.831 100.844C115.231 100.668 115.683 100.58 116.187 100.58ZM130.002 102.644C130.49 102.78 130.874 103.028 131.154 103.388C131.434 103.74 131.574 104.188 131.574 104.732C131.574 105.46 131.298 106.02 130.746 106.412C130.202 106.804 129.406 107 128.358 107H124.35V98.6H128.118C129.078 98.6 129.818 98.792 130.338 99.176C130.866 99.56 131.13 100.092 131.13 100.772C131.13 101.212 131.026 101.592 130.818 101.912C130.618 102.232 130.346 102.476 130.002 102.644ZM125.55 99.572V102.26H128.01C128.626 102.26 129.098 102.148 129.426 101.924C129.762 101.692 129.93 101.356 129.93 100.916C129.93 100.476 129.762 100.144 129.426 99.92C129.098 99.688 128.626 99.572 128.01 99.572H125.55ZM128.31 106.028C128.99 106.028 129.502 105.916 129.846 105.692C130.19 105.468 130.362 105.116 130.362 104.636C130.362 103.7 129.678 103.232 128.31 103.232H125.55V106.028H128.31ZM134.983 99.644H132.103V98.6H139.051V99.644H136.171V107H134.983V99.644ZM143.996 107.096C143.156 107.096 142.396 106.912 141.716 106.544C141.044 106.168 140.516 105.656 140.132 105.008C139.748 104.352 139.556 103.616 139.556 102.8C139.556 101.984 139.748 101.252 140.132 100.604C140.516 99.948 141.048 99.436 141.728 99.068C142.408 98.692 143.168 98.504 144.008 98.504C144.664 98.504 145.264 98.616 145.808 98.84C146.352 99.056 146.816 99.38 147.2 99.812L146.42 100.568C145.788 99.904 145 99.572 144.056 99.572C143.432 99.572 142.868 99.712 142.364 99.992C141.86 100.272 141.464 100.66 141.176 101.156C140.896 101.644 140.756 102.192 140.756 102.8C140.756 103.408 140.896 103.96 141.176 104.456C141.464 104.944 141.86 105.328 142.364 105.608C142.868 105.888 143.432 106.028 144.056 106.028C144.992 106.028 145.78 105.692 146.42 105.02L147.2 105.776C146.816 106.208 146.348 106.536 145.796 106.76C145.252 106.984 144.652 107.096 143.996 107.096ZM154.019 100.328L155.447 101.132L155.075 101.792L153.623 100.94L153.635 102.572H152.915L152.927 100.94L151.475 101.792L151.103 101.132L152.543 100.328L151.103 99.536L151.475 98.864L152.927 99.716L152.915 98.096H153.635L153.623 99.716L155.075 98.864L155.447 99.536L154.019 100.328Z" fill="white"/>
<rect x="303" y="16" width="24" height="24" rx="12" fill="#197CD8"/>
<path d="M313.099 30.9223L312.076 29.8993L319.577 22.1705L320.998 22L320.827 23.4208L313.099 30.9223Z" fill="white"/>
<path d="M312.075 31.0354C312.761 31.7228 313.671 32.1403 314.64 32.2116L314.651 31.1537C313.938 31.2436 313.272 30.9348 312.724 30.3869C312.176 29.8389 311.867 29.1728 311.957 28.4594L310.899 28.4706C310.97 29.439 311.388 30.3495 312.075 31.0354Z" fill="white"/>
<path d="M309.804 34.0001C310.248 34.0001 310.607 33.6402 310.607 33.1964C310.607 32.7525 310.248 32.3926 309.804 32.3926C309.36 32.3926 309 32.7525 309 33.1964C309 33.6402 309.36 34.0001 309.804 34.0001Z" fill="white"/>
<path d="M310.428 33.3661L309.633 32.5704L311.906 30.07L312.929 31.0929L310.428 33.3661Z" fill="white"/>
<path d="M316.9 30.9223L317.923 29.8993L310.421 22.1705L309 22L309.171 23.4208L316.9 30.9223Z" fill="white"/>
<path d="M317.923 31.0354C317.237 31.7228 316.327 32.1403 315.358 32.2116L315.347 31.1537C316.061 31.2436 316.726 30.9348 317.274 30.3869C317.822 29.8389 318.131 29.1728 318.041 28.4594L319.099 28.4706C319.028 29.4391 318.61 30.3495 317.923 31.0354Z" fill="white"/>
<path d="M320.194 34.0001C320.638 34.0001 320.998 33.6402 320.998 33.1964C320.998 32.7525 320.638 32.3926 320.194 32.3926C319.75 32.3926 319.391 32.7525 319.391 33.1964C319.391 33.6402 319.75 34.0001 320.194 34.0001Z" fill="white"/>
<path d="M319.57 33.3661L320.366 32.5704L318.092 30.07L317.07 31.0929L319.57 33.3661Z" fill="white"/>
<path d="M17.834 164.108L18.667 164.577L18.45 164.962L17.603 164.465L17.61 165.417H17.19L17.197 164.465L16.35 164.962L16.133 164.577L16.973 164.108L16.133 163.646L16.35 163.254L17.197 163.751L17.19 162.806H17.61L17.603 163.751L18.45 163.254L18.667 163.646L17.834 164.108ZM23.3286 163.1C23.9633 163.1 24.4626 163.252 24.8266 163.555C25.1906 163.858 25.3726 164.276 25.3726 164.808C25.3726 165.34 25.1906 165.758 24.8266 166.061C24.4626 166.364 23.9633 166.516 23.3286 166.516H22.1176V168H21.4176V163.1H23.3286ZM23.3076 165.907C23.751 165.907 24.0893 165.814 24.3226 165.627C24.556 165.436 24.6726 165.163 24.6726 164.808C24.6726 164.453 24.556 164.183 24.3226 163.996C24.0893 163.805 23.751 163.709 23.3076 163.709H22.1176V165.907H23.3076ZM27.6198 164.255C28.1332 164.255 28.5252 164.381 28.7958 164.633C29.0712 164.885 29.2088 165.261 29.2088 165.76V168H28.5718V167.51C28.4598 167.683 28.2988 167.816 28.0888 167.909C27.8835 167.998 27.6385 168.042 27.3538 168.042C26.9385 168.042 26.6048 167.942 26.3528 167.741C26.1055 167.54 25.9818 167.277 25.9818 166.95C25.9818 166.623 26.1008 166.362 26.3388 166.166C26.5768 165.965 26.9548 165.865 27.4728 165.865H28.5368V165.732C28.5368 165.443 28.4528 165.221 28.2848 165.067C28.1168 164.913 27.8695 164.836 27.5428 164.836C27.3235 164.836 27.1088 164.873 26.8988 164.948C26.6888 165.018 26.5115 165.114 26.3668 165.235L26.0868 164.731C26.2782 164.577 26.5068 164.46 26.7728 164.381C27.0388 164.297 27.3212 164.255 27.6198 164.255ZM27.4658 167.524C27.7225 167.524 27.9442 167.468 28.1308 167.356C28.3175 167.239 28.4528 167.076 28.5368 166.866V166.348H27.5008C26.9315 166.348 26.6468 166.539 26.6468 166.922C26.6468 167.109 26.7192 167.256 26.8638 167.363C27.0085 167.47 27.2092 167.524 27.4658 167.524ZM31.5164 168.042C31.2131 168.042 30.9214 168.002 30.6414 167.923C30.3614 167.839 30.1421 167.734 29.9834 167.608L30.2634 167.076C30.4268 167.193 30.6251 167.286 30.8584 167.356C31.0918 167.426 31.3274 167.461 31.5654 167.461C32.1534 167.461 32.4474 167.293 32.4474 166.957C32.4474 166.845 32.4078 166.756 32.3284 166.691C32.2491 166.626 32.1488 166.579 32.0274 166.551C31.9108 166.518 31.7428 166.483 31.5234 166.446C31.2248 166.399 30.9798 166.346 30.7884 166.285C30.6018 166.224 30.4408 166.122 30.3054 165.977C30.1701 165.832 30.1024 165.629 30.1024 165.368C30.1024 165.032 30.2424 164.764 30.5224 164.563C30.8024 164.358 31.1781 164.255 31.6494 164.255C31.8968 164.255 32.1441 164.285 32.3914 164.346C32.6388 164.407 32.8418 164.488 33.0004 164.591L32.7134 165.123C32.4101 164.927 32.0531 164.829 31.6424 164.829C31.3578 164.829 31.1408 164.876 30.9914 164.969C30.8421 165.062 30.7674 165.186 30.7674 165.34C30.7674 165.461 30.8094 165.557 30.8934 165.627C30.9774 165.697 31.0801 165.748 31.2014 165.781C31.3274 165.814 31.5024 165.851 31.7264 165.893C32.0251 165.944 32.2654 166 32.4474 166.061C32.6341 166.117 32.7928 166.215 32.9234 166.355C33.0541 166.495 33.1194 166.691 33.1194 166.943C33.1194 167.279 32.9748 167.547 32.6854 167.748C32.4008 167.944 32.0111 168.042 31.5164 168.042ZM36.0453 167.783C35.9473 167.867 35.8259 167.932 35.6813 167.979C35.5366 168.021 35.3873 168.042 35.2333 168.042C34.8599 168.042 34.5706 167.942 34.3653 167.741C34.1599 167.54 34.0573 167.253 34.0573 166.88V164.843H33.4273V164.29H34.0573V163.478H34.7293V164.29H35.7933V164.843H34.7293V166.852C34.7293 167.053 34.7783 167.207 34.8763 167.314C34.9789 167.421 35.1236 167.475 35.3103 167.475C35.5156 167.475 35.6906 167.417 35.8353 167.3L36.0453 167.783ZM40.7046 164.255C41.0639 164.255 41.3859 164.334 41.6706 164.493C41.9553 164.652 42.1769 164.873 42.3356 165.158C42.4989 165.443 42.5806 165.772 42.5806 166.145C42.5806 166.518 42.4989 166.85 42.3356 167.139C42.1769 167.424 41.9553 167.645 41.6706 167.804C41.3859 167.963 41.0639 168.042 40.7046 168.042C40.4386 168.042 40.1936 167.991 39.9696 167.888C39.7503 167.785 39.5636 167.636 39.4096 167.44V169.358H38.7376V164.29H39.3816V164.878C39.5309 164.673 39.7199 164.519 39.9486 164.416C40.1773 164.309 40.4293 164.255 40.7046 164.255ZM40.6486 167.454C40.8866 167.454 41.0989 167.4 41.2856 167.293C41.4769 167.181 41.6263 167.027 41.7336 166.831C41.8456 166.63 41.9016 166.402 41.9016 166.145C41.9016 165.888 41.8456 165.662 41.7336 165.466C41.6263 165.265 41.4769 165.111 41.2856 165.004C41.0989 164.897 40.8866 164.843 40.6486 164.843C40.4153 164.843 40.2029 164.899 40.0116 165.011C39.8249 165.118 39.6756 165.27 39.5636 165.466C39.4563 165.662 39.4026 165.888 39.4026 166.145C39.4026 166.402 39.4563 166.63 39.5636 166.831C39.6709 167.027 39.8203 167.181 40.0116 167.293C40.2029 167.4 40.4153 167.454 40.6486 167.454ZM46.8621 166.166C46.8621 166.217 46.8574 166.285 46.8481 166.369H43.8381C43.8801 166.696 44.0224 166.959 44.2651 167.16C44.5124 167.356 44.8181 167.454 45.1821 167.454C45.6254 167.454 45.9824 167.305 46.2531 167.006L46.6241 167.44C46.4561 167.636 46.2461 167.785 45.9941 167.888C45.7467 167.991 45.4691 168.042 45.1611 168.042C44.7691 168.042 44.4214 167.963 44.1181 167.804C43.8147 167.641 43.5791 167.414 43.4111 167.125C43.2477 166.836 43.1661 166.509 43.1661 166.145C43.1661 165.786 43.2454 165.461 43.4041 165.172C43.5674 164.883 43.7891 164.659 44.0691 164.5C44.3537 164.337 44.6734 164.255 45.0281 164.255C45.3827 164.255 45.6977 164.337 45.9731 164.5C46.2531 164.659 46.4701 164.883 46.6241 165.172C46.7827 165.461 46.8621 165.793 46.8621 166.166ZM45.0281 164.822C44.7061 164.822 44.4354 164.92 44.2161 165.116C44.0014 165.312 43.8754 165.569 43.8381 165.886H46.2181C46.1807 165.573 46.0524 165.319 45.8331 165.123C45.6184 164.922 45.3501 164.822 45.0281 164.822ZM48.4392 164.913C48.5559 164.698 48.7285 164.535 48.9572 164.423C49.1859 164.311 49.4635 164.255 49.7902 164.255V164.906C49.7529 164.901 49.7015 164.899 49.6362 164.899C49.2722 164.899 48.9852 165.009 48.7752 165.228C48.5699 165.443 48.4672 165.751 48.4672 166.152V168H47.7952V164.29H48.4392V164.913ZM52.0243 163.317C51.623 163.317 51.4223 163.534 51.4223 163.968V164.29H52.5003V164.843H51.4363V168H50.7643V164.843H50.1343V164.29H50.7643V163.961C50.7643 163.592 50.8716 163.301 51.0863 163.086C51.301 162.871 51.602 162.764 51.9893 162.764C52.1386 162.764 52.2786 162.783 52.4093 162.82C52.54 162.857 52.652 162.911 52.7453 162.981L52.5423 163.492C52.3883 163.375 52.2156 163.317 52.0243 163.317ZM54.6684 168.042C54.2997 168.042 53.9684 167.96 53.6744 167.797C53.3804 167.634 53.1494 167.41 52.9814 167.125C52.818 166.836 52.7364 166.509 52.7364 166.145C52.7364 165.781 52.818 165.457 52.9814 165.172C53.1494 164.883 53.3804 164.659 53.6744 164.5C53.9684 164.337 54.2997 164.255 54.6684 164.255C55.037 164.255 55.366 164.337 55.6554 164.5C55.9494 164.659 56.178 164.883 56.3414 165.172C56.5094 165.457 56.5934 165.781 56.5934 166.145C56.5934 166.509 56.5094 166.836 56.3414 167.125C56.178 167.41 55.9494 167.634 55.6554 167.797C55.366 167.96 55.037 168.042 54.6684 168.042ZM54.6684 167.454C54.9064 167.454 55.1187 167.4 55.3054 167.293C55.4967 167.181 55.646 167.027 55.7534 166.831C55.8607 166.63 55.9144 166.402 55.9144 166.145C55.9144 165.888 55.8607 165.662 55.7534 165.466C55.646 165.265 55.4967 165.111 55.3054 165.004C55.1187 164.897 54.9064 164.843 54.6684 164.843C54.4304 164.843 54.2157 164.897 54.0244 165.004C53.8377 165.111 53.6884 165.265 53.5764 165.466C53.469 165.662 53.4154 165.888 53.4154 166.145C53.4154 166.402 53.469 166.63 53.5764 166.831C53.6884 167.027 53.8377 167.181 54.0244 167.293C54.2157 167.4 54.4304 167.454 54.6684 167.454ZM58.1667 164.913C58.2834 164.698 58.4561 164.535 58.6847 164.423C58.9134 164.311 59.1911 164.255 59.5177 164.255V164.906C59.4804 164.901 59.4291 164.899 59.3637 164.899C58.9997 164.899 58.7127 165.009 58.5027 165.228C58.2974 165.443 58.1947 165.751 58.1947 166.152V168H57.5227V164.29H58.1667V164.913ZM64.987 164.255C65.4537 164.255 65.8223 164.39 66.093 164.661C66.3683 164.932 66.506 165.333 66.506 165.865V168H65.834V165.942C65.834 165.583 65.75 165.312 65.582 165.13C65.4187 164.948 65.183 164.857 64.875 164.857C64.5343 164.857 64.2637 164.964 64.063 165.179C63.8623 165.389 63.762 165.692 63.762 166.089V168H63.09V165.942C63.09 165.583 63.006 165.312 62.838 165.13C62.6747 164.948 62.439 164.857 62.131 164.857C61.7903 164.857 61.5197 164.964 61.319 165.179C61.1183 165.389 61.018 165.692 61.018 166.089V168H60.346V164.29H60.99V164.843C61.1253 164.652 61.3027 164.507 61.522 164.409C61.7413 164.306 61.991 164.255 62.271 164.255C62.5603 164.255 62.817 164.313 63.041 164.43C63.265 164.547 63.4377 164.717 63.559 164.941C63.699 164.726 63.8927 164.558 64.14 164.437C64.392 164.316 64.6743 164.255 64.987 164.255ZM69.0935 164.255C69.6068 164.255 69.9988 164.381 70.2695 164.633C70.5448 164.885 70.6825 165.261 70.6825 165.76V168H70.0455V167.51C69.9335 167.683 69.7725 167.816 69.5625 167.909C69.3571 167.998 69.1121 168.042 68.8275 168.042C68.4121 168.042 68.0785 167.942 67.8265 167.741C67.5791 167.54 67.4555 167.277 67.4555 166.95C67.4555 166.623 67.5745 166.362 67.8125 166.166C68.0505 165.965 68.4285 165.865 68.9465 165.865H70.0105V165.732C70.0105 165.443 69.9265 165.221 69.7585 165.067C69.5905 164.913 69.3431 164.836 69.0165 164.836C68.7971 164.836 68.5825 164.873 68.3725 164.948C68.1625 165.018 67.9851 165.114 67.8405 165.235L67.5605 164.731C67.7518 164.577 67.9805 164.46 68.2465 164.381C68.5125 164.297 68.7948 164.255 69.0935 164.255ZM68.9395 167.524C69.1961 167.524 69.4178 167.468 69.6045 167.356C69.7911 167.239 69.9265 167.076 70.0105 166.866V166.348H68.9745C68.4051 166.348 68.1205 166.539 68.1205 166.922C68.1205 167.109 68.1928 167.256 68.3375 167.363C68.4821 167.47 68.6828 167.524 68.9395 167.524ZM73.9071 164.255C74.3784 164.255 74.7517 164.393 75.0271 164.668C75.3071 164.939 75.4471 165.338 75.4471 165.865V168H74.7751V165.942C74.7751 165.583 74.6887 165.312 74.5161 165.13C74.3434 164.948 74.0961 164.857 73.7741 164.857C73.4101 164.857 73.1231 164.964 72.9131 165.179C72.7031 165.389 72.5981 165.692 72.5981 166.089V168H71.9261V164.29H72.5701V164.85C72.7054 164.659 72.8874 164.512 73.1161 164.409C73.3494 164.306 73.6131 164.255 73.9071 164.255ZM78.3282 168.042C77.9502 168.042 77.6119 167.96 77.3132 167.797C77.0192 167.634 76.7882 167.41 76.6202 167.125C76.4522 166.836 76.3682 166.509 76.3682 166.145C76.3682 165.781 76.4522 165.457 76.6202 165.172C76.7882 164.883 77.0192 164.659 77.3132 164.5C77.6119 164.337 77.9502 164.255 78.3282 164.255C78.6642 164.255 78.9629 164.323 79.2242 164.458C79.4902 164.593 79.6956 164.789 79.8402 165.046L79.3292 165.375C79.2126 165.198 79.0679 165.065 78.8952 164.976C78.7226 164.887 78.5312 164.843 78.3212 164.843C78.0786 164.843 77.8592 164.897 77.6632 165.004C77.4719 165.111 77.3202 165.265 77.2082 165.466C77.1009 165.662 77.0472 165.888 77.0472 166.145C77.0472 166.406 77.1009 166.637 77.2082 166.838C77.3202 167.034 77.4719 167.186 77.6632 167.293C77.8592 167.4 78.0786 167.454 78.3212 167.454C78.5312 167.454 78.7226 167.41 78.8952 167.321C79.0679 167.232 79.2126 167.099 79.3292 166.922L79.8402 167.244C79.6956 167.501 79.4902 167.699 79.2242 167.839C78.9629 167.974 78.6642 168.042 78.3282 168.042ZM84.0086 166.166C84.0086 166.217 84.0039 166.285 83.9946 166.369H80.9846C81.0266 166.696 81.1689 166.959 81.4116 167.16C81.6589 167.356 81.9646 167.454 82.3286 167.454C82.7719 167.454 83.1289 167.305 83.3996 167.006L83.7706 167.44C83.6026 167.636 83.3926 167.785 83.1406 167.888C82.8932 167.991 82.6156 168.042 82.3076 168.042C81.9156 168.042 81.5679 167.963 81.2646 167.804C80.9612 167.641 80.7256 167.414 80.5576 167.125C80.3942 166.836 80.3126 166.509 80.3126 166.145C80.3126 165.786 80.3919 165.461 80.5506 165.172C80.7139 164.883 80.9356 164.659 81.2156 164.5C81.5002 164.337 81.8199 164.255 82.1746 164.255C82.5292 164.255 82.8442 164.337 83.1196 164.5C83.3996 164.659 83.6166 164.883 83.7706 165.172C83.9292 165.461 84.0086 165.793 84.0086 166.166ZM82.1746 164.822C81.8526 164.822 81.5819 164.92 81.3626 165.116C81.1479 165.312 81.0219 165.569 80.9846 165.886H83.3646C83.3272 165.573 83.1989 165.319 82.9796 165.123C82.7649 164.922 82.4966 164.822 82.1746 164.822ZM90.3216 162.806V168H89.6776V167.412C89.5282 167.617 89.3392 167.774 89.1106 167.881C88.8819 167.988 88.6299 168.042 88.3546 168.042C87.9952 168.042 87.6732 167.963 87.3886 167.804C87.1039 167.645 86.8799 167.424 86.7166 167.139C86.5579 166.85 86.4786 166.518 86.4786 166.145C86.4786 165.772 86.5579 165.443 86.7166 165.158C86.8799 164.873 87.1039 164.652 87.3886 164.493C87.6732 164.334 87.9952 164.255 88.3546 164.255C88.6206 164.255 88.8656 164.306 89.0896 164.409C89.3136 164.507 89.5002 164.654 89.6496 164.85V162.806H90.3216ZM88.4106 167.454C88.6439 167.454 88.8562 167.4 89.0476 167.293C89.2389 167.181 89.3882 167.027 89.4956 166.831C89.6029 166.63 89.6566 166.402 89.6566 166.145C89.6566 165.888 89.6029 165.662 89.4956 165.466C89.3882 165.265 89.2389 165.111 89.0476 165.004C88.8562 164.897 88.6439 164.843 88.4106 164.843C88.1726 164.843 87.9579 164.897 87.7666 165.004C87.5799 165.111 87.4306 165.265 87.3186 165.466C87.2112 165.662 87.1576 165.888 87.1576 166.145C87.1576 166.402 87.2112 166.63 87.3186 166.831C87.4306 167.027 87.5799 167.181 87.7666 167.293C87.9579 167.4 88.1726 167.454 88.4106 167.454ZM93.1821 168.042C92.8134 168.042 92.4821 167.96 92.1881 167.797C91.8941 167.634 91.6631 167.41 91.4951 167.125C91.3317 166.836 91.2501 166.509 91.2501 166.145C91.2501 165.781 91.3317 165.457 91.4951 165.172C91.6631 164.883 91.8941 164.659 92.1881 164.5C92.4821 164.337 92.8134 164.255 93.1821 164.255C93.5507 164.255 93.8797 164.337 94.1691 164.5C94.4631 164.659 94.6917 164.883 94.8551 165.172C95.0231 165.457 95.1071 165.781 95.1071 166.145C95.1071 166.509 95.0231 166.836 94.8551 167.125C94.6917 167.41 94.4631 167.634 94.1691 167.797C93.8797 167.96 93.5507 168.042 93.1821 168.042ZM93.1821 167.454C93.4201 167.454 93.6324 167.4 93.8191 167.293C94.0104 167.181 94.1597 167.027 94.2671 166.831C94.3744 166.63 94.4281 166.402 94.4281 166.145C94.4281 165.888 94.3744 165.662 94.2671 165.466C94.1597 165.265 94.0104 165.111 93.8191 165.004C93.6324 164.897 93.4201 164.843 93.1821 164.843C92.9441 164.843 92.7294 164.897 92.5381 165.004C92.3514 165.111 92.2021 165.265 92.0901 165.466C91.9827 165.662 91.9291 165.888 91.9291 166.145C91.9291 166.402 91.9827 166.63 92.0901 166.831C92.2021 167.027 92.3514 167.181 92.5381 167.293C92.7294 167.4 92.9441 167.454 93.1821 167.454ZM99.3894 166.166C99.3894 166.217 99.3847 166.285 99.3754 166.369H96.3654C96.4074 166.696 96.5497 166.959 96.7924 167.16C97.0397 167.356 97.3454 167.454 97.7094 167.454C98.1527 167.454 98.5097 167.305 98.7804 167.006L99.1514 167.44C98.9834 167.636 98.7734 167.785 98.5214 167.888C98.2741 167.991 97.9964 168.042 97.6884 168.042C97.2964 168.042 96.9487 167.963 96.6454 167.804C96.3421 167.641 96.1064 167.414 95.9384 167.125C95.7751 166.836 95.6934 166.509 95.6934 166.145C95.6934 165.786 95.7727 165.461 95.9314 165.172C96.0947 164.883 96.3164 164.659 96.5964 164.5C96.8811 164.337 97.2007 164.255 97.5554 164.255C97.9101 164.255 98.2251 164.337 98.5004 164.5C98.7804 164.659 98.9974 164.883 99.1514 165.172C99.3101 165.461 99.3894 165.793 99.3894 166.166ZM97.5554 164.822C97.2334 164.822 96.9627 164.92 96.7434 165.116C96.5287 165.312 96.4027 165.569 96.3654 165.886H98.7454C98.7081 165.573 98.5797 165.319 98.3604 165.123C98.1457 164.922 97.8774 164.822 97.5554 164.822ZM101.387 168.042C101.083 168.042 100.792 168.002 100.512 167.923C100.232 167.839 100.012 167.734 99.8535 167.608L100.134 167.076C100.297 167.193 100.495 167.286 100.729 167.356C100.962 167.426 101.198 167.461 101.436 167.461C102.024 167.461 102.318 167.293 102.318 166.957C102.318 166.845 102.278 166.756 102.199 166.691C102.119 166.626 102.019 166.579 101.898 166.551C101.781 166.518 101.613 166.483 101.394 166.446C101.095 166.399 100.85 166.346 100.659 166.285C100.472 166.224 100.311 166.122 100.176 165.977C100.04 165.832 99.9725 165.629 99.9725 165.368C99.9725 165.032 100.113 164.764 100.393 164.563C100.673 164.358 101.048 164.255 101.52 164.255C101.767 164.255 102.014 164.285 102.262 164.346C102.509 164.407 102.712 164.488 102.871 164.591L102.584 165.123C102.28 164.927 101.923 164.829 101.513 164.829C101.228 164.829 101.011 164.876 100.862 164.969C100.712 165.062 100.638 165.186 100.638 165.34C100.638 165.461 100.68 165.557 100.764 165.627C100.848 165.697 100.95 165.748 101.072 165.781C101.198 165.814 101.373 165.851 101.597 165.893C101.895 165.944 102.136 166 102.318 166.061C102.504 166.117 102.663 166.215 102.794 166.355C102.924 166.495 102.99 166.691 102.99 166.943C102.99 167.279 102.845 167.547 102.556 167.748C102.271 167.944 101.881 168.042 101.387 168.042ZM105.81 164.255C106.282 164.255 106.655 164.393 106.93 164.668C107.21 164.939 107.35 165.338 107.35 165.865V168H106.678V165.942C106.678 165.583 106.592 165.312 106.419 165.13C106.247 164.948 105.999 164.857 105.677 164.857C105.313 164.857 105.026 164.964 104.816 165.179C104.606 165.389 104.501 165.692 104.501 166.089V168H103.829V164.29H104.473V164.85C104.609 164.659 104.791 164.512 105.019 164.409C105.253 164.306 105.516 164.255 105.81 164.255ZM108.714 162.764C108.845 162.764 108.952 162.811 109.036 162.904C109.125 162.993 109.169 163.105 109.169 163.24C109.169 163.31 109.162 163.38 109.148 163.45C109.134 163.515 109.104 163.611 109.057 163.737L108.721 164.717H108.28L108.539 163.674C108.451 163.641 108.378 163.588 108.322 163.513C108.271 163.434 108.245 163.343 108.245 163.24C108.245 163.1 108.29 162.986 108.378 162.897C108.467 162.808 108.579 162.764 108.714 162.764ZM112.239 167.783C112.141 167.867 112.019 167.932 111.875 167.979C111.73 168.021 111.581 168.042 111.427 168.042C111.053 168.042 110.764 167.942 110.559 167.741C110.353 167.54 110.251 167.253 110.251 166.88V164.843H109.621V164.29H110.251V163.478H110.923V164.29H111.987V164.843H110.923V166.852C110.923 167.053 110.972 167.207 111.07 167.314C111.172 167.421 111.317 167.475 111.504 167.475C111.709 167.475 111.884 167.417 112.029 167.3L112.239 167.783ZM118.48 164.29V167.496C118.48 168.145 118.319 168.623 117.997 168.931C117.675 169.244 117.194 169.4 116.555 169.4C116.205 169.4 115.871 169.351 115.554 169.253C115.237 169.16 114.98 169.024 114.784 168.847L115.106 168.329C115.279 168.478 115.491 168.595 115.743 168.679C116 168.768 116.263 168.812 116.534 168.812C116.968 168.812 117.288 168.709 117.493 168.504C117.703 168.299 117.808 167.986 117.808 167.566V167.272C117.649 167.463 117.453 167.608 117.22 167.706C116.991 167.799 116.742 167.846 116.471 167.846C116.116 167.846 115.794 167.771 115.505 167.622C115.22 167.468 114.996 167.256 114.833 166.985C114.67 166.71 114.588 166.397 114.588 166.047C114.588 165.697 114.67 165.387 114.833 165.116C114.996 164.841 115.22 164.628 115.505 164.479C115.794 164.33 116.116 164.255 116.471 164.255C116.751 164.255 117.01 164.306 117.248 164.409C117.491 164.512 117.689 164.663 117.843 164.864V164.29H118.48ZM116.548 167.258C116.791 167.258 117.008 167.207 117.199 167.104C117.395 167.001 117.547 166.859 117.654 166.677C117.766 166.49 117.822 166.28 117.822 166.047C117.822 165.688 117.703 165.398 117.465 165.179C117.227 164.955 116.921 164.843 116.548 164.843C116.17 164.843 115.862 164.955 115.624 165.179C115.386 165.398 115.267 165.688 115.267 166.047C115.267 166.28 115.321 166.49 115.428 166.677C115.54 166.859 115.692 167.001 115.883 167.104C116.079 167.207 116.301 167.258 116.548 167.258ZM123.222 164.29V168H122.585V167.44C122.45 167.631 122.27 167.781 122.046 167.888C121.827 167.991 121.586 168.042 121.325 168.042C120.83 168.042 120.441 167.907 120.156 167.636C119.871 167.361 119.729 166.957 119.729 166.425V164.29H120.401V166.348C120.401 166.707 120.487 166.98 120.66 167.167C120.833 167.349 121.08 167.44 121.402 167.44C121.757 167.44 122.037 167.333 122.242 167.118C122.447 166.903 122.55 166.6 122.55 166.208V164.29H123.222ZM125.852 164.255C126.366 164.255 126.758 164.381 127.028 164.633C127.304 164.885 127.441 165.261 127.441 165.76V168H126.804V167.51C126.692 167.683 126.531 167.816 126.321 167.909C126.116 167.998 125.871 168.042 125.586 168.042C125.171 168.042 124.837 167.942 124.585 167.741C124.338 167.54 124.214 167.277 124.214 166.95C124.214 166.623 124.333 166.362 124.571 166.166C124.809 165.965 125.187 165.865 125.705 165.865H126.769V165.732C126.769 165.443 126.685 165.221 126.517 165.067C126.349 164.913 126.102 164.836 125.775 164.836C125.556 164.836 125.341 164.873 125.131 164.948C124.921 165.018 124.744 165.114 124.599 165.235L124.319 164.731C124.511 164.577 124.739 164.46 125.005 164.381C125.271 164.297 125.554 164.255 125.852 164.255ZM125.698 167.524C125.955 167.524 126.177 167.468 126.363 167.356C126.55 167.239 126.685 167.076 126.769 166.866V166.348H125.733C125.164 166.348 124.879 166.539 124.879 166.922C124.879 167.109 124.952 167.256 125.096 167.363C125.241 167.47 125.442 167.524 125.698 167.524ZM129.329 164.913C129.446 164.698 129.618 164.535 129.847 164.423C130.076 164.311 130.353 164.255 130.68 164.255V164.906C130.643 164.901 130.591 164.899 130.526 164.899C130.162 164.899 129.875 165.009 129.665 165.228C129.46 165.443 129.357 165.751 129.357 166.152V168H128.685V164.29H129.329V164.913ZM132.852 164.255C133.366 164.255 133.758 164.381 134.028 164.633C134.304 164.885 134.441 165.261 134.441 165.76V168H133.804V167.51C133.692 167.683 133.531 167.816 133.321 167.909C133.116 167.998 132.871 168.042 132.586 168.042C132.171 168.042 131.837 167.942 131.585 167.741C131.338 167.54 131.214 167.277 131.214 166.95C131.214 166.623 131.333 166.362 131.571 166.166C131.809 165.965 132.187 165.865 132.705 165.865H133.769V165.732C133.769 165.443 133.685 165.221 133.517 165.067C133.349 164.913 133.102 164.836 132.775 164.836C132.556 164.836 132.341 164.873 132.131 164.948C131.921 165.018 131.744 165.114 131.599 165.235L131.319 164.731C131.511 164.577 131.739 164.46 132.005 164.381C132.271 164.297 132.554 164.255 132.852 164.255ZM132.698 167.524C132.955 167.524 133.177 167.468 133.363 167.356C133.55 167.239 133.685 167.076 133.769 166.866V166.348H132.733C132.164 166.348 131.879 166.539 131.879 166.922C131.879 167.109 131.952 167.256 132.096 167.363C132.241 167.47 132.442 167.524 132.698 167.524ZM137.666 164.255C138.137 164.255 138.511 164.393 138.786 164.668C139.066 164.939 139.206 165.338 139.206 165.865V168H138.534V165.942C138.534 165.583 138.448 165.312 138.275 165.13C138.102 164.948 137.855 164.857 137.533 164.857C137.169 164.857 136.882 164.964 136.672 165.179C136.462 165.389 136.357 165.692 136.357 166.089V168H135.685V164.29H136.329V164.85C136.464 164.659 136.646 164.512 136.875 164.409C137.108 164.306 137.372 164.255 137.666 164.255ZM142.536 167.783C142.438 167.867 142.316 167.932 142.172 167.979C142.027 168.021 141.878 168.042 141.724 168.042C141.35 168.042 141.061 167.942 140.856 167.741C140.65 167.54 140.548 167.253 140.548 166.88V164.843H139.918V164.29H140.548V163.478H141.22V164.29H142.284V164.843H141.22V166.852C141.22 167.053 141.269 167.207 141.367 167.314C141.469 167.421 141.614 167.475 141.801 167.475C142.006 167.475 142.181 167.417 142.326 167.3L142.536 167.783ZM146.578 166.166C146.578 166.217 146.573 166.285 146.564 166.369H143.554C143.596 166.696 143.738 166.959 143.981 167.16C144.228 167.356 144.534 167.454 144.898 167.454C145.341 167.454 145.698 167.305 145.969 167.006L146.34 167.44C146.172 167.636 145.962 167.785 145.71 167.888C145.463 167.991 145.185 168.042 144.877 168.042C144.485 168.042 144.137 167.963 143.834 167.804C143.531 167.641 143.295 167.414 143.127 167.125C142.964 166.836 142.882 166.509 142.882 166.145C142.882 165.786 142.961 165.461 143.12 165.172C143.283 164.883 143.505 164.659 143.785 164.5C144.07 164.337 144.389 164.255 144.744 164.255C145.099 164.255 145.414 164.337 145.689 164.5C145.969 164.659 146.186 164.883 146.34 165.172C146.499 165.461 146.578 165.793 146.578 166.166ZM144.744 164.822C144.422 164.822 144.151 164.92 143.932 165.116C143.717 165.312 143.591 165.569 143.554 165.886H145.934C145.897 165.573 145.768 165.319 145.549 165.123C145.334 164.922 145.066 164.822 144.744 164.822ZM150.864 166.166C150.864 166.217 150.859 166.285 150.85 166.369H147.84C147.882 166.696 148.024 166.959 148.267 167.16C148.514 167.356 148.82 167.454 149.184 167.454C149.627 167.454 149.984 167.305 150.255 167.006L150.626 167.44C150.458 167.636 150.248 167.785 149.996 167.888C149.749 167.991 149.471 168.042 149.163 168.042C148.771 168.042 148.423 167.963 148.12 167.804C147.817 167.641 147.581 167.414 147.413 167.125C147.25 166.836 147.168 166.509 147.168 166.145C147.168 165.786 147.247 165.461 147.406 165.172C147.569 164.883 147.791 164.659 148.071 164.5C148.356 164.337 148.675 164.255 149.03 164.255C149.385 164.255 149.7 164.337 149.975 164.5C150.255 164.659 150.472 164.883 150.626 165.172C150.785 165.461 150.864 165.793 150.864 166.166ZM149.03 164.822C148.708 164.822 148.437 164.92 148.218 165.116C148.003 165.312 147.877 165.569 147.84 165.886H150.22C150.183 165.573 150.054 165.319 149.835 165.123C149.62 164.922 149.352 164.822 149.03 164.822ZM155.035 163.317C154.634 163.317 154.433 163.534 154.433 163.968V164.29H155.511V164.843H154.447V168H153.775V164.843H153.145V164.29H153.775V163.961C153.775 163.592 153.882 163.301 154.097 163.086C154.312 162.871 154.613 162.764 155 162.764C155.149 162.764 155.289 162.783 155.42 162.82C155.551 162.857 155.663 162.911 155.756 162.981L155.553 163.492C155.399 163.375 155.226 163.317 155.035 163.317ZM159.603 164.29V168H158.966V167.44C158.83 167.631 158.651 167.781 158.427 167.888C158.207 167.991 157.967 168.042 157.706 168.042C157.211 168.042 156.821 167.907 156.537 167.636C156.252 167.361 156.11 166.957 156.11 166.425V164.29H156.782V166.348C156.782 166.707 156.868 166.98 157.041 167.167C157.213 167.349 157.461 167.44 157.783 167.44C158.137 167.44 158.417 167.333 158.623 167.118C158.828 166.903 158.931 166.6 158.931 166.208V164.29H159.603ZM162.968 167.783C162.87 167.867 162.749 167.932 162.604 167.979C162.459 168.021 162.31 168.042 162.156 168.042C161.783 168.042 161.493 167.942 161.288 167.741C161.083 167.54 160.98 167.253 160.98 166.88V164.843H160.35V164.29H160.98V163.478H161.652V164.29H162.716V164.843H161.652V166.852C161.652 167.053 161.701 167.207 161.799 167.314C161.902 167.421 162.046 167.475 162.233 167.475C162.438 167.475 162.613 167.417 162.758 167.3L162.968 167.783ZM167.239 164.29V168H166.602V167.44C166.466 167.631 166.287 167.781 166.063 167.888C165.843 167.991 165.603 168.042 165.342 168.042C164.847 168.042 164.457 167.907 164.173 167.636C163.888 167.361 163.746 166.957 163.746 166.425V164.29H164.418V166.348C164.418 166.707 164.504 166.98 164.677 167.167C164.849 167.349 165.097 167.44 165.419 167.44C165.773 167.44 166.053 167.333 166.259 167.118C166.464 166.903 166.567 166.6 166.567 166.208V164.29H167.239ZM169.162 164.913C169.279 164.698 169.451 164.535 169.68 164.423C169.909 164.311 170.186 164.255 170.513 164.255V164.906C170.476 164.901 170.424 164.899 170.359 164.899C169.995 164.899 169.708 165.009 169.498 165.228C169.293 165.443 169.19 165.751 169.19 166.152V168H168.518V164.29H169.162V164.913ZM174.66 166.166C174.66 166.217 174.655 166.285 174.646 166.369H171.636C171.678 166.696 171.82 166.959 172.063 167.16C172.31 167.356 172.616 167.454 172.98 167.454C173.423 167.454 173.78 167.305 174.051 167.006L174.422 167.44C174.254 167.636 174.044 167.785 173.792 167.888C173.545 167.991 173.267 168.042 172.959 168.042C172.567 168.042 172.219 167.963 171.916 167.804C171.613 167.641 171.377 167.414 171.209 167.125C171.046 166.836 170.964 166.509 170.964 166.145C170.964 165.786 171.043 165.461 171.202 165.172C171.365 164.883 171.587 164.659 171.867 164.5C172.152 164.337 172.471 164.255 172.826 164.255C173.181 164.255 173.496 164.337 173.771 164.5C174.051 164.659 174.268 164.883 174.422 165.172C174.581 165.461 174.66 165.793 174.66 166.166ZM172.826 164.822C172.504 164.822 172.233 164.92 172.014 165.116C171.799 165.312 171.673 165.569 171.636 165.886H174.016C173.979 165.573 173.85 165.319 173.631 165.123C173.416 164.922 173.148 164.822 172.826 164.822ZM178.117 164.913C178.234 164.698 178.406 164.535 178.635 164.423C178.864 164.311 179.141 164.255 179.468 164.255V164.906C179.431 164.901 179.379 164.899 179.314 164.899C178.95 164.899 178.663 165.009 178.453 165.228C178.248 165.443 178.145 165.751 178.145 166.152V168H177.473V164.29H178.117V164.913ZM183.615 166.166C183.615 166.217 183.61 166.285 183.601 166.369H180.591C180.633 166.696 180.775 166.959 181.018 167.16C181.265 167.356 181.571 167.454 181.935 167.454C182.378 167.454 182.735 167.305 183.006 167.006L183.377 167.44C183.209 167.636 182.999 167.785 182.747 167.888C182.5 167.991 182.222 168.042 181.914 168.042C181.522 168.042 181.174 167.963 180.871 167.804C180.568 167.641 180.332 167.414 180.164 167.125C180.001 166.836 179.919 166.509 179.919 166.145C179.919 165.786 179.998 165.461 180.157 165.172C180.32 164.883 180.542 164.659 180.822 164.5C181.107 164.337 181.426 164.255 181.781 164.255C182.136 164.255 182.451 164.337 182.726 164.5C183.006 164.659 183.223 164.883 183.377 165.172C183.536 165.461 183.615 165.793 183.615 166.166ZM181.781 164.822C181.459 164.822 181.188 164.92 180.969 165.116C180.754 165.312 180.628 165.569 180.591 165.886H182.971C182.934 165.573 182.805 165.319 182.586 165.123C182.371 164.922 182.103 164.822 181.781 164.822ZM185.612 168.042C185.309 168.042 185.017 168.002 184.737 167.923C184.457 167.839 184.238 167.734 184.079 167.608L184.359 167.076C184.522 167.193 184.721 167.286 184.954 167.356C185.187 167.426 185.423 167.461 185.661 167.461C186.249 167.461 186.543 167.293 186.543 166.957C186.543 166.845 186.503 166.756 186.424 166.691C186.345 166.626 186.244 166.579 186.123 166.551C186.006 166.518 185.838 166.483 185.619 166.446C185.32 166.399 185.075 166.346 184.884 166.285C184.697 166.224 184.536 166.122 184.401 165.977C184.266 165.832 184.198 165.629 184.198 165.368C184.198 165.032 184.338 164.764 184.618 164.563C184.898 164.358 185.274 164.255 185.745 164.255C185.992 164.255 186.24 164.285 186.487 164.346C186.734 164.407 186.937 164.488 187.096 164.591L186.809 165.123C186.506 164.927 186.149 164.829 185.738 164.829C185.453 164.829 185.236 164.876 185.087 164.969C184.938 165.062 184.863 165.186 184.863 165.34C184.863 165.461 184.905 165.557 184.989 165.627C185.073 165.697 185.176 165.748 185.297 165.781C185.423 165.814 185.598 165.851 185.822 165.893C186.121 165.944 186.361 166 186.543 166.061C186.73 166.117 186.888 166.215 187.019 166.355C187.15 166.495 187.215 166.691 187.215 166.943C187.215 167.279 187.07 167.547 186.781 167.748C186.496 167.944 186.107 168.042 185.612 168.042ZM191.513 164.29V168H190.876V167.44C190.741 167.631 190.561 167.781 190.337 167.888C190.118 167.991 189.877 168.042 189.616 168.042C189.121 168.042 188.732 167.907 188.447 167.636C188.162 167.361 188.02 166.957 188.02 166.425V164.29H188.692V166.348C188.692 166.707 188.778 166.98 188.951 167.167C189.124 167.349 189.371 167.44 189.693 167.44C190.048 167.44 190.328 167.333 190.533 167.118C190.738 166.903 190.841 166.6 190.841 166.208V164.29H191.513ZM192.792 162.806H193.464V168H192.792V162.806ZM196.922 167.783C196.824 167.867 196.703 167.932 196.558 167.979C196.414 168.021 196.264 168.042 196.11 168.042C195.737 168.042 195.448 167.942 195.242 167.741C195.037 167.54 194.934 167.253 194.934 166.88V164.843H194.304V164.29H194.934V163.478H195.606V164.29H196.67V164.843H195.606V166.852C195.606 167.053 195.655 167.207 195.753 167.314C195.856 167.421 196.001 167.475 196.187 167.475C196.393 167.475 196.568 167.417 196.712 167.3L196.922 167.783ZM198.799 168.042C198.495 168.042 198.204 168.002 197.924 167.923C197.644 167.839 197.424 167.734 197.266 167.608L197.546 167.076C197.709 167.193 197.907 167.286 198.141 167.356C198.374 167.426 198.61 167.461 198.848 167.461C199.436 167.461 199.73 167.293 199.73 166.957C199.73 166.845 199.69 166.756 199.611 166.691C199.531 166.626 199.431 166.579 199.31 166.551C199.193 166.518 199.025 166.483 198.806 166.446C198.507 166.399 198.262 166.346 198.071 166.285C197.884 166.224 197.723 166.122 197.588 165.977C197.452 165.832 197.385 165.629 197.385 165.368C197.385 165.032 197.525 164.764 197.805 164.563C198.085 164.358 198.46 164.255 198.932 164.255C199.179 164.255 199.426 164.285 199.674 164.346C199.921 164.407 200.124 164.488 200.283 164.591L199.996 165.123C199.692 164.927 199.335 164.829 198.925 164.829C198.64 164.829 198.423 164.876 198.274 164.969C198.124 165.062 198.05 165.186 198.05 165.34C198.05 165.461 198.092 165.557 198.176 165.627C198.26 165.697 198.362 165.748 198.484 165.781C198.61 165.814 198.785 165.851 199.009 165.893C199.307 165.944 199.548 166 199.73 166.061C199.916 166.117 200.075 166.215 200.206 166.355C200.336 166.495 200.402 166.691 200.402 166.943C200.402 167.279 200.257 167.547 199.968 167.748C199.683 167.944 199.293 168.042 198.799 168.042ZM201.402 168.042C201.272 168.042 201.16 167.998 201.066 167.909C200.973 167.816 200.926 167.699 200.926 167.559C200.926 167.424 200.973 167.312 201.066 167.223C201.16 167.13 201.272 167.083 201.402 167.083C201.533 167.083 201.643 167.127 201.731 167.216C201.82 167.305 201.864 167.419 201.864 167.559C201.864 167.699 201.818 167.816 201.724 167.909C201.636 167.998 201.528 168.042 201.402 168.042Z" fill="white"/>
<path d="M300.256 47.7109L301.005 48.5137L300.35 49.3942C279.15 77.9652 266.936 90.9016 261.753 89.1665C258.597 88.1096 255.432 84.9316 252.266 80.3157C251.153 78.6941 250.108 76.9861 249.158 75.2855C248.526 74.1534 247.99 73.1212 247.712 72.5403C247.422 71.9722 247.214 71.3666 247.093 70.7411C247.085 70.7041 247.085 70.7041 247.079 70.6696C247.03 70.4143 247.012 70.3341 246.975 70.1948C246.334 67.7804 246.01 65.2931 246.011 62.7955C246.011 46.8871 258.947 34 274.905 34C279.834 33.9917 284.683 35.2461 288.986 37.6429L289.097 37.712C292.593 40.1373 296.313 43.4703 300.256 47.7109ZM287.635 39.9232C283.74 37.7647 279.355 36.6354 274.898 36.6428C260.412 36.6366 248.657 48.346 248.657 62.7906C248.654 65.0622 248.949 67.3244 249.533 69.5202C249.59 69.736 249.616 69.8581 249.677 70.1701L249.689 70.233C249.769 70.6426 249.909 71.0381 250.105 71.407C250.358 71.9373 250.868 72.9202 251.474 74.0042C252.388 75.6382 253.391 77.2783 254.454 78.8285C257.315 82.998 260.146 85.8467 262.599 86.6655C265.862 87.7581 278.148 74.7959 297.564 48.7122C294.04 45.0019 290.73 42.0722 287.635 39.9232Z" fill="black"/>
<path d="M287.635 39.9232C283.74 37.7647 279.355 36.6355 274.898 36.6429C260.412 36.6367 248.657 48.346 248.657 62.7906C248.654 65.0622 248.949 67.3245 249.533 69.5202C249.59 69.736 249.616 69.8581 249.677 70.1701L249.689 70.233C249.769 70.6426 249.909 71.0382 250.105 71.407C250.358 71.9373 250.868 72.9202 251.474 74.0042C252.388 75.6382 253.391 77.2784 254.454 78.8285C257.315 82.998 260.146 85.8467 262.599 86.6656C265.862 87.7582 278.148 74.7959 297.564 48.7123C294.04 45.002 290.73 42.0723 287.635 39.9232Z" fill="#EC1C79"/>
<path d="M280.202 96.8703C264.239 96.8703 251.307 83.9784 251.307 68.0749C251.307 52.1714 264.248 39.2782 280.202 39.2782C296.156 39.2782 309.095 52.1714 309.095 68.0749C309.095 83.9784 296.159 96.8703 280.202 96.8703ZM280.202 94.2288C294.695 94.2288 306.443 82.5195 306.443 68.0749C306.443 53.6303 294.688 41.9197 280.201 41.9197C265.713 41.9197 253.957 53.6352 253.957 68.0749C253.957 82.5145 265.708 94.2288 280.202 94.2288Z" fill="black"/>
<path d="M280.202 94.2288C294.695 94.2288 306.443 82.5195 306.443 68.0749C306.443 53.6303 294.688 41.9198 280.201 41.9198C265.713 41.9198 253.957 53.6353 253.957 68.0749C253.957 82.5146 265.708 94.2288 280.202 94.2288Z" fill="white"/>
<path fill-rule="evenodd" clip-rule="evenodd" d="M260.571 73.4319L257.097 63.0026H260.14L261.951 68.9936L263.955 62.973H266.43L268.433 68.9936L270.244 63.0026H273.228L269.754 73.4319H267.251L265.158 67.4705L263.08 73.4319H260.571ZM274.376 73.3579V62.9989H282.734V65.4394H277.226V67.0081H282.214V69.2735H277.226V70.9161H282.809V73.3566L274.376 73.3579ZM286.816 73.3579V65.5171H283.699V63.0026H292.813V65.5171H289.696V73.3579H286.816ZM294.075 73.3579V62.9989H296.955V66.8749H300.651V63.0026H303.53V73.3616H300.651V69.4227H296.955V73.3579H294.075Z" fill="black"/>
<path d="M247.728 59.8876C247.385 59.7065 247.127 59.3992 247.009 59.0313C246.891 58.6634 246.922 58.264 247.095 57.9185C247.269 57.573 247.571 57.3087 247.937 57.1822C248.303 57.0556 248.705 57.0767 249.055 57.2411L253.297 59.3536C253.631 59.5394 253.88 59.8461 253.992 60.2101C254.104 60.5741 254.072 60.9672 253.901 61.3078C253.73 61.6483 253.434 61.91 253.074 62.0385C252.714 62.167 252.319 62.1524 251.969 61.9976L247.728 59.8876Z" fill="black"/>
<path d="M247.24 66.8959C246.9 66.7215 246.641 66.4232 246.517 66.0633C246.392 65.7033 246.411 65.3093 246.571 64.9632C246.73 64.6171 247.017 64.3455 247.372 64.205C247.728 64.0645 248.123 64.0658 248.478 64.2087L252.719 66.1597C253.077 66.3242 253.354 66.6235 253.49 66.9918C253.626 67.3601 253.61 67.7672 253.445 68.1236C253.28 68.4799 252.98 68.7563 252.61 68.8919C252.24 69.0276 251.832 69.0114 251.474 68.8468L247.24 66.8959Z" fill="black"/>
<path d="M241.956 84.6169L242.348 85.0368L242.005 85.4974C230.916 100.443 224.526 107.21 221.815 106.302C220.164 105.749 218.508 104.087 216.853 101.672C216.27 100.824 215.724 99.9307 215.227 99.0411C214.896 98.4489 214.616 97.909 214.47 97.6051C214.319 97.308 214.21 96.9912 214.146 96.6639C214.143 96.6446 214.143 96.6446 214.139 96.6265C214.113 96.493 214.104 96.4511 214.085 96.3782C213.749 95.1152 213.58 93.8141 213.581 92.5076C213.581 84.186 220.347 77.4448 228.695 77.4448C231.273 77.4404 233.81 78.0966 236.061 79.3504L236.119 79.3865C237.948 80.6552 239.893 82.3986 241.956 84.6169ZM235.354 80.5431C233.316 79.4141 231.023 78.8234 228.691 78.8272C221.114 78.824 214.965 84.9491 214.965 92.505C214.963 93.6933 215.117 94.8767 215.423 96.0253C215.453 96.1382 215.466 96.202 215.498 96.3653L215.504 96.3982C215.546 96.6124 215.62 96.8193 215.722 97.0123C215.855 97.2897 216.121 97.8038 216.438 98.3708C216.916 99.2256 217.441 100.084 217.997 100.894C219.494 103.075 220.975 104.566 222.258 104.994C223.964 105.566 230.391 98.785 240.548 85.1407C238.704 83.1998 236.973 81.6673 235.354 80.5431Z" fill="black"/>
<path d="M235.354 80.5432C233.316 79.4141 231.023 78.8234 228.691 78.8273C221.114 78.824 214.965 84.9492 214.965 92.5051C214.963 93.6934 215.117 94.8767 215.423 96.0253C215.453 96.1382 215.466 96.2021 215.498 96.3653L215.504 96.3982C215.546 96.6124 215.62 96.8194 215.722 97.0123C215.855 97.2897 216.121 97.8038 216.439 98.3709C216.916 99.2256 217.441 100.084 217.997 100.894C219.494 103.076 220.975 104.566 222.258 104.994C223.964 105.566 230.391 98.785 240.548 85.1407C238.704 83.1999 236.973 81.6674 235.354 80.5432Z" fill="#EC1C79"/>
<path d="M231.466 110.332C223.116 110.332 216.351 103.588 216.351 95.2693C216.351 86.9502 223.12 80.2058 231.466 80.2058C239.811 80.2058 246.58 86.9502 246.58 95.2693C246.58 103.588 239.813 110.332 231.466 110.332ZM231.466 108.95C239.047 108.95 245.193 102.825 245.193 95.2693C245.193 87.7133 239.043 81.5876 231.465 81.5876C223.887 81.5876 217.737 87.7159 217.737 95.2693C217.737 102.823 223.884 108.95 231.466 108.95Z" fill="black"/>
<path d="M231.466 108.95C239.047 108.95 245.193 102.825 245.193 95.2693C245.193 87.7133 239.044 81.5876 231.465 81.5876C223.887 81.5876 217.737 87.7159 217.737 95.2693C217.737 102.823 223.884 108.95 231.466 108.95Z" fill="white"/>
<path d="M214.479 90.9865C214.299 90.8918 214.165 90.7311 214.103 90.5386C214.041 90.3462 214.057 90.1372 214.148 89.9565C214.239 89.7758 214.397 89.6375 214.588 89.5713C214.78 89.5051 214.99 89.5162 215.173 89.6022L217.392 90.7072C217.566 90.8044 217.697 90.9648 217.755 91.1552C217.814 91.3456 217.797 91.5513 217.708 91.7294C217.618 91.9076 217.463 92.0445 217.275 92.1117C217.087 92.1789 216.88 92.1712 216.697 92.0903L214.479 90.9865Z" fill="black"/>
<path d="M214.224 94.6525C214.046 94.5613 213.91 94.4053 213.845 94.217C213.78 94.0287 213.79 93.8226 213.873 93.6415C213.957 93.4605 214.107 93.3184 214.293 93.2449C214.479 93.1714 214.686 93.1721 214.871 93.2469L217.09 94.2674C217.277 94.3535 217.422 94.51 217.493 94.7027C217.564 94.8954 217.556 95.1083 217.469 95.2947C217.383 95.4811 217.226 95.6257 217.033 95.6967C216.839 95.7676 216.626 95.7591 216.439 95.6731L214.224 94.6525Z" fill="black"/>
<path d="M236.344 92.5219C236.179 92.4327 235.995 92.3861 235.807 92.3861C235.62 92.3861 235.436 92.4327 235.271 92.5219L232.767 94.0243L231.068 94.9773L228.608 96.4745C228.443 96.5642 228.258 96.6112 228.071 96.6112C227.884 96.6112 227.7 96.5642 227.534 96.4745L225.61 95.2908C225.447 95.193 225.311 95.0536 225.217 94.8865C225.123 94.7194 225.074 94.5303 225.074 94.3378V92.0677C225.075 91.8755 225.125 91.6869 225.219 91.5201C225.313 91.3532 225.447 91.2136 225.61 91.1148L227.532 89.9766C227.697 89.8868 227.882 89.8399 228.069 89.8399C228.256 89.8399 228.441 89.8868 228.606 89.9766L230.528 91.1561C230.692 91.2539 230.827 91.3932 230.921 91.5603C231.016 91.7275 231.065 91.9166 231.066 92.1091V93.6105L232.765 92.612V91.0692C232.763 90.877 232.713 90.6884 232.619 90.5215C232.525 90.3546 232.39 90.2151 232.228 90.1163L228.651 87.9838C228.486 87.894 228.301 87.847 228.114 87.847C227.927 87.847 227.742 87.894 227.577 87.9838L223.907 90.1566C223.743 90.2418 223.606 90.372 223.511 90.5324C223.417 90.6928 223.368 90.877 223.371 91.0641V95.3312C223.373 95.5234 223.423 95.712 223.516 95.8789C223.61 96.0458 223.745 96.1853 223.907 96.2841L227.529 98.4166C227.694 98.5064 227.879 98.5533 228.066 98.5533C228.253 98.5533 228.438 98.5064 228.603 98.4166L231.063 96.968L232.762 95.9696L235.221 94.521C235.386 94.4318 235.57 94.3851 235.757 94.3851C235.945 94.3851 236.129 94.4318 236.294 94.521L238.217 95.6592C238.381 95.7558 238.518 95.8946 238.613 96.0616C238.709 96.2286 238.759 96.4181 238.76 96.6111V98.8802C238.759 99.0724 238.709 99.2611 238.615 99.428C238.521 99.5949 238.386 99.7344 238.224 99.8331L236.346 100.971C236.181 101.061 235.997 101.107 235.809 101.107C235.622 101.107 235.438 101.061 235.273 100.971L233.35 99.8331C233.187 99.7355 233.051 99.5962 232.957 99.4291C232.863 99.2619 232.813 99.0727 232.813 98.8802V97.4316L231.115 98.4218V99.9221C231.116 100.114 231.166 100.303 231.26 100.47C231.354 100.637 231.488 100.776 231.651 100.875L235.273 103.009C235.438 103.098 235.622 103.144 235.809 103.144C235.997 103.144 236.181 103.098 236.346 103.009L239.968 100.875C240.131 100.777 240.267 100.638 240.361 100.471C240.455 100.304 240.504 100.115 240.504 99.9221V95.6085C240.503 95.4162 240.453 95.2276 240.359 95.0606C240.265 94.8937 240.131 94.7542 239.968 94.6555L236.344 92.5219Z" fill="#8247E5"/>
<path d="M222.375 47.903L222.767 48.323L222.425 48.7836C211.335 63.729 204.945 70.496 202.235 69.5883C200.583 69.0355 198.928 67.3731 197.272 64.9585C196.689 64.1103 196.143 63.2168 195.646 62.3272C195.315 61.735 195.035 61.1951 194.889 60.8913C194.738 60.5941 194.629 60.2773 194.566 59.9501C194.562 59.9307 194.562 59.9307 194.559 59.9127C194.533 59.7791 194.524 59.7372 194.504 59.6643C194.169 58.4013 193.999 57.1003 194 55.7938C194 47.4721 200.767 40.7309 209.114 40.7309C211.693 40.7265 214.229 41.3827 216.48 42.6365L216.538 42.6726C218.367 43.9413 220.313 45.6848 222.375 47.903ZM215.773 43.8293C213.736 42.7002 211.442 42.1095 209.111 42.1133C201.533 42.1101 195.384 48.2352 195.384 55.7912C195.383 56.9795 195.537 58.1628 195.842 59.3114C195.872 59.4243 195.886 59.4882 195.917 59.6514L195.924 59.6843C195.966 59.8985 196.039 60.1055 196.141 60.2984C196.274 60.5758 196.541 61.0899 196.858 61.657C197.335 62.5117 197.86 63.3697 198.416 64.1806C199.913 66.3616 201.394 67.8518 202.677 68.2801C204.384 68.8517 210.81 62.0711 220.967 48.4268C219.123 46.486 217.392 44.9535 215.773 43.8293Z" fill="black"/>
<path d="M215.773 43.8293C213.736 42.7002 211.442 42.1095 209.111 42.1134C201.533 42.1102 195.384 48.2353 195.384 55.7912C195.383 56.9795 195.537 58.1629 195.842 59.3115C195.872 59.4244 195.886 59.4882 195.917 59.6514L195.924 59.6843C195.966 59.8986 196.039 60.1055 196.141 60.2985C196.274 60.5758 196.541 61.09 196.858 61.657C197.335 62.5118 197.86 63.3697 198.416 64.1806C199.913 66.3617 201.394 67.8518 202.677 68.2801C204.384 68.8517 210.81 62.0712 220.967 48.4269C219.123 46.486 217.392 44.9535 215.773 43.8293Z" fill="#EC1C79"/>
<path d="M211.885 73.6182C203.535 73.6182 196.77 66.8745 196.77 58.5554C196.77 50.2363 203.54 43.4919 211.885 43.4919C220.23 43.4919 226.999 50.2363 226.999 58.5554C226.999 66.8745 220.232 73.6182 211.885 73.6182ZM211.885 72.2364C219.467 72.2364 225.612 66.1113 225.612 58.5554C225.612 50.9995 219.463 44.8737 211.884 44.8737C204.306 44.8737 198.156 51.002 198.156 58.5554C198.156 66.1087 204.303 72.2364 211.885 72.2364Z" fill="black"/>
<path d="M211.885 72.2364C219.467 72.2364 225.612 66.1113 225.612 58.5554C225.612 50.9995 219.463 44.8737 211.884 44.8737C204.306 44.8737 198.156 51.002 198.156 58.5554C198.156 66.1087 204.304 72.2364 211.885 72.2364Z" fill="white"/>
<path d="M194.898 54.2726C194.719 54.1779 194.584 54.0172 194.522 53.8247C194.46 53.6323 194.476 53.4234 194.567 53.2426C194.658 53.0619 194.816 52.9236 195.007 52.8574C195.199 52.7912 195.409 52.8023 195.592 52.8883L197.811 53.9933C197.986 54.0905 198.116 54.2509 198.175 54.4413C198.233 54.6317 198.216 54.8374 198.127 55.0155C198.037 55.1937 197.883 55.3306 197.694 55.3978C197.506 55.465 197.299 55.4573 197.117 55.3764L194.898 54.2726Z" fill="black"/>
<path d="M194.643 57.9387C194.465 57.8474 194.33 57.6914 194.264 57.5031C194.199 57.3148 194.209 57.1087 194.293 56.9277C194.376 56.7466 194.526 56.6046 194.712 56.5311C194.898 56.4576 195.105 56.4583 195.29 56.533L197.509 57.5535C197.696 57.6396 197.841 57.7962 197.912 57.9888C197.983 58.1815 197.975 58.3944 197.889 58.5808C197.802 58.7673 197.645 58.9118 197.452 58.9828C197.259 59.0537 197.045 59.0453 196.858 58.9592L194.643 57.9387Z" fill="black"/>
<path d="M208.06 57.2711L211.745 53.5843L215.431 57.2711L217.575 55.126L211.75 49.2975L205.925 55.126L208.06 57.2711ZM202.261 58.7808L204.403 56.6357L206.547 58.7808L204.403 60.9282L202.261 58.7808ZM208.06 60.295L211.745 63.9818L215.431 60.2939L217.576 62.4378L211.751 68.2663L205.926 62.4378L208.071 60.295H208.06ZM216.943 58.7819L219.087 56.6368L221.229 58.7819L219.087 60.9282L216.943 58.7819Z" fill="#F3BA2F"/>
<path d="M213.919 58.7796L211.749 56.6082L210.136 58.2116L209.952 58.3956L209.571 58.7773L211.741 60.9487L213.911 58.7716" fill="#F3BA2F"/>
<defs>
<linearGradient id="paint0_linear" x1="468" y1="92" x2="-8.74521e-08" y2="92" gradientUnits="userSpaceOnUse">
<stop stop-color="#FFA6CE"/>
<stop offset="1" stop-color="#E8267D"/>
</linearGradient>
<linearGradient id="paint1_linear" x1="468" y1="92" x2="-8.74521e-08" y2="92" gradientUnits="userSpaceOnUse">
<stop stop-color="#FFA6CE"/>
<stop offset="1" stop-color="#E8267D"/>
</linearGradient>
</defs>
</svg>
