<svg width="901" height="199" viewBox="0 0 901 199" fill="none" xmlns="http://www.w3.org/2000/svg">
<mask id="mask0" mask-type="alpha" maskUnits="userSpaceOnUse" x="0" y="0" width="901" height="199">
<rect width="901" height="199" rx="10" fill="url(#paint0_linear)"/>
</mask>
<g mask="url(#mask0)">
<path d="M504.322 147.832C504.228 147.865 504.235 148.001 504.332 148.023L621.347 175.51C621.366 175.515 621.385 175.514 621.404 175.507L761.459 126.104C761.553 126.071 761.546 125.935 761.449 125.912L644.434 98.4252C644.415 98.4208 644.396 98.4218 644.378 98.4282L504.322 147.832Z" fill="#0A0A1E" stroke="black" stroke-width="3"/>
<path d="M504.322 147.832C504.228 147.865 504.235 148.001 504.332 148.023L621.348 175.511C621.366 175.515 621.385 175.514 621.403 175.508L644.338 167.626C644.378 167.612 644.405 167.574 644.405 167.532V98.5598C644.405 98.4908 644.337 98.4425 644.272 98.4655L504.322 147.832Z" fill="#C4C4C4" stroke="black" stroke-width="3"/>
<path d="M504 148.071C504 148.007 504.06 147.959 504.123 147.974L621.299 175.499C621.344 175.509 621.376 175.55 621.376 175.596V262.178C621.376 262.242 621.316 262.29 621.253 262.275L504.077 234.75C504.032 234.74 504 234.699 504 234.653L504 148.071Z" fill="#EC1C79" stroke="black" stroke-width="3"/>
<path d="M761.41 125.876C761.41 125.807 761.341 125.759 761.276 125.782L621.442 175.493C621.403 175.508 621.376 175.545 621.376 175.588V262.668C621.376 262.737 621.444 262.785 621.509 262.762L761.343 213.051C761.383 213.037 761.41 212.999 761.41 212.957V125.876Z" fill="white" stroke="black" stroke-width="3"/>
</g>
<path d="M690.65 52.4071L691.874 53.7191L690.804 55.1581C656.157 101.851 636.196 122.992 627.727 120.156C622.568 118.429 617.395 113.235 612.222 105.692C610.402 103.042 608.696 100.25 607.143 97.4711C606.109 95.621 605.234 93.9341 604.779 92.9849C604.306 92.0565 603.965 91.0667 603.767 90.0444C603.755 89.984 603.755 89.984 603.745 89.9275C603.664 89.5104 603.636 89.3794 603.575 89.1516C602.527 85.2059 601.997 81.1411 602 77.0593C602 51.0608 623.14 30.0001 649.219 30.0001C657.275 29.9864 665.199 32.0365 672.232 35.9535L672.414 36.0664C678.127 40.03 684.206 45.4769 690.65 52.4071ZM670.024 39.68C663.658 36.1525 656.492 34.307 649.209 34.319C625.535 34.309 606.324 53.445 606.324 77.0512C606.319 80.7637 606.801 84.4608 607.755 88.0492C607.848 88.4019 607.891 88.6014 607.99 89.1113L608.01 89.2141C608.141 89.8834 608.37 90.5299 608.69 91.1327C609.104 91.9994 609.937 93.6056 610.928 95.3771C612.421 98.0475 614.061 100.728 615.798 103.261C620.473 110.075 625.1 114.731 629.108 116.069C634.441 117.855 654.519 96.671 686.25 54.0436C680.491 47.98 675.082 43.1921 670.024 39.68Z" fill="black"/>
<path d="M670.024 39.68C663.658 36.1526 656.492 34.3071 649.209 34.3191C625.535 34.309 606.324 53.4451 606.324 77.0513C606.319 80.7637 606.801 84.4608 607.755 88.0493C607.848 88.402 607.891 88.6015 607.99 89.1114L608.01 89.2142C608.141 89.8835 608.37 90.53 608.69 91.1328C609.104 91.9994 609.937 93.6057 610.928 95.3772C612.421 98.0476 614.061 100.728 615.798 103.261C620.473 110.075 625.1 114.731 629.108 116.069C634.441 117.855 654.519 96.6711 686.25 54.0437C680.491 47.9801 675.082 43.1922 670.024 39.68Z" fill="#EC1C79"/>
<path d="M657.876 132.746C631.789 132.746 610.655 111.678 610.655 85.6872C610.655 59.6968 631.804 38.6259 657.876 38.6259C683.949 38.6259 705.095 59.6968 705.095 85.6872C705.095 111.678 683.955 132.746 657.876 132.746ZM657.876 128.429C681.562 128.429 700.761 109.293 700.761 85.6872C700.761 62.081 681.55 42.9429 657.874 42.9429C634.198 42.9429 614.985 62.0891 614.985 85.6872C614.985 109.285 634.19 128.429 657.876 128.429Z" fill="black"/>
<path d="M657.876 128.43C681.562 128.43 700.761 109.293 700.761 85.6873C700.761 62.0811 681.55 42.943 657.874 42.943C634.198 42.943 614.985 62.0891 614.985 85.6873C614.985 109.285 634.19 128.43 657.876 128.43Z" fill="white"/>
<path fill-rule="evenodd" clip-rule="evenodd" d="M625.793 94.4419L620.117 77.3978H625.09L628.05 87.1885L631.324 77.3494H635.369L638.643 87.1885L641.603 77.3978H646.479L640.802 94.4419H636.711L633.29 84.6995L629.895 94.4419H625.793ZM648.355 94.321V77.3918H662.013V81.3802H653.013V83.9438H661.164V87.646H653.013V90.3305H662.137V94.319L648.355 94.321ZM668.685 94.321V81.5072H663.591V77.3978H678.487V81.5072H673.393V94.321H668.685ZM680.549 94.321V77.3918H685.255V83.7261H691.295V77.3978H696.001V94.327H691.295V87.8899H685.255V94.321H680.549Z" fill="black"/>
<path d="M604.805 72.307C604.245 72.0111 603.824 71.5089 603.631 70.9077C603.438 70.3064 603.488 69.6537 603.772 69.089C604.055 68.5244 604.549 68.0925 605.147 67.8857C605.745 67.6788 606.401 67.7134 606.975 67.982L613.907 71.4344C614.452 71.7379 614.859 72.2393 615.042 72.8341C615.226 73.4289 615.173 74.0714 614.893 74.628C614.614 75.1845 614.13 75.6123 613.542 75.8222C612.954 76.0322 612.308 76.0083 611.737 75.7553L604.805 72.307Z" fill="black"/>
<path d="M604.008 83.7604C603.453 83.4753 603.03 82.9879 602.826 82.3997C602.622 81.8114 602.654 81.1675 602.914 80.6018C603.175 80.0362 603.644 79.5924 604.224 79.3628C604.805 79.1332 605.451 79.1353 606.03 79.3689L612.962 82.5572C613.547 82.8261 614 83.3153 614.222 83.9172C614.445 84.5191 614.418 85.1844 614.149 85.7667C613.879 86.3491 613.388 86.8008 612.784 87.0224C612.18 87.2441 611.512 87.2176 610.928 86.9487L604.008 83.7604Z" fill="black"/>
<path d="M595.373 112.721L596.013 113.407L595.453 114.16C577.329 138.585 566.888 149.644 562.458 148.161C559.759 147.257 557.053 144.54 554.347 140.594C553.395 139.208 552.502 137.748 551.69 136.294C551.149 135.326 550.691 134.444 550.453 133.947C550.206 133.462 550.028 132.944 549.925 132.409C549.918 132.377 549.918 132.377 549.913 132.348C549.871 132.13 549.856 132.061 549.824 131.942C549.275 129.878 548.998 127.752 549 125.617C549 112.017 560.058 101 573.7 101C577.914 100.993 582.059 102.065 585.738 104.114L585.833 104.173C588.822 106.247 592.002 109.096 595.373 112.721ZM584.583 106.064C581.253 104.218 577.505 103.253 573.695 103.259C561.311 103.254 551.262 113.264 551.262 125.612C551.259 127.554 551.511 129.488 552.011 131.365C552.059 131.55 552.081 131.654 552.133 131.921L552.144 131.975C552.212 132.325 552.332 132.663 552.499 132.978C552.716 133.432 553.152 134.272 553.67 135.199C554.451 136.596 555.309 137.998 556.218 139.323C558.663 142.887 561.083 145.323 563.18 146.023C565.97 146.957 576.473 135.875 593.071 113.577C590.058 110.405 587.229 107.901 584.583 106.064Z" fill="black"/>
<path d="M584.583 106.064C581.253 104.218 577.505 103.253 573.695 103.259C561.311 103.254 551.262 113.264 551.262 125.612C551.26 127.554 551.511 129.488 552.011 131.365C552.059 131.55 552.082 131.654 552.133 131.921L552.144 131.975C552.212 132.325 552.332 132.663 552.499 132.978C552.716 133.432 553.152 134.272 553.67 135.199C554.451 136.596 555.309 137.998 556.218 139.323C558.663 142.887 561.084 145.323 563.18 146.023C565.97 146.957 576.473 135.876 593.071 113.577C590.058 110.405 587.229 107.901 584.583 106.064Z" fill="#EC1C79"/>
<path d="M578.229 154.746C564.583 154.746 553.528 143.725 553.528 130.13C553.528 116.534 564.59 105.512 578.229 105.512C591.867 105.512 602.929 116.534 602.929 130.13C602.929 143.725 591.87 154.746 578.229 154.746ZM578.229 152.488C590.619 152.488 600.662 142.478 600.662 130.13C600.662 117.781 590.613 107.77 578.228 107.77C565.843 107.77 555.792 117.786 555.792 130.13C555.792 142.474 565.838 152.488 578.229 152.488Z" fill="black"/>
<path d="M578.229 152.488C590.619 152.488 600.662 142.478 600.662 130.13C600.662 117.781 590.613 107.77 578.228 107.77C565.843 107.77 555.792 117.786 555.792 130.13C555.792 142.474 565.839 152.488 578.229 152.488Z" fill="white"/>
<path d="M550.467 123.131C550.175 122.976 549.954 122.713 549.853 122.399C549.752 122.084 549.779 121.743 549.927 121.447C550.075 121.152 550.333 120.926 550.646 120.818C550.959 120.71 551.302 120.728 551.602 120.868L555.229 122.674C555.514 122.833 555.726 123.095 555.823 123.406C555.919 123.718 555.891 124.054 555.744 124.345C555.598 124.636 555.345 124.86 555.038 124.97C554.73 125.079 554.392 125.067 554.093 124.935L550.467 123.131Z" fill="black"/>
<path d="M550.051 129.122C549.76 128.973 549.539 128.718 549.432 128.41C549.326 128.102 549.342 127.766 549.478 127.47C549.615 127.174 549.86 126.942 550.164 126.822C550.467 126.701 550.806 126.703 551.108 126.825L554.735 128.493C555.04 128.633 555.277 128.889 555.394 129.204C555.51 129.519 555.496 129.867 555.355 130.171C555.214 130.476 554.957 130.712 554.641 130.828C554.325 130.944 553.976 130.93 553.67 130.79L550.051 129.122Z" fill="black"/>
<path d="M586.201 125.64C585.931 125.494 585.63 125.418 585.324 125.418C585.018 125.418 584.717 125.494 584.447 125.64L580.355 128.095L577.578 129.653L573.558 132.099C573.288 132.246 572.987 132.323 572.681 132.323C572.375 132.323 572.074 132.246 571.804 132.099L568.659 130.165C568.392 130.005 568.171 129.777 568.017 129.504C567.863 129.231 567.783 128.922 567.782 128.608V124.898C567.785 124.584 567.866 124.275 568.02 124.003C568.173 123.73 568.393 123.502 568.659 123.34L571.801 121.48C572.07 121.334 572.372 121.257 572.678 121.257C572.984 121.257 573.285 121.334 573.555 121.48L576.697 123.408C576.964 123.568 577.185 123.795 577.339 124.068C577.493 124.342 577.574 124.651 577.575 124.965V127.419L580.352 125.787V123.266C580.349 122.952 580.267 122.643 580.114 122.371C579.96 122.098 579.74 121.87 579.474 121.709L573.628 118.223C573.358 118.077 573.057 118 572.751 118C572.445 118 572.144 118.077 571.874 118.223L565.877 121.774C565.608 121.914 565.384 122.126 565.229 122.389C565.074 122.651 564.995 122.952 565 123.257V130.231C565.002 130.545 565.084 130.853 565.237 131.126C565.391 131.399 565.611 131.627 565.877 131.788L571.796 135.273C572.065 135.42 572.367 135.497 572.673 135.497C572.979 135.497 573.28 135.42 573.55 135.273L577.57 132.906L580.347 131.274L584.365 128.907C584.635 128.761 584.937 128.685 585.242 128.685C585.548 128.685 585.85 128.761 586.12 128.907L589.262 130.767C589.531 130.925 589.754 131.152 589.91 131.425C590.066 131.698 590.148 132.007 590.15 132.323V136.031C590.148 136.345 590.066 136.653 589.913 136.926C589.759 137.199 589.539 137.427 589.273 137.588L586.205 139.448C585.935 139.594 585.633 139.67 585.327 139.67C585.022 139.67 584.72 139.594 584.45 139.448L581.308 137.588C581.041 137.429 580.819 137.201 580.666 136.928C580.512 136.655 580.43 136.346 580.43 136.031V133.664L577.655 135.282V137.734C577.657 138.048 577.738 138.356 577.892 138.629C578.045 138.902 578.266 139.13 578.531 139.291L584.45 142.778C584.72 142.924 585.022 143 585.327 143C585.633 143 585.935 142.924 586.205 142.778L592.124 139.291C592.391 139.132 592.612 138.904 592.766 138.631C592.919 138.358 593 138.048 593 137.734V130.684C592.998 130.37 592.916 130.062 592.763 129.789C592.609 129.516 592.389 129.288 592.124 129.127L586.201 125.64Z" fill="#8247E5"/>
<path d="M563.373 52.7211L564.013 53.4074L563.453 54.1602C545.329 78.5849 534.888 89.6439 530.458 88.1606C527.759 87.2571 525.053 84.5403 522.347 80.5942C521.395 79.2079 520.502 77.7478 519.69 76.294C519.149 75.3262 518.691 74.4438 518.453 73.9472C518.206 73.4616 518.028 72.9439 517.925 72.4091C517.918 72.3775 517.918 72.3775 517.913 72.348C517.871 72.1297 517.856 72.0612 517.824 71.9421C517.275 69.8781 516.998 67.7518 517 65.6166C517 52.0169 528.058 41 541.7 41C545.914 40.9929 550.059 42.0653 553.738 44.1143L553.833 44.1733C556.822 46.2467 560.002 49.0959 563.373 52.7211ZM552.583 46.0636C549.253 44.2184 545.505 43.253 541.695 43.2593C529.311 43.254 519.262 53.264 519.262 65.6124C519.259 67.5543 519.511 69.4883 520.011 71.3654C520.059 71.5499 520.081 71.6543 520.133 71.921L520.144 71.9748C520.212 72.3249 520.332 72.6631 520.499 72.9784C520.716 73.4317 521.152 74.2719 521.67 75.1986C522.451 76.5955 523.309 77.9976 524.218 79.3228C526.663 82.8872 529.083 85.3225 531.18 86.0225C533.97 86.9566 544.473 75.8755 561.071 53.5772C558.058 50.4053 555.229 47.9008 552.583 46.0636Z" fill="black"/>
<path d="M552.583 46.0636C549.253 44.2184 545.505 43.253 541.695 43.2593C529.311 43.2541 519.262 53.2641 519.262 65.6124C519.26 67.5544 519.511 69.4884 520.011 71.3655C520.059 71.5499 520.082 71.6543 520.133 71.921L520.144 71.9748C520.212 72.3249 520.332 72.6631 520.499 72.9784C520.716 73.4318 521.152 74.272 521.67 75.1987C522.451 76.5956 523.309 77.9977 524.218 79.3229C526.663 82.8873 529.084 85.3226 531.18 86.0226C533.97 86.9566 544.473 75.8755 561.071 53.5772C558.058 50.4053 555.229 47.9008 552.583 46.0636Z" fill="#EC1C79"/>
<path d="M546.229 94.7464C532.583 94.7464 521.528 83.7254 521.528 70.1298C521.528 56.5343 532.59 45.5122 546.229 45.5122C559.867 45.5122 570.929 56.5343 570.929 70.1298C570.929 83.7254 559.87 94.7464 546.229 94.7464ZM546.229 92.4882C558.619 92.4882 568.662 82.4782 568.662 70.1298C568.662 57.7815 558.613 47.7704 546.228 47.7704C533.843 47.7704 523.792 57.7857 523.792 70.1298C523.792 82.474 533.838 92.4882 546.229 92.4882Z" fill="black"/>
<path d="M546.229 92.4882C558.619 92.4882 568.662 82.4782 568.662 70.1298C568.662 57.7815 558.613 47.7704 546.228 47.7704C533.843 47.7704 523.792 57.7857 523.792 70.1298C523.792 82.474 533.839 92.4882 546.229 92.4882Z" fill="white"/>
<path d="M518.467 63.1307C518.175 62.9759 517.954 62.7132 517.853 62.3987C517.752 62.0842 517.779 61.7428 517.927 61.4474C518.075 61.152 518.333 60.9261 518.646 60.8179C518.959 60.7097 519.302 60.7278 519.602 60.8683L523.229 62.6742C523.514 62.833 523.726 63.0953 523.823 63.4064C523.919 63.7176 523.891 64.0537 523.744 64.3448C523.598 64.6359 523.345 64.8597 523.038 64.9695C522.73 65.0794 522.392 65.0668 522.093 64.9345L518.467 63.1307Z" fill="black"/>
<path d="M518.051 69.1219C517.76 68.9728 517.539 68.7179 517.432 68.4102C517.326 68.1024 517.342 67.7656 517.478 67.4697C517.615 67.1738 517.86 66.9417 518.164 66.8216C518.467 66.7015 518.806 66.7026 519.108 66.8247L522.735 68.4926C523.04 68.6332 523.277 68.8891 523.394 69.204C523.51 69.5188 523.496 69.8668 523.355 70.1714C523.214 70.4761 522.957 70.7124 522.641 70.8283C522.325 70.9443 521.976 70.9304 521.67 70.7898L518.051 69.1219Z" fill="black"/>
<path d="M539.978 68.0309L546 62.0057L552.023 68.0309L555.527 64.5252L546.007 55L536.488 64.5252L539.978 68.0309ZM530.5 70.4981L534.002 66.9925L537.505 70.4981L534.002 74.0075L530.5 70.4981ZM539.978 72.9728L546 78.998L552.023 72.971L555.529 76.4748L546.009 86L536.49 76.4748L539.995 72.9728H539.978ZM554.495 70.5L557.998 66.9943L561.5 70.5L557.998 74.0075L554.495 70.5Z" fill="#F3BA2F"/>
<path d="M549.553 70.4962L546.006 66.9476L543.37 69.5679L543.07 69.8686L542.447 70.4925L545.993 74.0411L549.539 70.4831" fill="#F3BA2F"/>
<defs>
<linearGradient id="paint0_linear" x1="901" y1="-0.000159981" x2="-5.2636" y2="171.124" gradientUnits="userSpaceOnUse">
<stop stop-color="#FFA9D0"/>
<stop offset="1" stop-color="#EB1C79"/>
</linearGradient>
</defs>
</svg>
