<svg width="901" height="199" viewBox="0 0 901 199" fill="none" xmlns="http://www.w3.org/2000/svg">
<rect width="901" height="199" rx="10" fill="url(#paint0_linear)"/>
<mask id="mask0" mask-type="alpha" maskUnits="userSpaceOnUse" x="0" y="0" width="901" height="199">
<rect width="901" height="199" rx="10" fill="url(#paint1_linear)"/>
</mask>
<g mask="url(#mask0)">
<path d="M504.322 147.832C504.228 147.865 504.235 148.001 504.332 148.023L621.347 175.51C621.366 175.515 621.385 175.514 621.404 175.507L761.459 126.104C761.553 126.071 761.546 125.935 761.449 125.912L644.434 98.4252C644.415 98.4208 644.396 98.4218 644.378 98.4282L504.322 147.832Z" fill="#0A0A1E" stroke="black" stroke-width="3"/>
<path d="M504.322 147.832C504.228 147.865 504.235 148.001 504.332 148.023L621.348 175.511C621.366 175.515 621.385 175.514 621.403 175.508L644.338 167.626C644.378 167.612 644.405 167.574 644.405 167.532V98.5598C644.405 98.4908 644.337 98.4425 644.272 98.4655L504.322 147.832Z" fill="#C4C4C4" stroke="black" stroke-width="3"/>
<path d="M504 148.071C504 148.007 504.06 147.959 504.123 147.974L621.299 175.499C621.344 175.509 621.376 175.55 621.376 175.596V262.178C621.376 262.242 621.316 262.29 621.253 262.275L504.077 234.75C504.032 234.74 504 234.699 504 234.653L504 148.071Z" fill="#EC1C79" stroke="black" stroke-width="3"/>
<path d="M761.41 125.876C761.41 125.807 761.341 125.759 761.276 125.782L621.442 175.493C621.403 175.508 621.376 175.545 621.376 175.588V262.668C621.376 262.737 621.444 262.785 621.509 262.762L761.343 213.051C761.383 213.037 761.41 212.999 761.41 212.957V125.876Z" fill="white" stroke="black" stroke-width="3"/>
</g>
<path d="M100.32 37.61H93.12V35H110.49V37.61H103.29V56H100.32V37.61ZM127.777 40.1V56H125.047V53.6C124.467 54.42 123.697 55.06 122.737 55.52C121.797 55.96 120.767 56.18 119.647 56.18C117.527 56.18 115.857 55.6 114.637 54.44C113.417 53.26 112.807 51.53 112.807 49.25V40.1H115.687V48.92C115.687 50.46 116.057 51.63 116.797 52.43C117.537 53.21 118.597 53.6 119.977 53.6C121.497 53.6 122.697 53.14 123.577 52.22C124.457 51.3 124.897 50 124.897 48.32V40.1H127.777ZM136.019 42.77C136.519 41.85 137.259 41.15 138.239 40.67C139.219 40.19 140.409 39.95 141.809 39.95V42.74C141.649 42.72 141.429 42.71 141.149 42.71C139.589 42.71 138.359 43.18 137.459 44.12C136.579 45.04 136.139 46.36 136.139 48.08V56H133.259V40.1H136.019V42.77ZM153.789 39.95C155.329 39.95 156.709 40.29 157.929 40.97C159.149 41.65 160.099 42.6 160.779 43.82C161.479 45.04 161.829 46.45 161.829 48.05C161.829 49.65 161.479 51.07 160.779 52.31C160.099 53.53 159.149 54.48 157.929 55.16C156.709 55.84 155.329 56.18 153.789 56.18C152.609 56.18 151.529 55.95 150.549 55.49C149.569 55.03 148.759 54.36 148.119 53.48V56H145.359V33.74H148.239V42.5C148.879 41.66 149.679 41.03 150.639 40.61C151.599 40.17 152.649 39.95 153.789 39.95ZM153.549 53.66C154.569 53.66 155.479 53.43 156.279 52.97C157.099 52.49 157.739 51.83 158.199 50.99C158.679 50.13 158.919 49.15 158.919 48.05C158.919 46.95 158.679 45.98 158.199 45.14C157.739 44.28 157.099 43.62 156.279 43.16C155.479 42.7 154.569 42.47 153.549 42.47C152.549 42.47 151.639 42.7 150.819 43.16C149.999 43.62 149.359 44.28 148.899 45.14C148.439 45.98 148.209 46.95 148.209 48.05C148.209 49.15 148.439 50.13 148.899 50.99C149.359 51.83 149.999 52.49 150.819 52.97C151.639 53.43 152.549 53.66 153.549 53.66ZM172.618 56.18C171.038 56.18 169.618 55.83 168.358 55.13C167.098 54.43 166.108 53.47 165.388 52.25C164.688 51.01 164.338 49.61 164.338 48.05C164.338 46.49 164.688 45.1 165.388 43.88C166.108 42.64 167.098 41.68 168.358 41C169.618 40.3 171.038 39.95 172.618 39.95C174.198 39.95 175.608 40.3 176.848 41C178.108 41.68 179.088 42.64 179.788 43.88C180.508 45.1 180.868 46.49 180.868 48.05C180.868 49.61 180.508 51.01 179.788 52.25C179.088 53.47 178.108 54.43 176.848 55.13C175.608 55.83 174.198 56.18 172.618 56.18ZM172.618 53.66C173.638 53.66 174.548 53.43 175.348 52.97C176.168 52.49 176.808 51.83 177.268 50.99C177.728 50.13 177.958 49.15 177.958 48.05C177.958 46.95 177.728 45.98 177.268 45.14C176.808 44.28 176.168 43.62 175.348 43.16C174.548 42.7 173.638 42.47 172.618 42.47C171.598 42.47 170.678 42.7 169.858 43.16C169.058 43.62 168.418 44.28 167.938 45.14C167.478 45.98 167.248 46.95 167.248 48.05C167.248 49.15 167.478 50.13 167.938 50.99C168.418 51.83 169.058 52.49 169.858 52.97C170.678 53.43 171.598 53.66 172.618 53.66ZM208.568 53.39V56H193.328V35H208.148V37.61H196.328V44.06H206.858V46.61H196.328V53.39H208.568ZM217.595 37.61H210.395V35H227.765V37.61H220.565V56H217.595V37.61ZM249.093 35V56H246.093V46.64H234.033V56H231.033V35H234.033V44.03H246.093V35H249.093ZM267.575 56.18C266.275 56.18 265.025 56.01 263.825 55.67C262.625 55.31 261.685 54.86 261.005 54.32L262.205 52.04C262.905 52.54 263.755 52.94 264.755 53.24C265.755 53.54 266.765 53.69 267.785 53.69C270.305 53.69 271.565 52.97 271.565 51.53C271.565 51.05 271.395 50.67 271.055 50.39C270.715 50.11 270.285 49.91 269.765 49.79C269.265 49.65 268.545 49.5 267.605 49.34C266.325 49.14 265.275 48.91 264.455 48.65C263.655 48.39 262.965 47.95 262.385 47.33C261.805 46.71 261.515 45.84 261.515 44.72C261.515 43.28 262.115 42.13 263.315 41.27C264.515 40.39 266.125 39.95 268.145 39.95C269.205 39.95 270.265 40.08 271.325 40.34C272.385 40.6 273.255 40.95 273.935 41.39L272.705 43.67C271.405 42.83 269.875 42.41 268.115 42.41C266.895 42.41 265.965 42.61 265.325 43.01C264.685 43.41 264.365 43.94 264.365 44.6C264.365 45.12 264.545 45.53 264.905 45.83C265.265 46.13 265.705 46.35 266.225 46.49C266.765 46.63 267.515 46.79 268.475 46.97C269.755 47.19 270.785 47.43 271.565 47.69C272.365 47.93 273.045 48.35 273.605 48.95C274.165 49.55 274.445 50.39 274.445 51.47C274.445 52.91 273.825 54.06 272.585 54.92C271.365 55.76 269.695 56.18 267.575 56.18ZM286.984 55.07C286.564 55.43 286.044 55.71 285.424 55.91C284.804 56.09 284.164 56.18 283.504 56.18C281.904 56.18 280.664 55.75 279.784 54.89C278.904 54.03 278.464 52.8 278.464 51.2V42.47H275.764V40.1H278.464V36.62H281.344V40.1H285.904V42.47H281.344V51.08C281.344 51.94 281.554 52.6 281.974 53.06C282.414 53.52 283.034 53.75 283.834 53.75C284.714 53.75 285.464 53.5 286.084 53L286.984 55.07ZM296.256 39.95C298.456 39.95 300.136 40.49 301.296 41.57C302.476 42.65 303.066 44.26 303.066 46.4V56H300.336V53.9C299.856 54.64 299.166 55.21 298.266 55.61C297.386 55.99 296.336 56.18 295.116 56.18C293.336 56.18 291.906 55.75 290.826 54.89C289.766 54.03 289.236 52.9 289.236 51.5C289.236 50.1 289.746 48.98 290.766 48.14C291.786 47.28 293.406 46.85 295.626 46.85H300.186V46.28C300.186 45.04 299.826 44.09 299.106 43.43C298.386 42.77 297.326 42.44 295.926 42.44C294.986 42.44 294.066 42.6 293.166 42.92C292.266 43.22 291.506 43.63 290.886 44.15L289.686 41.99C290.506 41.33 291.486 40.83 292.626 40.49C293.766 40.13 294.976 39.95 296.256 39.95ZM295.596 53.96C296.696 53.96 297.646 53.72 298.446 53.24C299.246 52.74 299.826 52.04 300.186 51.14V48.92H295.746C293.306 48.92 292.086 49.74 292.086 51.38C292.086 52.18 292.396 52.81 293.016 53.27C293.636 53.73 294.496 53.96 295.596 53.96ZM314.576 48.59L311.276 51.65V56H308.396V33.74H311.276V48.02L319.946 40.1H323.426L316.736 46.67L324.086 56H320.546L314.576 48.59ZM326.677 40.1H329.557V56H326.677V40.1ZM328.117 37.04C327.557 37.04 327.087 36.86 326.707 36.5C326.347 36.14 326.167 35.7 326.167 35.18C326.167 34.66 326.347 34.22 326.707 33.86C327.087 33.48 327.557 33.29 328.117 33.29C328.677 33.29 329.137 33.47 329.497 33.83C329.877 34.17 330.067 34.6 330.067 35.12C330.067 35.66 329.877 36.12 329.497 36.5C329.137 36.86 328.677 37.04 328.117 37.04ZM343.546 39.95C345.566 39.95 347.166 40.54 348.346 41.72C349.546 42.88 350.146 44.59 350.146 46.85V56H347.266V47.18C347.266 45.64 346.896 44.48 346.156 43.7C345.416 42.92 344.356 42.53 342.976 42.53C341.416 42.53 340.186 42.99 339.286 43.91C338.386 44.81 337.936 46.11 337.936 47.81V56H335.056V40.1H337.816V42.5C338.396 41.68 339.176 41.05 340.156 40.61C341.156 40.17 342.286 39.95 343.546 39.95ZM370.774 40.1V53.84C370.774 56.62 370.084 58.67 368.704 59.99C367.324 61.33 365.264 62 362.524 62C361.024 62 359.594 61.79 358.234 61.37C356.874 60.97 355.774 60.39 354.934 59.63L356.314 57.41C357.054 58.05 357.964 58.55 359.044 58.91C360.144 59.29 361.274 59.48 362.434 59.48C364.294 59.48 365.664 59.04 366.544 58.16C367.444 57.28 367.894 55.94 367.894 54.14V52.88C367.214 53.7 366.374 54.32 365.374 54.74C364.394 55.14 363.324 55.34 362.164 55.34C360.644 55.34 359.264 55.02 358.024 54.38C356.804 53.72 355.844 52.81 355.144 51.65C354.444 50.47 354.094 49.13 354.094 47.63C354.094 46.13 354.444 44.8 355.144 43.64C355.844 42.46 356.804 41.55 358.024 40.91C359.264 40.27 360.644 39.95 362.164 39.95C363.364 39.95 364.474 40.17 365.494 40.61C366.534 41.05 367.384 41.7 368.044 42.56V40.1H370.774ZM362.494 52.82C363.534 52.82 364.464 52.6 365.284 52.16C366.124 51.72 366.774 51.11 367.234 50.33C367.714 49.53 367.954 48.63 367.954 47.63C367.954 46.09 367.444 44.85 366.424 43.91C365.404 42.95 364.094 42.47 362.494 42.47C360.874 42.47 359.554 42.95 358.534 43.91C357.514 44.85 357.004 46.09 357.004 47.63C357.004 48.63 357.234 49.53 357.694 50.33C358.174 51.11 358.824 51.72 359.644 52.16C360.484 52.6 361.434 52.82 362.494 52.82ZM392.764 39.95C394.304 39.95 395.684 40.29 396.904 40.97C398.124 41.65 399.074 42.6 399.754 43.82C400.454 45.04 400.804 46.45 400.804 48.05C400.804 49.65 400.454 51.07 399.754 52.31C399.074 53.53 398.124 54.48 396.904 55.16C395.684 55.84 394.304 56.18 392.764 56.18C391.624 56.18 390.574 55.96 389.614 55.52C388.674 55.08 387.874 54.44 387.214 53.6V61.82H384.334V40.1H387.094V42.62C387.734 41.74 388.544 41.08 389.524 40.64C390.504 40.18 391.584 39.95 392.764 39.95ZM392.524 53.66C393.544 53.66 394.454 53.43 395.254 52.97C396.074 52.49 396.714 51.83 397.174 50.99C397.654 50.13 397.894 49.15 397.894 48.05C397.894 46.95 397.654 45.98 397.174 45.14C396.714 44.28 396.074 43.62 395.254 43.16C394.454 42.7 393.544 42.47 392.524 42.47C391.524 42.47 390.614 42.71 389.794 43.19C388.994 43.65 388.354 44.3 387.874 45.14C387.414 45.98 387.184 46.95 387.184 48.05C387.184 49.15 387.414 50.13 387.874 50.99C388.334 51.83 388.974 52.49 389.794 52.97C390.614 53.43 391.524 53.66 392.524 53.66ZM411.593 56.18C410.013 56.18 408.593 55.83 407.333 55.13C406.073 54.43 405.083 53.47 404.363 52.25C403.663 51.01 403.313 49.61 403.313 48.05C403.313 46.49 403.663 45.1 404.363 43.88C405.083 42.64 406.073 41.68 407.333 41C408.593 40.3 410.013 39.95 411.593 39.95C413.173 39.95 414.583 40.3 415.823 41C417.083 41.68 418.063 42.64 418.763 43.88C419.483 45.1 419.843 46.49 419.843 48.05C419.843 49.61 419.483 51.01 418.763 52.25C418.063 53.47 417.083 54.43 415.823 55.13C414.583 55.83 413.173 56.18 411.593 56.18ZM411.593 53.66C412.613 53.66 413.523 53.43 414.323 52.97C415.143 52.49 415.783 51.83 416.243 50.99C416.703 50.13 416.933 49.15 416.933 48.05C416.933 46.95 416.703 45.98 416.243 45.14C415.783 44.28 415.143 43.62 414.323 43.16C413.523 42.7 412.613 42.47 411.593 42.47C410.573 42.47 409.653 42.7 408.833 43.16C408.033 43.62 407.393 44.28 406.913 45.14C406.453 45.98 406.223 46.95 406.223 48.05C406.223 49.15 406.453 50.13 406.913 50.99C407.393 51.83 408.033 52.49 408.833 52.97C409.653 53.43 410.573 53.66 411.593 53.66ZM430.636 56.18C429.056 56.18 427.636 55.83 426.376 55.13C425.116 54.43 424.126 53.47 423.406 52.25C422.706 51.01 422.356 49.61 422.356 48.05C422.356 46.49 422.706 45.1 423.406 43.88C424.126 42.64 425.116 41.68 426.376 41C427.636 40.3 429.056 39.95 430.636 39.95C432.216 39.95 433.626 40.3 434.866 41C436.126 41.68 437.106 42.64 437.806 43.88C438.526 45.1 438.886 46.49 438.886 48.05C438.886 49.61 438.526 51.01 437.806 52.25C437.106 53.47 436.126 54.43 434.866 55.13C433.626 55.83 432.216 56.18 430.636 56.18ZM430.636 53.66C431.656 53.66 432.566 53.43 433.366 52.97C434.186 52.49 434.826 51.83 435.286 50.99C435.746 50.13 435.976 49.15 435.976 48.05C435.976 46.95 435.746 45.98 435.286 45.14C434.826 44.28 434.186 43.62 433.366 43.16C432.566 42.7 431.656 42.47 430.636 42.47C429.616 42.47 428.696 42.7 427.876 43.16C427.076 43.62 426.436 44.28 425.956 45.14C425.496 45.98 425.266 46.95 425.266 48.05C425.266 49.15 425.496 50.13 425.956 50.99C426.436 51.83 427.076 52.49 427.876 52.97C428.696 53.43 429.616 53.66 430.636 53.66ZM442.869 33.74H445.749V56H442.869V33.74ZM455.808 56.18C454.508 56.18 453.258 56.01 452.058 55.67C450.858 55.31 449.918 54.86 449.238 54.32L450.438 52.04C451.138 52.54 451.988 52.94 452.988 53.24C453.988 53.54 454.998 53.69 456.018 53.69C458.538 53.69 459.798 52.97 459.798 51.53C459.798 51.05 459.628 50.67 459.288 50.39C458.948 50.11 458.518 49.91 457.998 49.79C457.498 49.65 456.778 49.5 455.838 49.34C454.558 49.14 453.508 48.91 452.688 48.65C451.888 48.39 451.198 47.95 450.618 47.33C450.038 46.71 449.748 45.84 449.748 44.72C449.748 43.28 450.348 42.13 451.548 41.27C452.748 40.39 454.358 39.95 456.378 39.95C457.438 39.95 458.498 40.08 459.558 40.34C460.618 40.6 461.488 40.95 462.168 41.39L460.938 43.67C459.638 42.83 458.108 42.41 456.348 42.41C455.128 42.41 454.198 42.61 453.558 43.01C452.918 43.41 452.598 43.94 452.598 44.6C452.598 45.12 452.778 45.53 453.138 45.83C453.498 46.13 453.938 46.35 454.458 46.49C454.998 46.63 455.748 46.79 456.708 46.97C457.988 47.19 459.018 47.43 459.798 47.69C460.598 47.93 461.278 48.35 461.838 48.95C462.398 49.55 462.678 50.39 462.678 51.47C462.678 52.91 462.058 54.06 460.818 54.92C459.598 55.76 457.928 56.18 455.808 56.18Z" fill="white"/>
<path d="M106.95 78.5V80.2L99.875 96H97.225L104.15 80.675H96.15V83.8H93.75V78.5H106.95ZM109.497 96.15C109.031 96.15 108.631 95.9917 108.297 95.675C107.964 95.3417 107.797 94.925 107.797 94.425C107.797 93.9417 107.964 93.5417 108.297 93.225C108.631 92.8917 109.031 92.725 109.497 92.725C109.964 92.725 110.356 92.8833 110.672 93.2C110.989 93.5167 111.147 93.925 111.147 94.425C111.147 94.925 110.981 95.3417 110.647 95.675C110.331 95.9917 109.947 96.15 109.497 96.15ZM128.517 91.7H125.192V96H122.767V91.7H113.042V89.95L121.992 78.5H124.692L116.117 89.55H122.842V85.75H125.192V89.55H128.517V91.7ZM145.24 91.7H141.915V96H139.49V91.7H129.765V89.95L138.715 78.5H141.415L132.84 89.55H139.565V85.75H141.915V89.55H145.24V91.7ZM149.782 87.9C148.566 87.9 147.582 87.4583 146.832 86.575C146.082 85.6917 145.707 84.5417 145.707 83.125C145.707 81.7083 146.082 80.5583 146.832 79.675C147.582 78.7917 148.566 78.35 149.782 78.35C150.999 78.35 151.974 78.7917 152.707 79.675C153.457 80.5417 153.832 81.6917 153.832 83.125C153.832 84.5583 153.457 85.7167 152.707 86.6C151.974 87.4667 150.999 87.9 149.782 87.9ZM160.332 78.5H162.257L150.307 96H148.382L160.332 78.5ZM149.782 86.475C150.549 86.475 151.149 86.1833 151.582 85.6C152.016 85 152.232 84.175 152.232 83.125C152.232 82.075 152.016 81.2583 151.582 80.675C151.149 80.075 150.549 79.775 149.782 79.775C149.032 79.775 148.432 80.075 147.982 80.675C147.549 81.275 147.332 82.0917 147.332 83.125C147.332 84.1583 147.549 84.975 147.982 85.575C148.432 86.175 149.032 86.475 149.782 86.475ZM160.857 96.15C159.641 96.15 158.657 95.7167 157.907 94.85C157.174 93.9667 156.807 92.8083 156.807 91.375C156.807 89.9417 157.174 88.7917 157.907 87.925C158.657 87.0417 159.641 86.6 160.857 86.6C162.074 86.6 163.057 87.0417 163.807 87.925C164.557 88.8083 164.932 89.9583 164.932 91.375C164.932 92.7917 164.557 93.9417 163.807 94.825C163.057 95.7083 162.074 96.15 160.857 96.15ZM160.857 94.725C161.607 94.725 162.199 94.425 162.632 93.825C163.082 93.225 163.307 92.4083 163.307 91.375C163.307 90.3417 163.082 89.525 162.632 88.925C162.199 88.325 161.607 88.025 160.857 88.025C160.091 88.025 159.491 88.325 159.057 88.925C158.624 89.5083 158.407 90.325 158.407 91.375C158.407 92.425 158.624 93.25 159.057 93.85C159.491 94.4333 160.091 94.725 160.857 94.725ZM178.937 93.55H173.729L172.651 96H171.209L175.647 86.2H177.033L181.485 96H180.015L178.937 93.55ZM178.447 92.43L176.333 87.628L174.219 92.43H178.447ZM186.769 86.2C188.038 86.2 189.037 86.5033 189.765 87.11C190.493 87.7167 190.857 88.552 190.857 89.616C190.857 90.68 190.493 91.5153 189.765 92.122C189.037 92.7287 188.038 93.032 186.769 93.032H184.347V96H182.947V86.2H186.769ZM186.727 91.814C187.613 91.814 188.29 91.6273 188.757 91.254C189.223 90.8713 189.457 90.3253 189.457 89.616C189.457 88.9067 189.223 88.3653 188.757 87.992C188.29 87.6093 187.613 87.418 186.727 87.418H184.347V91.814H186.727ZM199.465 96L197.351 92.99C197.09 93.0087 196.885 93.018 196.735 93.018H194.313V96H192.913V86.2H196.735C198.005 86.2 199.003 86.5033 199.731 87.11C200.459 87.7167 200.823 88.552 200.823 89.616C200.823 90.372 200.637 91.016 200.263 91.548C199.89 92.08 199.358 92.4673 198.667 92.71L200.991 96H199.465ZM196.693 91.828C197.58 91.828 198.257 91.6367 198.723 91.254C199.19 90.8713 199.423 90.3253 199.423 89.616C199.423 88.9067 199.19 88.3653 198.723 87.992C198.257 87.6093 197.58 87.418 196.693 87.418H194.313V91.828H196.693ZM209.827 96.084C209.09 96.084 208.427 95.9207 207.839 95.594C207.251 95.2673 206.789 94.8193 206.453 94.25C206.126 93.6713 205.963 93.018 205.963 92.29C205.963 91.562 206.126 90.9133 206.453 90.344C206.789 89.7653 207.251 89.3173 207.839 89C208.427 88.6733 209.09 88.51 209.827 88.51C210.564 88.51 211.222 88.6733 211.801 89C212.389 89.3173 212.846 89.7653 213.173 90.344C213.509 90.9133 213.677 91.562 213.677 92.29C213.677 93.018 213.509 93.6713 213.173 94.25C212.846 94.8193 212.389 95.2673 211.801 95.594C211.222 95.9207 210.564 96.084 209.827 96.084ZM209.827 94.908C210.303 94.908 210.728 94.8007 211.101 94.586C211.484 94.362 211.782 94.054 211.997 93.662C212.212 93.2607 212.319 92.8033 212.319 92.29C212.319 91.7767 212.212 91.324 211.997 90.932C211.782 90.5307 211.484 90.2227 211.101 90.008C210.728 89.7933 210.303 89.686 209.827 89.686C209.351 89.686 208.922 89.7933 208.539 90.008C208.166 90.2227 207.867 90.5307 207.643 90.932C207.428 91.324 207.321 91.7767 207.321 92.29C207.321 92.8033 207.428 93.2607 207.643 93.662C207.867 94.054 208.166 94.362 208.539 94.586C208.922 94.8007 209.351 94.908 209.827 94.908ZM219.498 88.51C220.44 88.51 221.187 88.7853 221.738 89.336C222.298 89.8773 222.578 90.6753 222.578 91.73V96H221.234V91.884C221.234 91.1653 221.061 90.624 220.716 90.26C220.37 89.896 219.876 89.714 219.232 89.714C218.504 89.714 217.93 89.9287 217.51 90.358C217.09 90.778 216.88 91.3847 216.88 92.178V96H215.536V88.58H216.824V89.7C217.094 89.3173 217.458 89.0233 217.916 88.818C218.382 88.6127 218.91 88.51 219.498 88.51ZM232.843 86.2C234.112 86.2 235.111 86.5033 235.839 87.11C236.567 87.7167 236.931 88.552 236.931 89.616C236.931 90.68 236.567 91.5153 235.839 92.122C235.111 92.7287 234.112 93.032 232.843 93.032H230.421V96H229.021V86.2H232.843ZM232.801 91.814C233.687 91.814 234.364 91.6273 234.831 91.254C235.297 90.8713 235.531 90.3253 235.531 89.616C235.531 88.9067 235.297 88.3653 234.831 87.992C234.364 87.6093 233.687 87.418 232.801 87.418H230.421V91.814H232.801ZM241.942 96.084C241.205 96.084 240.542 95.9207 239.954 95.594C239.366 95.2673 238.904 94.8193 238.568 94.25C238.242 93.6713 238.078 93.018 238.078 92.29C238.078 91.562 238.242 90.9133 238.568 90.344C238.904 89.7653 239.366 89.3173 239.954 89C240.542 88.6733 241.205 88.51 241.942 88.51C242.68 88.51 243.338 88.6733 243.916 89C244.504 89.3173 244.962 89.7653 245.288 90.344C245.624 90.9133 245.792 91.562 245.792 92.29C245.792 93.018 245.624 93.6713 245.288 94.25C244.962 94.8193 244.504 95.2673 243.916 95.594C243.338 95.9207 242.68 96.084 241.942 96.084ZM241.942 94.908C242.418 94.908 242.843 94.8007 243.216 94.586C243.599 94.362 243.898 94.054 244.112 93.662C244.327 93.2607 244.434 92.8033 244.434 92.29C244.434 91.7767 244.327 91.324 244.112 90.932C243.898 90.5307 243.599 90.2227 243.216 90.008C242.843 89.7933 242.418 89.686 241.942 89.686C241.466 89.686 241.037 89.7933 240.654 90.008C240.281 90.2227 239.982 90.5307 239.758 90.932C239.544 91.324 239.436 91.7767 239.436 92.29C239.436 92.8033 239.544 93.2607 239.758 93.662C239.982 94.054 240.281 94.362 240.654 94.586C241.037 94.8007 241.466 94.908 241.942 94.908ZM247.651 85.612H248.995V96H247.651V85.612ZM258.127 88.58L254.529 96.742C254.212 97.498 253.838 98.03 253.409 98.338C252.989 98.646 252.48 98.8 251.883 98.8C251.519 98.8 251.164 98.7393 250.819 98.618C250.483 98.506 250.203 98.338 249.979 98.114L250.553 97.106C250.936 97.47 251.379 97.652 251.883 97.652C252.21 97.652 252.48 97.5633 252.695 97.386C252.919 97.218 253.12 96.924 253.297 96.504L253.535 95.986L250.259 88.58H251.659L254.249 94.516L256.811 88.58H258.127ZM266.274 88.58V94.992C266.274 96.2893 265.952 97.246 265.308 97.862C264.664 98.4873 263.703 98.8 262.424 98.8C261.724 98.8 261.057 98.702 260.422 98.506C259.788 98.3193 259.274 98.0487 258.882 97.694L259.526 96.658C259.872 96.9567 260.296 97.19 260.8 97.358C261.314 97.5353 261.841 97.624 262.382 97.624C263.25 97.624 263.89 97.4187 264.3 97.008C264.72 96.5973 264.93 95.972 264.93 95.132V94.544C264.613 94.9267 264.221 95.216 263.754 95.412C263.297 95.5987 262.798 95.692 262.256 95.692C261.547 95.692 260.903 95.5427 260.324 95.244C259.755 94.936 259.307 94.5113 258.98 93.97C258.654 93.4193 258.49 92.794 258.49 92.094C258.49 91.394 258.654 90.7733 258.98 90.232C259.307 89.6813 259.755 89.2567 260.324 88.958C260.903 88.6593 261.547 88.51 262.256 88.51C262.816 88.51 263.334 88.6127 263.81 88.818C264.296 89.0233 264.692 89.3267 265 89.728V88.58H266.274ZM262.41 94.516C262.896 94.516 263.33 94.4133 263.712 94.208C264.104 94.0027 264.408 93.718 264.622 93.354C264.846 92.9807 264.958 92.5607 264.958 92.094C264.958 91.3753 264.72 90.7967 264.244 90.358C263.768 89.91 263.157 89.686 262.41 89.686C261.654 89.686 261.038 89.91 260.562 90.358C260.086 90.7967 259.848 91.3753 259.848 92.094C259.848 92.5607 259.956 92.9807 260.17 93.354C260.394 93.718 260.698 94.0027 261.08 94.208C261.472 94.4133 261.916 94.516 262.41 94.516ZM272.02 96.084C271.283 96.084 270.62 95.9207 270.032 95.594C269.444 95.2673 268.982 94.8193 268.646 94.25C268.32 93.6713 268.156 93.018 268.156 92.29C268.156 91.562 268.32 90.9133 268.646 90.344C268.982 89.7653 269.444 89.3173 270.032 89C270.62 88.6733 271.283 88.51 272.02 88.51C272.758 88.51 273.416 88.6733 273.994 89C274.582 89.3173 275.04 89.7653 275.366 90.344C275.702 90.9133 275.87 91.562 275.87 92.29C275.87 93.018 275.702 93.6713 275.366 94.25C275.04 94.8193 274.582 95.2673 273.994 95.594C273.416 95.9207 272.758 96.084 272.02 96.084ZM272.02 94.908C272.496 94.908 272.921 94.8007 273.294 94.586C273.677 94.362 273.976 94.054 274.19 93.662C274.405 93.2607 274.512 92.8033 274.512 92.29C274.512 91.7767 274.405 91.324 274.19 90.932C273.976 90.5307 273.677 90.2227 273.294 90.008C272.921 89.7933 272.496 89.686 272.02 89.686C271.544 89.686 271.115 89.7933 270.732 90.008C270.359 90.2227 270.06 90.5307 269.836 90.932C269.622 91.324 269.514 91.7767 269.514 92.29C269.514 92.8033 269.622 93.2607 269.836 93.662C270.06 94.054 270.359 94.362 270.732 94.586C271.115 94.8007 271.544 94.908 272.02 94.908ZM281.691 88.51C282.634 88.51 283.38 88.7853 283.931 89.336C284.491 89.8773 284.771 90.6753 284.771 91.73V96H283.427V91.884C283.427 91.1653 283.254 90.624 282.909 90.26C282.564 89.896 282.069 89.714 281.425 89.714C280.697 89.714 280.123 89.9287 279.703 90.358C279.283 90.778 279.073 91.3847 279.073 92.178V96H277.729V88.58H279.017V89.7C279.288 89.3173 279.652 89.0233 280.109 88.818C280.576 88.6127 281.103 88.51 281.691 88.51ZM293.412 88.216L295.078 89.154L294.644 89.924L292.95 88.93L292.964 90.834H292.124L292.138 88.93L290.444 89.924L290.01 89.154L291.69 88.216L290.01 87.292L290.444 86.508L292.138 87.502L292.124 85.612H292.964L292.95 87.502L294.644 86.508L295.078 87.292L293.412 88.216ZM317.394 85.475C319.894 85.475 321.728 85.95 322.894 86.9C324.078 87.8333 324.669 89.1167 324.669 90.75C324.669 91.7833 324.419 92.7167 323.919 93.55C323.436 94.3667 322.694 95.0167 321.694 95.5C320.711 95.9667 319.494 96.2 318.044 96.2C316.811 96.2 315.619 96.0167 314.469 95.65C313.319 95.2667 312.369 94.7417 311.619 94.075L312.769 92.1C313.369 92.6667 314.136 93.125 315.069 93.475C316.003 93.8083 316.986 93.975 318.019 93.975C319.336 93.975 320.353 93.7 321.069 93.15C321.803 92.5833 322.169 91.8167 322.169 90.85C322.169 89.8 321.769 89.0083 320.969 88.475C320.169 87.925 318.803 87.65 316.869 87.65H312.894L313.819 78.5H323.694V80.675H315.919L315.444 85.475H317.394ZM328.4 96.15C327.933 96.15 327.533 95.9917 327.2 95.675C326.866 95.3417 326.7 94.925 326.7 94.425C326.7 93.9417 326.866 93.5417 327.2 93.225C327.533 92.8917 327.933 92.725 328.4 92.725C328.866 92.725 329.258 92.8833 329.575 93.2C329.891 93.5167 330.05 93.925 330.05 94.425C330.05 94.925 329.883 95.3417 329.55 95.675C329.233 95.9917 328.85 96.15 328.4 96.15ZM337.521 78.5V96H335.046V80.675H331.096V78.5H337.521ZM347.024 78.3C349.374 78.3 351.183 79.0583 352.449 80.575C353.733 82.0917 354.374 84.2417 354.374 87.025C354.374 88.975 354.024 90.6417 353.324 92.025C352.641 93.3917 351.674 94.4333 350.424 95.15C349.191 95.85 347.749 96.2 346.099 96.2C345.249 96.2 344.449 96.1167 343.699 95.95C342.949 95.7667 342.299 95.5083 341.749 95.175L342.699 93.225C343.549 93.775 344.674 94.05 346.074 94.05C347.891 94.05 349.308 93.4917 350.324 92.375C351.358 91.2417 351.874 89.6 351.874 87.45V86.825C351.374 87.575 350.683 88.15 349.799 88.55C348.916 88.9333 347.924 89.125 346.824 89.125C345.674 89.125 344.641 88.9083 343.724 88.475C342.824 88.0417 342.116 87.425 341.599 86.625C341.099 85.8083 340.849 84.875 340.849 83.825C340.849 82.725 341.116 81.7583 341.649 80.925C342.199 80.0917 342.941 79.45 343.874 79C344.808 78.5333 345.858 78.3 347.024 78.3ZM347.249 87.1C348.033 87.1 348.733 86.95 349.349 86.65C349.966 86.35 350.441 85.9417 350.774 85.425C351.124 84.9083 351.299 84.3333 351.299 83.7C351.299 83.0833 351.133 82.525 350.799 82.025C350.483 81.5083 350.008 81.1 349.374 80.8C348.758 80.4833 348.008 80.325 347.124 80.325C345.974 80.325 345.041 80.6333 344.324 81.25C343.624 81.8667 343.274 82.6917 343.274 83.725C343.274 84.7583 343.633 85.5833 344.349 86.2C345.066 86.8 346.033 87.1 347.249 87.1ZM360.579 87.9C359.362 87.9 358.379 87.4583 357.629 86.575C356.879 85.6917 356.504 84.5417 356.504 83.125C356.504 81.7083 356.879 80.5583 357.629 79.675C358.379 78.7917 359.362 78.35 360.579 78.35C361.796 78.35 362.771 78.7917 363.504 79.675C364.254 80.5417 364.629 81.6917 364.629 83.125C364.629 84.5583 364.254 85.7167 363.504 86.6C362.771 87.4667 361.796 87.9 360.579 87.9ZM371.129 78.5H373.054L361.104 96H359.179L371.129 78.5ZM360.579 86.475C361.346 86.475 361.946 86.1833 362.379 85.6C362.812 85 363.029 84.175 363.029 83.125C363.029 82.075 362.812 81.2583 362.379 80.675C361.946 80.075 361.346 79.775 360.579 79.775C359.829 79.775 359.229 80.075 358.779 80.675C358.346 81.275 358.129 82.0917 358.129 83.125C358.129 84.1583 358.346 84.975 358.779 85.575C359.229 86.175 359.829 86.475 360.579 86.475ZM371.654 96.15C370.437 96.15 369.454 95.7167 368.704 94.85C367.971 93.9667 367.604 92.8083 367.604 91.375C367.604 89.9417 367.971 88.7917 368.704 87.925C369.454 87.0417 370.437 86.6 371.654 86.6C372.871 86.6 373.854 87.0417 374.604 87.925C375.354 88.8083 375.729 89.9583 375.729 91.375C375.729 92.7917 375.354 93.9417 374.604 94.825C373.854 95.7083 372.871 96.15 371.654 96.15ZM371.654 94.725C372.404 94.725 372.996 94.425 373.429 93.825C373.879 93.225 374.104 92.4083 374.104 91.375C374.104 90.3417 373.879 89.525 373.429 88.925C372.996 88.325 372.404 88.025 371.654 88.025C370.887 88.025 370.287 88.325 369.854 88.925C369.421 89.5083 369.204 90.325 369.204 91.375C369.204 92.425 369.421 93.25 369.854 93.85C370.287 94.4333 370.887 94.725 371.654 94.725ZM389.734 93.55H384.526L383.448 96H382.006L386.444 86.2H387.83L392.282 96H390.812L389.734 93.55ZM389.244 92.43L387.13 87.628L385.016 92.43H389.244ZM397.565 86.2C398.835 86.2 399.833 86.5033 400.561 87.11C401.289 87.7167 401.653 88.552 401.653 89.616C401.653 90.68 401.289 91.5153 400.561 92.122C399.833 92.7287 398.835 93.032 397.565 93.032H395.143V96H393.743V86.2H397.565ZM397.523 91.814C398.41 91.814 399.087 91.6273 399.553 91.254C400.02 90.8713 400.253 90.3253 400.253 89.616C400.253 88.9067 400.02 88.3653 399.553 87.992C399.087 87.6093 398.41 87.418 397.523 87.418H395.143V91.814H397.523ZM410.262 96L408.148 92.99C407.887 93.0087 407.682 93.018 407.532 93.018H405.11V96H403.71V86.2H407.532C408.802 86.2 409.8 86.5033 410.528 87.11C411.256 87.7167 411.62 88.552 411.62 89.616C411.62 90.372 411.434 91.016 411.06 91.548C410.687 92.08 410.155 92.4673 409.464 92.71L411.788 96H410.262ZM407.49 91.828C408.377 91.828 409.054 91.6367 409.52 91.254C409.987 90.8713 410.22 90.3253 410.22 89.616C410.22 88.9067 409.987 88.3653 409.52 87.992C409.054 87.6093 408.377 87.418 407.49 87.418H405.11V91.828H407.49ZM420.624 96.084C419.887 96.084 419.224 95.9207 418.636 95.594C418.048 95.2673 417.586 94.8193 417.25 94.25C416.923 93.6713 416.76 93.018 416.76 92.29C416.76 91.562 416.923 90.9133 417.25 90.344C417.586 89.7653 418.048 89.3173 418.636 89C419.224 88.6733 419.887 88.51 420.624 88.51C421.361 88.51 422.019 88.6733 422.598 89C423.186 89.3173 423.643 89.7653 423.97 90.344C424.306 90.9133 424.474 91.562 424.474 92.29C424.474 93.018 424.306 93.6713 423.97 94.25C423.643 94.8193 423.186 95.2673 422.598 95.594C422.019 95.9207 421.361 96.084 420.624 96.084ZM420.624 94.908C421.1 94.908 421.525 94.8007 421.898 94.586C422.281 94.362 422.579 94.054 422.794 93.662C423.009 93.2607 423.116 92.8033 423.116 92.29C423.116 91.7767 423.009 91.324 422.794 90.932C422.579 90.5307 422.281 90.2227 421.898 90.008C421.525 89.7933 421.1 89.686 420.624 89.686C420.148 89.686 419.719 89.7933 419.336 90.008C418.963 90.2227 418.664 90.5307 418.44 90.932C418.225 91.324 418.118 91.7767 418.118 92.29C418.118 92.8033 418.225 93.2607 418.44 93.662C418.664 94.054 418.963 94.362 419.336 94.586C419.719 94.8007 420.148 94.908 420.624 94.908ZM430.295 88.51C431.237 88.51 431.984 88.7853 432.535 89.336C433.095 89.8773 433.375 90.6753 433.375 91.73V96H432.031V91.884C432.031 91.1653 431.858 90.624 431.513 90.26C431.167 89.896 430.673 89.714 430.029 89.714C429.301 89.714 428.727 89.9287 428.307 90.358C427.887 90.778 427.677 91.3847 427.677 92.178V96H426.333V88.58H427.621V89.7C427.891 89.3173 428.255 89.0233 428.713 88.818C429.179 88.6127 429.707 88.51 430.295 88.51ZM446.412 90.918C446.981 91.0767 447.429 91.366 447.756 91.786C448.082 92.1967 448.246 92.7193 448.246 93.354C448.246 94.2033 447.924 94.8567 447.28 95.314C446.645 95.7713 445.716 96 444.494 96H439.818V86.2H444.214C445.334 86.2 446.197 86.424 446.804 86.872C447.42 87.32 447.728 87.9407 447.728 88.734C447.728 89.2473 447.606 89.6907 447.364 90.064C447.13 90.4373 446.813 90.722 446.412 90.918ZM441.218 87.334V90.47H444.088C444.806 90.47 445.357 90.3393 445.74 90.078C446.132 89.8073 446.328 89.4153 446.328 88.902C446.328 88.3887 446.132 88.0013 445.74 87.74C445.357 87.4693 444.806 87.334 444.088 87.334H441.218ZM444.438 94.866C445.231 94.866 445.828 94.7353 446.23 94.474C446.631 94.2127 446.832 93.802 446.832 93.242C446.832 92.15 446.034 91.604 444.438 91.604H441.218V94.866H444.438ZM453.269 96.112C452.532 96.112 451.818 96 451.127 95.776C450.446 95.5427 449.909 95.244 449.517 94.88L450.035 93.788C450.409 94.124 450.885 94.3993 451.463 94.614C452.051 94.8193 452.653 94.922 453.269 94.922C454.081 94.922 454.688 94.7867 455.089 94.516C455.491 94.236 455.691 93.8673 455.691 93.41C455.691 93.074 455.579 92.8033 455.355 92.598C455.141 92.3833 454.87 92.22 454.543 92.108C454.226 91.996 453.773 91.87 453.185 91.73C452.448 91.5527 451.851 91.3753 451.393 91.198C450.945 91.0207 450.558 90.75 450.231 90.386C449.914 90.0127 449.755 89.5133 449.755 88.888C449.755 88.3653 449.891 87.894 450.161 87.474C450.441 87.054 450.861 86.718 451.421 86.466C451.981 86.214 452.677 86.088 453.507 86.088C454.086 86.088 454.655 86.1627 455.215 86.312C455.775 86.4613 456.256 86.676 456.657 86.956L456.195 88.076C455.785 87.8147 455.346 87.6187 454.879 87.488C454.413 87.348 453.955 87.278 453.507 87.278C452.714 87.278 452.117 87.4227 451.715 87.712C451.323 88.0013 451.127 88.3747 451.127 88.832C451.127 89.168 451.239 89.4433 451.463 89.658C451.687 89.8633 451.963 90.0267 452.289 90.148C452.625 90.26 453.078 90.3813 453.647 90.512C454.385 90.6893 454.977 90.8667 455.425 91.044C455.873 91.2213 456.256 91.492 456.573 91.856C456.9 92.22 457.063 92.71 457.063 93.326C457.063 93.8393 456.923 94.3107 456.643 94.74C456.363 95.16 455.939 95.496 455.369 95.748C454.8 95.9907 454.1 96.112 453.269 96.112ZM463.491 96.112C462.511 96.112 461.624 95.8973 460.831 95.468C460.047 95.0293 459.431 94.432 458.983 93.676C458.535 92.9107 458.311 92.052 458.311 91.1C458.311 90.148 458.535 89.294 458.983 88.538C459.431 87.7727 460.051 87.1753 460.845 86.746C461.638 86.3073 462.525 86.088 463.505 86.088C464.27 86.088 464.97 86.2187 465.605 86.48C466.239 86.732 466.781 87.11 467.229 87.614L466.319 88.496C465.581 87.7213 464.662 87.334 463.561 87.334C462.833 87.334 462.175 87.4973 461.587 87.824C460.999 88.1507 460.537 88.6033 460.201 89.182C459.874 89.7513 459.711 90.3907 459.711 91.1C459.711 91.8093 459.874 92.4533 460.201 93.032C460.537 93.6013 460.999 94.0493 461.587 94.376C462.175 94.7027 462.833 94.866 463.561 94.866C464.653 94.866 465.572 94.474 466.319 93.69L467.229 94.572C466.781 95.076 466.235 95.4587 465.591 95.72C464.956 95.9813 464.256 96.112 463.491 96.112ZM475.184 88.216L476.85 89.154L476.416 89.924L474.722 88.93L474.736 90.834H473.896L473.91 88.93L472.216 89.924L471.782 89.154L473.462 88.216L471.782 87.292L472.216 86.508L473.91 87.502L473.896 85.612H474.736L474.722 87.502L476.416 86.508L476.85 87.292L475.184 88.216Z" fill="white"/>
<path d="M690.65 52.4071L691.874 53.7191L690.804 55.1581C656.157 101.851 636.196 122.992 627.727 120.156C622.568 118.429 617.395 113.235 612.222 105.692C610.402 103.042 608.696 100.25 607.143 97.4711C606.109 95.621 605.234 93.9341 604.779 92.9849C604.306 92.0565 603.965 91.0667 603.767 90.0444C603.755 89.984 603.755 89.984 603.745 89.9275C603.664 89.5104 603.636 89.3794 603.575 89.1516C602.527 85.2059 601.997 81.1411 602 77.0593C602 51.0608 623.14 30.0001 649.219 30.0001C657.275 29.9864 665.199 32.0365 672.232 35.9535L672.414 36.0664C678.127 40.03 684.206 45.4769 690.65 52.4071ZM670.024 39.68C663.658 36.1525 656.492 34.307 649.209 34.319C625.535 34.309 606.324 53.445 606.324 77.0512C606.319 80.7637 606.801 84.4608 607.755 88.0492C607.848 88.4019 607.891 88.6014 607.99 89.1113L608.01 89.2141C608.141 89.8834 608.37 90.5299 608.69 91.1327C609.104 91.9994 609.937 93.6056 610.928 95.3771C612.421 98.0475 614.061 100.728 615.798 103.261C620.473 110.075 625.1 114.731 629.108 116.069C634.441 117.855 654.519 96.671 686.25 54.0436C680.491 47.98 675.082 43.1921 670.024 39.68Z" fill="black"/>
<path d="M670.024 39.6801C663.658 36.1526 656.492 34.3071 649.209 34.3192C625.535 34.3091 606.324 53.4452 606.324 77.0513C606.319 80.7638 606.801 84.4609 607.755 88.0493C607.848 88.402 607.891 88.6015 607.99 89.1114L608.01 89.2142C608.141 89.8835 608.37 90.53 608.69 91.1328C609.104 91.9995 609.937 93.6057 610.928 95.3772C612.421 98.0476 614.061 100.728 615.798 103.261C620.473 110.075 625.1 114.731 629.108 116.069C634.44 117.855 654.519 96.6711 686.25 54.0437C680.491 47.9801 675.082 43.1922 670.024 39.6801Z" fill="#EC1C79"/>
<path d="M657.876 132.746C631.789 132.746 610.655 111.678 610.655 85.6872C610.655 59.6968 631.804 38.6259 657.876 38.6259C683.949 38.6259 705.095 59.6968 705.095 85.6872C705.095 111.678 683.955 132.746 657.876 132.746ZM657.876 128.429C681.562 128.429 700.761 109.293 700.761 85.6872C700.761 62.081 681.55 42.9429 657.874 42.9429C634.198 42.9429 614.985 62.089 614.985 85.6872C614.985 109.285 634.19 128.429 657.876 128.429Z" fill="black"/>
<path d="M657.876 128.43C681.562 128.43 700.761 109.293 700.761 85.6873C700.761 62.0811 681.55 42.943 657.874 42.943C634.198 42.943 614.985 62.0891 614.985 85.6873C614.985 109.285 634.19 128.43 657.876 128.43Z" fill="white"/>
<path fill-rule="evenodd" clip-rule="evenodd" d="M625.793 94.4419L620.117 77.3978H625.09L628.05 87.1885L631.324 77.3494H635.369L638.643 87.1885L641.603 77.3978H646.479L640.802 94.4419H636.711L633.29 84.6995L629.895 94.4419H625.793ZM648.355 94.321V77.3917H662.013V81.3802H653.013V83.9438H661.164V87.646H653.013V90.3305H662.137V94.319L648.355 94.321ZM668.685 94.321V81.5072H663.591V77.3978H678.486V81.5072H673.393V94.321H668.685ZM680.549 94.321V77.3917H685.255V83.7261H691.295V77.3978H696.001V94.327H691.295V87.8899H685.255V94.321H680.549Z" fill="black"/>
<path d="M604.805 72.307C604.245 72.0111 603.824 71.5089 603.631 70.9076C603.438 70.3064 603.488 69.6537 603.772 69.089C604.055 68.5244 604.548 68.0925 605.147 67.8856C605.745 67.6788 606.401 67.7134 606.975 67.982L613.907 71.4343C614.452 71.7379 614.859 72.2393 615.042 72.8341C615.226 73.4289 615.173 74.0714 614.893 74.6279C614.614 75.1845 614.13 75.6122 613.542 75.8222C612.954 76.0322 612.308 76.0082 611.737 75.7553L604.805 72.307Z" fill="black"/>
<path d="M604.008 83.7604C603.453 83.4753 603.03 82.988 602.826 82.3997C602.622 81.8114 602.654 81.1675 602.914 80.6019C603.175 80.0362 603.644 79.5925 604.224 79.3628C604.805 79.1332 605.451 79.1353 606.03 79.3689L612.962 82.5572C613.547 82.8261 614 83.3153 614.222 83.9172C614.445 84.5191 614.418 85.1844 614.148 85.7667C613.879 86.3491 613.388 86.8008 612.784 87.0224C612.18 87.2441 611.512 87.2176 610.928 86.9488L604.008 83.7604Z" fill="black"/>
<path d="M595.373 112.721L596.013 113.407L595.453 114.16C577.329 138.585 566.888 149.644 562.458 148.161C559.759 147.257 557.053 144.54 554.347 140.594C553.395 139.208 552.502 137.748 551.69 136.294C551.149 135.326 550.691 134.444 550.453 133.947C550.206 133.462 550.028 132.944 549.925 132.409C549.918 132.377 549.918 132.377 549.913 132.348C549.871 132.13 549.856 132.061 549.824 131.942C549.275 129.878 548.998 127.752 549 125.617C549 112.017 560.058 101 573.7 101C577.914 100.993 582.059 102.065 585.738 104.114L585.833 104.173C588.822 106.247 592.002 109.096 595.373 112.721ZM584.583 106.064C581.253 104.218 577.505 103.253 573.695 103.259C561.311 103.254 551.262 113.264 551.262 125.612C551.259 127.554 551.511 129.488 552.011 131.365C552.059 131.55 552.081 131.654 552.133 131.921L552.144 131.975C552.212 132.325 552.332 132.663 552.499 132.978C552.716 133.432 553.152 134.272 553.67 135.199C554.451 136.596 555.309 137.998 556.218 139.323C558.663 142.887 561.083 145.323 563.18 146.023C565.97 146.957 576.473 135.875 593.071 113.577C590.058 110.405 587.229 107.901 584.583 106.064Z" fill="black"/>
<path d="M584.583 106.064C581.253 104.218 577.505 103.253 573.695 103.259C561.311 103.254 551.262 113.264 551.262 125.612C551.26 127.554 551.511 129.488 552.011 131.365C552.059 131.55 552.082 131.654 552.133 131.921L552.144 131.975C552.212 132.325 552.332 132.663 552.499 132.978C552.716 133.432 553.152 134.272 553.67 135.199C554.451 136.596 555.309 137.998 556.218 139.323C558.663 142.887 561.084 145.323 563.18 146.023C565.97 146.957 576.473 135.875 593.071 113.577C590.058 110.405 587.229 107.901 584.583 106.064Z" fill="#EC1C79"/>
<path d="M578.229 154.746C564.583 154.746 553.528 143.725 553.528 130.13C553.528 116.534 564.59 105.512 578.229 105.512C591.867 105.512 602.929 116.534 602.929 130.13C602.929 143.725 591.87 154.746 578.229 154.746ZM578.229 152.488C590.619 152.488 600.662 142.478 600.662 130.13C600.662 117.781 590.613 107.77 578.228 107.77C565.843 107.77 555.792 117.786 555.792 130.13C555.792 142.474 565.838 152.488 578.229 152.488Z" fill="black"/>
<path d="M578.229 152.488C590.619 152.488 600.662 142.478 600.662 130.13C600.662 117.781 590.613 107.77 578.228 107.77C565.843 107.77 555.792 117.786 555.792 130.13C555.792 142.474 565.839 152.488 578.229 152.488Z" fill="white"/>
<path d="M550.467 123.131C550.175 122.976 549.954 122.713 549.853 122.399C549.752 122.084 549.779 121.743 549.927 121.447C550.075 121.152 550.333 120.926 550.646 120.818C550.959 120.71 551.302 120.728 551.602 120.868L555.229 122.674C555.514 122.833 555.726 123.095 555.823 123.406C555.919 123.718 555.891 124.054 555.745 124.345C555.598 124.636 555.345 124.86 555.038 124.97C554.73 125.079 554.392 125.067 554.094 124.935L550.467 123.131Z" fill="black"/>
<path d="M550.051 129.122C549.76 128.973 549.539 128.718 549.432 128.41C549.326 128.102 549.342 127.766 549.478 127.47C549.615 127.174 549.86 126.942 550.164 126.822C550.467 126.701 550.806 126.703 551.108 126.825L554.735 128.493C555.04 128.633 555.277 128.889 555.394 129.204C555.51 129.519 555.496 129.867 555.355 130.171C555.214 130.476 554.957 130.712 554.641 130.828C554.325 130.944 553.976 130.93 553.67 130.79L550.051 129.122Z" fill="black"/>
<path d="M586.201 125.64C585.931 125.494 585.63 125.418 585.324 125.418C585.018 125.418 584.717 125.494 584.447 125.64L580.355 128.095L577.578 129.653L573.558 132.099C573.288 132.246 572.987 132.323 572.681 132.323C572.375 132.323 572.074 132.246 571.804 132.099L568.659 130.165C568.392 130.005 568.171 129.777 568.017 129.504C567.863 129.231 567.783 128.922 567.782 128.608V124.898C567.785 124.584 567.866 124.275 568.02 124.003C568.173 123.73 568.393 123.502 568.659 123.34L571.801 121.48C572.07 121.334 572.372 121.257 572.678 121.257C572.984 121.257 573.285 121.334 573.555 121.48L576.697 123.408C576.964 123.568 577.185 123.795 577.339 124.068C577.493 124.342 577.574 124.651 577.575 124.965V127.419L580.352 125.787V123.266C580.349 122.952 580.267 122.643 580.114 122.371C579.96 122.098 579.74 121.87 579.474 121.709L573.628 118.223C573.358 118.077 573.057 118 572.751 118C572.445 118 572.144 118.077 571.874 118.223L565.877 121.774C565.608 121.914 565.384 122.126 565.229 122.389C565.074 122.651 564.995 122.952 565 123.257V130.231C565.002 130.545 565.084 130.853 565.237 131.126C565.391 131.399 565.611 131.627 565.877 131.788L571.796 135.273C572.065 135.42 572.367 135.497 572.673 135.497C572.979 135.497 573.28 135.42 573.55 135.273L577.57 132.906L580.347 131.274L584.365 128.907C584.635 128.761 584.937 128.685 585.242 128.685C585.548 128.685 585.85 128.761 586.12 128.907L589.262 130.767C589.531 130.925 589.754 131.152 589.91 131.425C590.066 131.698 590.148 132.007 590.15 132.323V136.031C590.148 136.345 590.066 136.653 589.913 136.926C589.759 137.199 589.539 137.427 589.273 137.588L586.205 139.448C585.935 139.594 585.633 139.67 585.327 139.67C585.022 139.67 584.72 139.594 584.45 139.448L581.308 137.588C581.041 137.429 580.819 137.201 580.666 136.928C580.512 136.655 580.43 136.346 580.43 136.031V133.664L577.655 135.282V137.734C577.657 138.048 577.738 138.356 577.892 138.629C578.045 138.902 578.266 139.13 578.531 139.291L584.45 142.778C584.72 142.924 585.022 143 585.327 143C585.633 143 585.935 142.924 586.205 142.778L592.124 139.291C592.391 139.132 592.612 138.904 592.766 138.631C592.919 138.358 593 138.048 593 137.734V130.684C592.998 130.37 592.916 130.062 592.763 129.789C592.609 129.516 592.389 129.288 592.124 129.127L586.201 125.64Z" fill="#8247E5"/>
<path d="M563.373 52.7211L564.013 53.4074L563.453 54.1602C545.329 78.5849 534.888 89.6439 530.458 88.1606C527.759 87.2571 525.053 84.5403 522.347 80.5942C521.395 79.2079 520.502 77.7478 519.69 76.294C519.149 75.3262 518.691 74.4438 518.453 73.9472C518.206 73.4616 518.028 72.9439 517.925 72.4091C517.918 72.3775 517.918 72.3775 517.913 72.348C517.871 72.1297 517.856 72.0612 517.824 71.9421C517.275 69.8781 516.998 67.7518 517 65.6166C517 52.0169 528.058 41 541.7 41C545.914 40.9929 550.059 42.0653 553.738 44.1143L553.833 44.1733C556.822 46.2467 560.002 49.0959 563.373 52.7211ZM552.583 46.0636C549.253 44.2184 545.505 43.253 541.695 43.2593C529.311 43.254 519.262 53.264 519.262 65.6124C519.259 67.5543 519.511 69.4883 520.011 71.3654C520.059 71.5499 520.081 71.6543 520.133 71.921L520.144 71.9748C520.212 72.3249 520.332 72.6631 520.499 72.9784C520.716 73.4317 521.152 74.2719 521.67 75.1986C522.451 76.5955 523.309 77.9976 524.218 79.3228C526.663 82.8872 529.083 85.3225 531.18 86.0225C533.97 86.9566 544.473 75.8755 561.071 53.5772C558.058 50.4053 555.229 47.9008 552.583 46.0636Z" fill="black"/>
<path d="M552.583 46.0636C549.253 44.2184 545.505 43.253 541.695 43.2593C529.311 43.254 519.262 53.2641 519.262 65.6124C519.26 67.5544 519.511 69.4883 520.011 71.3654C520.059 71.5499 520.082 71.6543 520.133 71.921L520.144 71.9748C520.212 72.3249 520.332 72.6631 520.499 72.9784C520.716 73.4317 521.152 74.272 521.67 75.1986C522.451 76.5955 523.309 77.9977 524.218 79.3228C526.663 82.8872 529.084 85.3225 531.18 86.0226C533.97 86.9566 544.473 75.8755 561.071 53.5772C558.058 50.4053 555.229 47.9008 552.583 46.0636Z" fill="#EC1C79"/>
<path d="M546.229 94.7464C532.583 94.7464 521.528 83.7253 521.528 70.1298C521.528 56.5343 532.59 45.5122 546.229 45.5122C559.867 45.5122 570.929 56.5343 570.929 70.1298C570.929 83.7253 559.87 94.7464 546.229 94.7464ZM546.229 92.4882C558.619 92.4882 568.662 82.4782 568.662 70.1298C568.662 57.7815 558.613 47.7704 546.228 47.7704C533.843 47.7704 523.792 57.7857 523.792 70.1298C523.792 82.474 533.838 92.4882 546.229 92.4882Z" fill="black"/>
<path d="M546.229 92.4882C558.619 92.4882 568.662 82.4782 568.662 70.1298C568.662 57.7815 558.613 47.7704 546.228 47.7704C533.843 47.7704 523.792 57.7857 523.792 70.1298C523.792 82.474 533.839 92.4882 546.229 92.4882Z" fill="white"/>
<path d="M518.467 63.1308C518.175 62.976 517.954 62.7133 517.853 62.3987C517.752 62.0842 517.779 61.7428 517.927 61.4474C518.075 61.1521 518.333 60.9261 518.646 60.8179C518.959 60.7097 519.302 60.7278 519.602 60.8683L523.229 62.6743C523.514 62.8331 523.726 63.0953 523.823 63.4065C523.919 63.7176 523.891 64.0537 523.745 64.3448C523.598 64.636 523.345 64.8597 523.038 64.9695C522.73 65.0794 522.392 65.0669 522.094 64.9346L518.467 63.1308Z" fill="black"/>
<path d="M518.051 69.1219C517.76 68.9728 517.539 68.7179 517.432 68.4102C517.326 68.1024 517.342 67.7656 517.478 67.4697C517.615 67.1738 517.86 66.9417 518.164 66.8216C518.467 66.7015 518.806 66.7026 519.108 66.8247L522.735 68.4926C523.04 68.6332 523.277 68.8891 523.394 69.204C523.51 69.5188 523.496 69.8668 523.355 70.1714C523.214 70.4761 522.957 70.7124 522.641 70.8283C522.325 70.9443 521.976 70.9304 521.67 70.7898L518.051 69.1219Z" fill="black"/>
<path d="M539.978 68.0309L546 62.0057L552.023 68.0309L555.527 64.5252L546.007 55L536.488 64.5252L539.978 68.0309ZM530.5 70.4981L534.002 66.9925L537.505 70.4981L534.002 74.0075L530.5 70.4981ZM539.978 72.9728L546 78.998L552.023 72.971L555.529 76.4748L546.009 86L536.49 76.4748L539.995 72.9728H539.978ZM554.495 70.5L557.998 66.9943L561.5 70.5L557.998 74.0075L554.495 70.5Z" fill="#F3BA2F"/>
<path d="M549.553 70.4962L546.006 66.9476L543.37 69.5679L543.07 69.8686L542.447 70.4925L545.993 74.0411L549.54 70.4831" fill="#F3BA2F"/>
<rect x="714" y="16" width="136" height="32" rx="16" fill="#197CD8"/>
<path d="M753.402 36.084C752.795 36.084 752.212 36.0047 751.652 35.846C751.092 35.678 750.653 35.468 750.336 35.216L750.896 34.152C751.223 34.3853 751.619 34.572 752.086 34.712C752.553 34.852 753.024 34.922 753.5 34.922C754.676 34.922 755.264 34.586 755.264 33.914C755.264 33.69 755.185 33.5127 755.026 33.382C754.867 33.2513 754.667 33.158 754.424 33.102C754.191 33.0367 753.855 32.9667 753.416 32.892C752.819 32.7987 752.329 32.6913 751.946 32.57C751.573 32.4487 751.251 32.2433 750.98 31.954C750.709 31.6647 750.574 31.2587 750.574 30.736C750.574 30.064 750.854 29.5273 751.414 29.126C751.974 28.7153 752.725 28.51 753.668 28.51C754.163 28.51 754.657 28.5707 755.152 28.692C755.647 28.8133 756.053 28.9767 756.37 29.182L755.796 30.246C755.189 29.854 754.475 29.658 753.654 29.658C753.085 29.658 752.651 29.7513 752.352 29.938C752.053 30.1247 751.904 30.372 751.904 30.68C751.904 30.9227 751.988 31.114 752.156 31.254C752.324 31.394 752.529 31.4967 752.772 31.562C753.024 31.6273 753.374 31.702 753.822 31.786C754.419 31.8887 754.9 32.0007 755.264 32.122C755.637 32.234 755.955 32.43 756.216 32.71C756.477 32.99 756.608 33.382 756.608 33.886C756.608 34.558 756.319 35.0947 755.74 35.496C755.171 35.888 754.391 36.084 753.402 36.084ZM762.46 35.566C762.264 35.734 762.021 35.8647 761.732 35.958C761.442 36.042 761.144 36.084 760.836 36.084C760.089 36.084 759.51 35.8833 759.1 35.482C758.689 35.0807 758.484 34.5067 758.484 33.76V29.686H757.224V28.58H758.484V26.956H759.828V28.58H761.956V29.686H759.828V33.704C759.828 34.1053 759.926 34.4133 760.122 34.628C760.327 34.8427 760.616 34.95 760.99 34.95C761.4 34.95 761.75 34.8333 762.04 34.6L762.46 35.566ZM766.787 28.51C767.813 28.51 768.597 28.762 769.139 29.266C769.689 29.77 769.965 30.5213 769.965 31.52V36H768.691V35.02C768.467 35.3653 768.145 35.6313 767.725 35.818C767.314 35.9953 766.824 36.084 766.255 36.084C765.424 36.084 764.757 35.8833 764.253 35.482C763.758 35.0807 763.511 34.5533 763.511 33.9C763.511 33.2467 763.749 32.724 764.225 32.332C764.701 31.9307 765.457 31.73 766.493 31.73H768.621V31.464C768.621 30.8853 768.453 30.442 768.117 30.134C767.781 29.826 767.286 29.672 766.633 29.672C766.194 29.672 765.765 29.7467 765.345 29.896C764.925 30.036 764.57 30.2273 764.281 30.47L763.721 29.462C764.103 29.154 764.561 28.9207 765.093 28.762C765.625 28.594 766.189 28.51 766.787 28.51ZM766.479 35.048C766.992 35.048 767.435 34.936 767.809 34.712C768.182 34.4787 768.453 34.152 768.621 33.732V32.696H766.549C765.41 32.696 764.841 33.0787 764.841 33.844C764.841 34.2173 764.985 34.5113 765.275 34.726C765.564 34.9407 765.965 35.048 766.479 35.048ZM775.336 32.542L773.796 33.97V36H772.452V25.612H773.796V32.276L777.842 28.58H779.466L776.344 31.646L779.774 36H778.122L775.336 32.542ZM780.983 28.58H782.327V36H780.983V28.58ZM781.655 27.152C781.394 27.152 781.174 27.068 780.997 26.9C780.829 26.732 780.745 26.5267 780.745 26.284C780.745 26.0413 780.829 25.836 780.997 25.668C781.174 25.4907 781.394 25.402 781.655 25.402C781.916 25.402 782.131 25.486 782.299 25.654C782.476 25.8127 782.565 26.0133 782.565 26.256C782.565 26.508 782.476 26.7227 782.299 26.9C782.131 27.068 781.916 27.152 781.655 27.152ZM788.855 28.51C789.798 28.51 790.544 28.7853 791.095 29.336C791.655 29.8773 791.935 30.6753 791.935 31.73V36H790.591V31.884C790.591 31.1653 790.418 30.624 790.073 30.26C789.728 29.896 789.233 29.714 788.589 29.714C787.861 29.714 787.287 29.9287 786.867 30.358C786.447 30.778 786.237 31.3847 786.237 32.178V36H784.893V28.58H786.181V29.7C786.452 29.3173 786.816 29.0233 787.273 28.818C787.74 28.6127 788.267 28.51 788.855 28.51ZM801.561 28.58V34.992C801.561 36.2893 801.239 37.246 800.595 37.862C799.951 38.4873 798.99 38.8 797.711 38.8C797.011 38.8 796.344 38.702 795.709 38.506C795.075 38.3193 794.561 38.0487 794.169 37.694L794.813 36.658C795.159 36.9567 795.583 37.19 796.087 37.358C796.601 37.5353 797.128 37.624 797.669 37.624C798.537 37.624 799.177 37.4187 799.587 37.008C800.007 36.5973 800.217 35.972 800.217 35.132V34.544C799.9 34.9267 799.508 35.216 799.041 35.412C798.584 35.5987 798.085 35.692 797.543 35.692C796.834 35.692 796.19 35.5427 795.611 35.244C795.042 34.936 794.594 34.5113 794.267 33.97C793.941 33.4193 793.777 32.794 793.777 32.094C793.777 31.394 793.941 30.7733 794.267 30.232C794.594 29.6813 795.042 29.2567 795.611 28.958C796.19 28.6593 796.834 28.51 797.543 28.51C798.103 28.51 798.621 28.6127 799.097 28.818C799.583 29.0233 799.979 29.3267 800.287 29.728V28.58H801.561ZM797.697 34.516C798.183 34.516 798.617 34.4133 798.999 34.208C799.391 34.0027 799.695 33.718 799.909 33.354C800.133 32.9807 800.245 32.5607 800.245 32.094C800.245 31.3753 800.007 30.7967 799.531 30.358C799.055 29.91 798.444 29.686 797.697 29.686C796.941 29.686 796.325 29.91 795.849 30.358C795.373 30.7967 795.135 31.3753 795.135 32.094C795.135 32.5607 795.243 32.9807 795.457 33.354C795.681 33.718 795.985 34.0027 796.367 34.208C796.759 34.4133 797.203 34.516 797.697 34.516ZM811.823 28.51C812.542 28.51 813.186 28.6687 813.755 28.986C814.325 29.3033 814.768 29.7467 815.085 30.316C815.412 30.8853 815.575 31.5433 815.575 32.29C815.575 33.0367 815.412 33.6993 815.085 34.278C814.768 34.8473 814.325 35.2907 813.755 35.608C813.186 35.9253 812.542 36.084 811.823 36.084C811.291 36.084 810.801 35.9813 810.353 35.776C809.915 35.5707 809.541 35.272 809.233 34.88V38.716H807.889V28.58H809.177V29.756C809.476 29.3453 809.854 29.0373 810.311 28.832C810.769 28.6173 811.273 28.51 811.823 28.51ZM811.711 34.908C812.187 34.908 812.612 34.8007 812.985 34.586C813.368 34.362 813.667 34.054 813.881 33.662C814.105 33.2607 814.217 32.8033 814.217 32.29C814.217 31.7767 814.105 31.324 813.881 30.932C813.667 30.5307 813.368 30.2227 812.985 30.008C812.612 29.7933 812.187 29.686 811.711 29.686C811.245 29.686 810.82 29.798 810.437 30.022C810.064 30.2367 809.765 30.54 809.541 30.932C809.327 31.324 809.219 31.7767 809.219 32.29C809.219 32.8033 809.327 33.2607 809.541 33.662C809.756 34.054 810.055 34.362 810.437 34.586C810.82 34.8007 811.245 34.908 811.711 34.908ZM820.61 36.084C819.873 36.084 819.21 35.9207 818.622 35.594C818.034 35.2673 817.572 34.8193 817.236 34.25C816.91 33.6713 816.746 33.018 816.746 32.29C816.746 31.562 816.91 30.9133 817.236 30.344C817.572 29.7653 818.034 29.3173 818.622 29C819.21 28.6733 819.873 28.51 820.61 28.51C821.348 28.51 822.006 28.6733 822.584 29C823.172 29.3173 823.63 29.7653 823.956 30.344C824.292 30.9133 824.46 31.562 824.46 32.29C824.46 33.018 824.292 33.6713 823.956 34.25C823.63 34.8193 823.172 35.2673 822.584 35.594C822.006 35.9207 821.348 36.084 820.61 36.084ZM820.61 34.908C821.086 34.908 821.511 34.8007 821.884 34.586C822.267 34.362 822.566 34.054 822.78 33.662C822.995 33.2607 823.102 32.8033 823.102 32.29C823.102 31.7767 822.995 31.324 822.78 30.932C822.566 30.5307 822.267 30.2227 821.884 30.008C821.511 29.7933 821.086 29.686 820.61 29.686C820.134 29.686 819.705 29.7933 819.322 30.008C818.949 30.2227 818.65 30.5307 818.426 30.932C818.212 31.324 818.104 31.7767 818.104 32.29C818.104 32.8033 818.212 33.2607 818.426 33.662C818.65 34.054 818.949 34.362 819.322 34.586C819.705 34.8007 820.134 34.908 820.61 34.908ZM829.497 36.084C828.76 36.084 828.097 35.9207 827.509 35.594C826.921 35.2673 826.459 34.8193 826.123 34.25C825.796 33.6713 825.633 33.018 825.633 32.29C825.633 31.562 825.796 30.9133 826.123 30.344C826.459 29.7653 826.921 29.3173 827.509 29C828.097 28.6733 828.76 28.51 829.497 28.51C830.234 28.51 830.892 28.6733 831.471 29C832.059 29.3173 832.516 29.7653 832.843 30.344C833.179 30.9133 833.347 31.562 833.347 32.29C833.347 33.018 833.179 33.6713 832.843 34.25C832.516 34.8193 832.059 35.2673 831.471 35.594C830.892 35.9207 830.234 36.084 829.497 36.084ZM829.497 34.908C829.973 34.908 830.398 34.8007 830.771 34.586C831.154 34.362 831.452 34.054 831.667 33.662C831.882 33.2607 831.989 32.8033 831.989 32.29C831.989 31.7767 831.882 31.324 831.667 30.932C831.452 30.5307 831.154 30.2227 830.771 30.008C830.398 29.7933 829.973 29.686 829.497 29.686C829.021 29.686 828.592 29.7933 828.209 30.008C827.836 30.2227 827.537 30.5307 827.313 30.932C827.098 31.324 826.991 31.7767 826.991 32.29C826.991 32.8033 827.098 33.2607 827.313 33.662C827.537 34.054 827.836 34.362 828.209 34.586C828.592 34.8007 829.021 34.908 829.497 34.908ZM835.206 25.612H836.55V36H835.206V25.612Z" fill="white"/>
<path d="M730.099 34.9222L729.076 33.8992L736.577 26.1705L737.998 26L737.827 27.4207L730.099 34.9222Z" fill="white"/>
<path d="M729.075 35.0353C729.761 35.7228 730.671 36.1403 731.64 36.2115L731.651 35.1537C730.938 35.2435 730.272 34.9348 729.724 34.3868C729.176 33.8389 728.867 33.1728 728.957 32.4594L727.899 32.4705C727.97 33.439 728.388 34.3494 729.075 35.0353Z" fill="white"/>
<path d="M726.804 37.9999C727.248 37.9999 727.607 37.64 727.607 37.1962C727.607 36.7523 727.248 36.3925 726.804 36.3925C726.36 36.3925 726 36.7523 726 37.1962C726 37.64 726.36 37.9999 726.804 37.9999Z" fill="white"/>
<path d="M727.428 37.3659L726.633 36.5703L728.906 34.0698L729.929 35.0928L727.428 37.3659Z" fill="white"/>
<path d="M733.899 34.9222L734.922 33.8992L727.421 26.1705L726 26L726.171 27.4207L733.899 34.9222Z" fill="white"/>
<path d="M734.923 35.0353C734.237 35.7228 733.327 36.1403 732.358 36.2115L732.347 35.1537C733.061 35.2435 733.726 34.9348 734.274 34.3868C734.822 33.8389 735.131 33.1728 735.041 32.4594L736.099 32.4706C736.028 33.439 735.61 34.3494 734.923 35.0353Z" fill="white"/>
<path d="M737.194 37.9999C737.638 37.9999 737.998 37.64 737.998 37.1962C737.998 36.7523 737.638 36.3925 737.194 36.3925C736.75 36.3925 736.39 36.7523 736.39 37.1962C736.39 37.64 736.75 37.9999 737.194 37.9999Z" fill="white"/>
<path d="M736.57 37.3659L737.366 36.5703L735.092 34.0698L734.07 35.0928L736.57 37.3659Z" fill="white"/>
<path d="M95.358 170.996L96.429 171.599L96.15 172.094L95.061 171.455L95.07 172.679H94.53L94.539 171.455L93.45 172.094L93.171 171.599L94.251 170.996L93.171 170.402L93.45 169.898L94.539 170.537L94.53 169.322H95.07L95.061 170.537L96.15 169.898L96.429 170.402L95.358 170.996ZM102.423 169.7C103.239 169.7 103.881 169.895 104.349 170.285C104.817 170.675 105.051 171.212 105.051 171.896C105.051 172.58 104.817 173.117 104.349 173.507C103.881 173.897 103.239 174.092 102.423 174.092H100.866V176H99.9655V169.7H102.423ZM102.396 173.309C102.966 173.309 103.401 173.189 103.701 172.949C104.001 172.703 104.151 172.352 104.151 171.896C104.151 171.44 104.001 171.092 103.701 170.852C103.401 170.606 102.966 170.483 102.396 170.483H100.866V173.309H102.396ZM107.94 171.185C108.6 171.185 109.104 171.347 109.452 171.671C109.806 171.995 109.983 172.478 109.983 173.12V176H109.164V175.37C109.02 175.592 108.813 175.763 108.543 175.883C108.279 175.997 107.964 176.054 107.598 176.054C107.064 176.054 106.635 175.925 106.311 175.667C105.993 175.409 105.834 175.07 105.834 174.65C105.834 174.23 105.987 173.894 106.293 173.642C106.599 173.384 107.085 173.255 107.751 173.255H109.119V173.084C109.119 172.712 109.011 172.427 108.795 172.229C108.579 172.031 108.261 171.932 107.841 171.932C107.559 171.932 107.283 171.98 107.013 172.076C106.743 172.166 106.515 172.289 106.329 172.445L105.969 171.797C106.215 171.599 106.509 171.449 106.851 171.347C107.193 171.239 107.556 171.185 107.94 171.185ZM107.742 175.388C108.072 175.388 108.357 175.316 108.597 175.172C108.837 175.022 109.011 174.812 109.119 174.542V173.876H107.787C107.055 173.876 106.689 174.122 106.689 174.614C106.689 174.854 106.782 175.043 106.968 175.181C107.154 175.319 107.412 175.388 107.742 175.388ZM112.95 176.054C112.56 176.054 112.185 176.003 111.825 175.901C111.465 175.793 111.183 175.658 110.979 175.496L111.339 174.812C111.549 174.962 111.804 175.082 112.104 175.172C112.404 175.262 112.707 175.307 113.013 175.307C113.769 175.307 114.147 175.091 114.147 174.659C114.147 174.515 114.096 174.401 113.994 174.317C113.892 174.233 113.763 174.173 113.607 174.137C113.457 174.095 113.241 174.05 112.959 174.002C112.575 173.942 112.26 173.873 112.014 173.795C111.774 173.717 111.567 173.585 111.393 173.399C111.219 173.213 111.132 172.952 111.132 172.616C111.132 172.184 111.312 171.839 111.672 171.581C112.032 171.317 112.515 171.185 113.121 171.185C113.439 171.185 113.757 171.224 114.075 171.302C114.393 171.38 114.654 171.485 114.858 171.617L114.489 172.301C114.099 172.049 113.64 171.923 113.112 171.923C112.746 171.923 112.467 171.983 112.275 172.103C112.083 172.223 111.987 172.382 111.987 172.58C111.987 172.736 112.041 172.859 112.149 172.949C112.257 173.039 112.389 173.105 112.545 173.147C112.707 173.189 112.932 173.237 113.22 173.291C113.604 173.357 113.913 173.429 114.147 173.507C114.387 173.579 114.591 173.705 114.759 173.885C114.927 174.065 115.011 174.317 115.011 174.641C115.011 175.073 114.825 175.418 114.453 175.676C114.087 175.928 113.586 176.054 112.95 176.054ZM118.772 175.721C118.646 175.829 118.49 175.913 118.304 175.973C118.118 176.027 117.926 176.054 117.728 176.054C117.248 176.054 116.876 175.925 116.612 175.667C116.348 175.409 116.216 175.04 116.216 174.56V171.941H115.406V171.23H116.216V170.186H117.08V171.23H118.448V171.941H117.08V174.524C117.08 174.782 117.143 174.98 117.269 175.118C117.401 175.256 117.587 175.325 117.827 175.325C118.091 175.325 118.316 175.25 118.502 175.1L118.772 175.721ZM124.763 171.185C125.225 171.185 125.639 171.287 126.005 171.491C126.371 171.695 126.656 171.98 126.86 172.346C127.07 172.712 127.175 173.135 127.175 173.615C127.175 174.095 127.07 174.521 126.86 174.893C126.656 175.259 126.371 175.544 126.005 175.748C125.639 175.952 125.225 176.054 124.763 176.054C124.421 176.054 124.106 175.988 123.818 175.856C123.536 175.724 123.296 175.532 123.098 175.28V177.746H122.234V171.23H123.062V171.986C123.254 171.722 123.497 171.524 123.791 171.392C124.085 171.254 124.409 171.185 124.763 171.185ZM124.691 175.298C124.997 175.298 125.27 175.229 125.51 175.091C125.756 174.947 125.948 174.749 126.086 174.497C126.23 174.239 126.302 173.945 126.302 173.615C126.302 173.285 126.23 172.994 126.086 172.742C125.948 172.484 125.756 172.286 125.51 172.148C125.27 172.01 124.997 171.941 124.691 171.941C124.391 171.941 124.118 172.013 123.872 172.157C123.632 172.295 123.44 172.49 123.296 172.742C123.158 172.994 123.089 173.285 123.089 173.615C123.089 173.945 123.158 174.239 123.296 174.497C123.434 174.749 123.626 174.947 123.872 175.091C124.118 175.229 124.391 175.298 124.691 175.298ZM132.68 173.642C132.68 173.708 132.674 173.795 132.662 173.903H128.792C128.846 174.323 129.029 174.662 129.341 174.92C129.659 175.172 130.052 175.298 130.52 175.298C131.09 175.298 131.549 175.106 131.897 174.722L132.374 175.28C132.158 175.532 131.888 175.724 131.564 175.856C131.246 175.988 130.889 176.054 130.493 176.054C129.989 176.054 129.542 175.952 129.152 175.748C128.762 175.538 128.459 175.247 128.243 174.875C128.033 174.503 127.928 174.083 127.928 173.615C127.928 173.153 128.03 172.736 128.234 172.364C128.444 171.992 128.729 171.704 129.089 171.5C129.455 171.29 129.866 171.185 130.322 171.185C130.778 171.185 131.183 171.29 131.537 171.5C131.897 171.704 132.176 171.992 132.374 172.364C132.578 172.736 132.68 173.162 132.68 173.642ZM130.322 171.914C129.908 171.914 129.56 172.04 129.278 172.292C129.002 172.544 128.84 172.874 128.792 173.282H131.852C131.804 172.88 131.639 172.553 131.357 172.301C131.081 172.043 130.736 171.914 130.322 171.914ZM134.708 172.031C134.858 171.755 135.08 171.545 135.374 171.401C135.668 171.257 136.025 171.185 136.445 171.185V172.022C136.397 172.016 136.331 172.013 136.247 172.013C135.779 172.013 135.41 172.154 135.14 172.436C134.876 172.712 134.744 173.108 134.744 173.624V176H133.88V171.23H134.708V172.031ZM139.317 169.979C138.801 169.979 138.543 170.258 138.543 170.816V171.23H139.929V171.941H138.561V176H137.697V171.941H136.887V171.23H137.697V170.807C137.697 170.333 137.835 169.958 138.111 169.682C138.387 169.406 138.774 169.268 139.272 169.268C139.464 169.268 139.644 169.292 139.812 169.34C139.98 169.388 140.124 169.457 140.244 169.547L139.983 170.204C139.785 170.054 139.563 169.979 139.317 169.979ZM142.716 176.054C142.242 176.054 141.816 175.949 141.438 175.739C141.06 175.529 140.763 175.241 140.547 174.875C140.337 174.503 140.232 174.083 140.232 173.615C140.232 173.147 140.337 172.73 140.547 172.364C140.763 171.992 141.06 171.704 141.438 171.5C141.816 171.29 142.242 171.185 142.716 171.185C143.19 171.185 143.613 171.29 143.985 171.5C144.363 171.704 144.657 171.992 144.867 172.364C145.083 172.73 145.191 173.147 145.191 173.615C145.191 174.083 145.083 174.503 144.867 174.875C144.657 175.241 144.363 175.529 143.985 175.739C143.613 175.949 143.19 176.054 142.716 176.054ZM142.716 175.298C143.022 175.298 143.295 175.229 143.535 175.091C143.781 174.947 143.973 174.749 144.111 174.497C144.249 174.239 144.318 173.945 144.318 173.615C144.318 173.285 144.249 172.994 144.111 172.742C143.973 172.484 143.781 172.286 143.535 172.148C143.295 172.01 143.022 171.941 142.716 171.941C142.41 171.941 142.134 172.01 141.888 172.148C141.648 172.286 141.456 172.484 141.312 172.742C141.174 172.994 141.105 173.285 141.105 173.615C141.105 173.945 141.174 174.239 141.312 174.497C141.456 174.749 141.648 174.947 141.888 175.091C142.134 175.229 142.41 175.298 142.716 175.298ZM147.214 172.031C147.364 171.755 147.586 171.545 147.88 171.401C148.174 171.257 148.531 171.185 148.951 171.185V172.022C148.903 172.016 148.837 172.013 148.753 172.013C148.285 172.013 147.916 172.154 147.646 172.436C147.382 172.712 147.25 173.108 147.25 173.624V176H146.386V171.23H147.214V172.031ZM155.983 171.185C156.583 171.185 157.057 171.359 157.405 171.707C157.759 172.055 157.936 172.571 157.936 173.255V176H157.072V173.354C157.072 172.892 156.964 172.544 156.748 172.31C156.538 172.076 156.235 171.959 155.839 171.959C155.401 171.959 155.053 172.097 154.795 172.373C154.537 172.643 154.408 173.033 154.408 173.543V176H153.544V173.354C153.544 172.892 153.436 172.544 153.22 172.31C153.01 172.076 152.707 171.959 152.311 171.959C151.873 171.959 151.525 172.097 151.267 172.373C151.009 172.643 150.88 173.033 150.88 173.543V176H150.016V171.23H150.844V171.941C151.018 171.695 151.246 171.509 151.528 171.383C151.81 171.251 152.131 171.185 152.491 171.185C152.863 171.185 153.193 171.26 153.481 171.41C153.769 171.56 153.991 171.779 154.147 172.067C154.327 171.791 154.576 171.575 154.894 171.419C155.218 171.263 155.581 171.185 155.983 171.185ZM161.263 171.185C161.923 171.185 162.427 171.347 162.775 171.671C163.129 171.995 163.306 172.478 163.306 173.12V176H162.487V175.37C162.343 175.592 162.136 175.763 161.866 175.883C161.602 175.997 161.287 176.054 160.921 176.054C160.387 176.054 159.958 175.925 159.634 175.667C159.316 175.409 159.157 175.07 159.157 174.65C159.157 174.23 159.31 173.894 159.616 173.642C159.922 173.384 160.408 173.255 161.074 173.255H162.442V173.084C162.442 172.712 162.334 172.427 162.118 172.229C161.902 172.031 161.584 171.932 161.164 171.932C160.882 171.932 160.606 171.98 160.336 172.076C160.066 172.166 159.838 172.289 159.652 172.445L159.292 171.797C159.538 171.599 159.832 171.449 160.174 171.347C160.516 171.239 160.879 171.185 161.263 171.185ZM161.065 175.388C161.395 175.388 161.68 175.316 161.92 175.172C162.16 175.022 162.334 174.812 162.442 174.542V173.876H161.11C160.378 173.876 160.012 174.122 160.012 174.614C160.012 174.854 160.105 175.043 160.291 175.181C160.477 175.319 160.735 175.388 161.065 175.388ZM167.452 171.185C168.058 171.185 168.538 171.362 168.892 171.716C169.252 172.064 169.432 172.577 169.432 173.255V176H168.568V173.354C168.568 172.892 168.457 172.544 168.235 172.31C168.013 172.076 167.695 171.959 167.281 171.959C166.813 171.959 166.444 172.097 166.174 172.373C165.904 172.643 165.769 173.033 165.769 173.543V176H164.905V171.23H165.733V171.95C165.907 171.704 166.141 171.515 166.435 171.383C166.735 171.251 167.074 171.185 167.452 171.185ZM173.136 176.054C172.65 176.054 172.215 175.949 171.831 175.739C171.453 175.529 171.156 175.241 170.94 174.875C170.724 174.503 170.616 174.083 170.616 173.615C170.616 173.147 170.724 172.73 170.94 172.364C171.156 171.992 171.453 171.704 171.831 171.5C172.215 171.29 172.65 171.185 173.136 171.185C173.568 171.185 173.952 171.272 174.288 171.446C174.63 171.62 174.894 171.872 175.08 172.202L174.423 172.625C174.273 172.397 174.087 172.226 173.865 172.112C173.643 171.998 173.397 171.941 173.127 171.941C172.815 171.941 172.533 172.01 172.281 172.148C172.035 172.286 171.84 172.484 171.696 172.742C171.558 172.994 171.489 173.285 171.489 173.615C171.489 173.951 171.558 174.248 171.696 174.506C171.84 174.758 172.035 174.953 172.281 175.091C172.533 175.229 172.815 175.298 173.127 175.298C173.397 175.298 173.643 175.241 173.865 175.127C174.087 175.013 174.273 174.842 174.423 174.614L175.08 175.028C174.894 175.358 174.63 175.613 174.288 175.793C173.952 175.967 173.568 176.054 173.136 176.054ZM180.44 173.642C180.44 173.708 180.434 173.795 180.422 173.903H176.552C176.606 174.323 176.789 174.662 177.101 174.92C177.419 175.172 177.812 175.298 178.28 175.298C178.85 175.298 179.309 175.106 179.657 174.722L180.134 175.28C179.918 175.532 179.648 175.724 179.324 175.856C179.006 175.988 178.649 176.054 178.253 176.054C177.749 176.054 177.302 175.952 176.912 175.748C176.522 175.538 176.219 175.247 176.003 174.875C175.793 174.503 175.688 174.083 175.688 173.615C175.688 173.153 175.79 172.736 175.994 172.364C176.204 171.992 176.489 171.704 176.849 171.5C177.215 171.29 177.626 171.185 178.082 171.185C178.538 171.185 178.943 171.29 179.297 171.5C179.657 171.704 179.936 171.992 180.134 172.364C180.338 172.736 180.44 173.162 180.44 173.642ZM178.082 171.914C177.668 171.914 177.32 172.04 177.038 172.292C176.762 172.544 176.6 172.874 176.552 173.282H179.612C179.564 172.88 179.399 172.553 179.117 172.301C178.841 172.043 178.496 171.914 178.082 171.914ZM188.556 169.322V176H187.728V175.244C187.536 175.508 187.293 175.709 186.999 175.847C186.705 175.985 186.381 176.054 186.027 176.054C185.565 176.054 185.151 175.952 184.785 175.748C184.419 175.544 184.131 175.259 183.921 174.893C183.717 174.521 183.615 174.095 183.615 173.615C183.615 173.135 183.717 172.712 183.921 172.346C184.131 171.98 184.419 171.695 184.785 171.491C185.151 171.287 185.565 171.185 186.027 171.185C186.369 171.185 186.684 171.251 186.972 171.383C187.26 171.509 187.5 171.698 187.692 171.95V169.322H188.556ZM186.099 175.298C186.399 175.298 186.672 175.229 186.918 175.091C187.164 174.947 187.356 174.749 187.494 174.497C187.632 174.239 187.701 173.945 187.701 173.615C187.701 173.285 187.632 172.994 187.494 172.742C187.356 172.484 187.164 172.286 186.918 172.148C186.672 172.01 186.399 171.941 186.099 171.941C185.793 171.941 185.517 172.01 185.271 172.148C185.031 172.286 184.839 172.484 184.695 172.742C184.557 172.994 184.488 173.285 184.488 173.615C184.488 173.945 184.557 174.239 184.695 174.497C184.839 174.749 185.031 174.947 185.271 175.091C185.517 175.229 185.793 175.298 186.099 175.298ZM192.234 176.054C191.76 176.054 191.334 175.949 190.956 175.739C190.578 175.529 190.281 175.241 190.065 174.875C189.855 174.503 189.75 174.083 189.75 173.615C189.75 173.147 189.855 172.73 190.065 172.364C190.281 171.992 190.578 171.704 190.956 171.5C191.334 171.29 191.76 171.185 192.234 171.185C192.708 171.185 193.131 171.29 193.503 171.5C193.881 171.704 194.175 171.992 194.385 172.364C194.601 172.73 194.709 173.147 194.709 173.615C194.709 174.083 194.601 174.503 194.385 174.875C194.175 175.241 193.881 175.529 193.503 175.739C193.131 175.949 192.708 176.054 192.234 176.054ZM192.234 175.298C192.54 175.298 192.813 175.229 193.053 175.091C193.299 174.947 193.491 174.749 193.629 174.497C193.767 174.239 193.836 173.945 193.836 173.615C193.836 173.285 193.767 172.994 193.629 172.742C193.491 172.484 193.299 172.286 193.053 172.148C192.813 172.01 192.54 171.941 192.234 171.941C191.928 171.941 191.652 172.01 191.406 172.148C191.166 172.286 190.974 172.484 190.83 172.742C190.692 172.994 190.623 173.285 190.623 173.615C190.623 173.945 190.692 174.239 190.83 174.497C190.974 174.749 191.166 174.947 191.406 175.091C191.652 175.229 191.928 175.298 192.234 175.298ZM200.215 173.642C200.215 173.708 200.209 173.795 200.197 173.903H196.327C196.381 174.323 196.564 174.662 196.876 174.92C197.194 175.172 197.587 175.298 198.055 175.298C198.625 175.298 199.084 175.106 199.432 174.722L199.909 175.28C199.693 175.532 199.423 175.724 199.099 175.856C198.781 175.988 198.424 176.054 198.028 176.054C197.524 176.054 197.077 175.952 196.687 175.748C196.297 175.538 195.994 175.247 195.778 174.875C195.568 174.503 195.463 174.083 195.463 173.615C195.463 173.153 195.565 172.736 195.769 172.364C195.979 171.992 196.264 171.704 196.624 171.5C196.99 171.29 197.401 171.185 197.857 171.185C198.313 171.185 198.718 171.29 199.072 171.5C199.432 171.704 199.711 171.992 199.909 172.364C200.113 172.736 200.215 173.162 200.215 173.642ZM197.857 171.914C197.443 171.914 197.095 172.04 196.813 172.292C196.537 172.544 196.375 172.874 196.327 173.282H199.387C199.339 172.88 199.174 172.553 198.892 172.301C198.616 172.043 198.271 171.914 197.857 171.914ZM202.783 176.054C202.393 176.054 202.018 176.003 201.658 175.901C201.298 175.793 201.016 175.658 200.812 175.496L201.172 174.812C201.382 174.962 201.637 175.082 201.937 175.172C202.237 175.262 202.54 175.307 202.846 175.307C203.602 175.307 203.98 175.091 203.98 174.659C203.98 174.515 203.929 174.401 203.827 174.317C203.725 174.233 203.596 174.173 203.44 174.137C203.29 174.095 203.074 174.05 202.792 174.002C202.408 173.942 202.093 173.873 201.847 173.795C201.607 173.717 201.4 173.585 201.226 173.399C201.052 173.213 200.965 172.952 200.965 172.616C200.965 172.184 201.145 171.839 201.505 171.581C201.865 171.317 202.348 171.185 202.954 171.185C203.272 171.185 203.59 171.224 203.908 171.302C204.226 171.38 204.487 171.485 204.691 171.617L204.322 172.301C203.932 172.049 203.473 171.923 202.945 171.923C202.579 171.923 202.3 171.983 202.108 172.103C201.916 172.223 201.82 172.382 201.82 172.58C201.82 172.736 201.874 172.859 201.982 172.949C202.09 173.039 202.222 173.105 202.378 173.147C202.54 173.189 202.765 173.237 203.053 173.291C203.437 173.357 203.746 173.429 203.98 173.507C204.22 173.579 204.424 173.705 204.592 173.885C204.76 174.065 204.844 174.317 204.844 174.641C204.844 175.073 204.658 175.418 204.286 175.676C203.92 175.928 203.419 176.054 202.783 176.054ZM208.47 171.185C209.076 171.185 209.556 171.362 209.91 171.716C210.27 172.064 210.45 172.577 210.45 173.255V176H209.586V173.354C209.586 172.892 209.475 172.544 209.253 172.31C209.031 172.076 208.713 171.959 208.299 171.959C207.831 171.959 207.462 172.097 207.192 172.373C206.922 172.643 206.787 173.033 206.787 173.543V176H205.923V171.23H206.751V171.95C206.925 171.704 207.159 171.515 207.453 171.383C207.753 171.251 208.092 171.185 208.47 171.185ZM212.204 169.268C212.372 169.268 212.51 169.328 212.618 169.448C212.732 169.562 212.789 169.706 212.789 169.88C212.789 169.97 212.78 170.06 212.762 170.15C212.744 170.234 212.705 170.357 212.645 170.519L212.213 171.779H211.646L211.979 170.438C211.865 170.396 211.772 170.327 211.7 170.231C211.634 170.129 211.601 170.012 211.601 169.88C211.601 169.7 211.658 169.553 211.772 169.439C211.886 169.325 212.03 169.268 212.204 169.268ZM216.735 175.721C216.609 175.829 216.453 175.913 216.267 175.973C216.081 176.027 215.889 176.054 215.691 176.054C215.211 176.054 214.839 175.925 214.575 175.667C214.311 175.409 214.179 175.04 214.179 174.56V171.941H213.369V171.23H214.179V170.186H215.043V171.23H216.411V171.941H215.043V174.524C215.043 174.782 215.106 174.98 215.232 175.118C215.364 175.256 215.55 175.325 215.79 175.325C216.054 175.325 216.279 175.25 216.465 175.1L216.735 175.721ZM224.76 171.23V175.352C224.76 176.186 224.553 176.801 224.139 177.197C223.725 177.599 223.107 177.8 222.285 177.8C221.835 177.8 221.406 177.737 220.998 177.611C220.59 177.491 220.26 177.317 220.008 177.089L220.422 176.423C220.644 176.615 220.917 176.765 221.241 176.873C221.571 176.987 221.91 177.044 222.258 177.044C222.816 177.044 223.227 176.912 223.491 176.648C223.761 176.384 223.896 175.982 223.896 175.442V175.064C223.692 175.31 223.44 175.496 223.14 175.622C222.846 175.742 222.525 175.802 222.177 175.802C221.721 175.802 221.307 175.706 220.935 175.514C220.569 175.316 220.281 175.043 220.071 174.695C219.861 174.341 219.756 173.939 219.756 173.489C219.756 173.039 219.861 172.64 220.071 172.292C220.281 171.938 220.569 171.665 220.935 171.473C221.307 171.281 221.721 171.185 222.177 171.185C222.537 171.185 222.87 171.251 223.176 171.383C223.488 171.515 223.743 171.71 223.941 171.968V171.23H224.76ZM222.276 175.046C222.588 175.046 222.867 174.98 223.113 174.848C223.365 174.716 223.56 174.533 223.698 174.299C223.842 174.059 223.914 173.789 223.914 173.489C223.914 173.027 223.761 172.655 223.455 172.373C223.149 172.085 222.756 171.941 222.276 171.941C221.79 171.941 221.394 172.085 221.088 172.373C220.782 172.655 220.629 173.027 220.629 173.489C220.629 173.789 220.698 174.059 220.836 174.299C220.98 174.533 221.175 174.716 221.421 174.848C221.673 174.98 221.958 175.046 222.276 175.046ZM230.857 171.23V176H230.038V175.28C229.864 175.526 229.633 175.718 229.345 175.856C229.063 175.988 228.754 176.054 228.418 176.054C227.782 176.054 227.281 175.88 226.915 175.532C226.549 175.178 226.366 174.659 226.366 173.975V171.23H227.23V173.876C227.23 174.338 227.341 174.689 227.563 174.929C227.785 175.163 228.103 175.28 228.517 175.28C228.973 175.28 229.333 175.142 229.597 174.866C229.861 174.59 229.993 174.2 229.993 173.696V171.23H230.857ZM234.239 171.185C234.899 171.185 235.403 171.347 235.751 171.671C236.105 171.995 236.282 172.478 236.282 173.12V176H235.463V175.37C235.319 175.592 235.112 175.763 234.842 175.883C234.578 175.997 234.263 176.054 233.897 176.054C233.363 176.054 232.934 175.925 232.61 175.667C232.292 175.409 232.133 175.07 232.133 174.65C232.133 174.23 232.286 173.894 232.592 173.642C232.898 173.384 233.384 173.255 234.05 173.255H235.418V173.084C235.418 172.712 235.31 172.427 235.094 172.229C234.878 172.031 234.56 171.932 234.14 171.932C233.858 171.932 233.582 171.98 233.312 172.076C233.042 172.166 232.814 172.289 232.628 172.445L232.268 171.797C232.514 171.599 232.808 171.449 233.15 171.347C233.492 171.239 233.855 171.185 234.239 171.185ZM234.041 175.388C234.371 175.388 234.656 175.316 234.896 175.172C235.136 175.022 235.31 174.812 235.418 174.542V173.876H234.086C233.354 173.876 232.988 174.122 232.988 174.614C232.988 174.854 233.081 175.043 233.267 175.181C233.453 175.319 233.711 175.388 234.041 175.388ZM238.709 172.031C238.859 171.755 239.081 171.545 239.375 171.401C239.669 171.257 240.026 171.185 240.446 171.185V172.022C240.398 172.016 240.332 172.013 240.248 172.013C239.78 172.013 239.411 172.154 239.141 172.436C238.877 172.712 238.745 173.108 238.745 173.624V176H237.881V171.23H238.709V172.031ZM243.239 171.185C243.899 171.185 244.403 171.347 244.751 171.671C245.105 171.995 245.282 172.478 245.282 173.12V176H244.463V175.37C244.319 175.592 244.112 175.763 243.842 175.883C243.578 175.997 243.263 176.054 242.897 176.054C242.363 176.054 241.934 175.925 241.61 175.667C241.292 175.409 241.133 175.07 241.133 174.65C241.133 174.23 241.286 173.894 241.592 173.642C241.898 173.384 242.384 173.255 243.05 173.255H244.418V173.084C244.418 172.712 244.31 172.427 244.094 172.229C243.878 172.031 243.56 171.932 243.14 171.932C242.858 171.932 242.582 171.98 242.312 172.076C242.042 172.166 241.814 172.289 241.628 172.445L241.268 171.797C241.514 171.599 241.808 171.449 242.15 171.347C242.492 171.239 242.855 171.185 243.239 171.185ZM243.041 175.388C243.371 175.388 243.656 175.316 243.896 175.172C244.136 175.022 244.31 174.812 244.418 174.542V173.876H243.086C242.354 173.876 241.988 174.122 241.988 174.614C241.988 174.854 242.081 175.043 242.267 175.181C242.453 175.319 242.711 175.388 243.041 175.388ZM249.428 171.185C250.034 171.185 250.514 171.362 250.868 171.716C251.228 172.064 251.408 172.577 251.408 173.255V176H250.544V173.354C250.544 172.892 250.433 172.544 250.211 172.31C249.989 172.076 249.671 171.959 249.257 171.959C248.789 171.959 248.42 172.097 248.15 172.373C247.88 172.643 247.745 173.033 247.745 173.543V176H246.881V171.23H247.709V171.95C247.883 171.704 248.117 171.515 248.411 171.383C248.711 171.251 249.05 171.185 249.428 171.185ZM255.689 175.721C255.563 175.829 255.407 175.913 255.221 175.973C255.035 176.027 254.843 176.054 254.645 176.054C254.165 176.054 253.793 175.925 253.529 175.667C253.265 175.409 253.133 175.04 253.133 174.56V171.941H252.323V171.23H253.133V170.186H253.997V171.23H255.365V171.941H253.997V174.524C253.997 174.782 254.06 174.98 254.186 175.118C254.318 175.256 254.504 175.325 254.744 175.325C255.008 175.325 255.233 175.25 255.419 175.1L255.689 175.721ZM260.886 173.642C260.886 173.708 260.88 173.795 260.868 173.903H256.998C257.052 174.323 257.235 174.662 257.547 174.92C257.865 175.172 258.258 175.298 258.726 175.298C259.296 175.298 259.755 175.106 260.103 174.722L260.58 175.28C260.364 175.532 260.094 175.724 259.77 175.856C259.452 175.988 259.095 176.054 258.699 176.054C258.195 176.054 257.748 175.952 257.358 175.748C256.968 175.538 256.665 175.247 256.449 174.875C256.239 174.503 256.134 174.083 256.134 173.615C256.134 173.153 256.236 172.736 256.44 172.364C256.65 171.992 256.935 171.704 257.295 171.5C257.661 171.29 258.072 171.185 258.528 171.185C258.984 171.185 259.389 171.29 259.743 171.5C260.103 171.704 260.382 171.992 260.58 172.364C260.784 172.736 260.886 173.162 260.886 173.642ZM258.528 171.914C258.114 171.914 257.766 172.04 257.484 172.292C257.208 172.544 257.046 172.874 256.998 173.282H260.058C260.01 172.88 259.845 172.553 259.563 172.301C259.287 172.043 258.942 171.914 258.528 171.914ZM266.397 173.642C266.397 173.708 266.391 173.795 266.379 173.903H262.509C262.563 174.323 262.746 174.662 263.058 174.92C263.376 175.172 263.769 175.298 264.237 175.298C264.807 175.298 265.266 175.106 265.614 174.722L266.091 175.28C265.875 175.532 265.605 175.724 265.281 175.856C264.963 175.988 264.606 176.054 264.21 176.054C263.706 176.054 263.259 175.952 262.869 175.748C262.479 175.538 262.176 175.247 261.96 174.875C261.75 174.503 261.645 174.083 261.645 173.615C261.645 173.153 261.747 172.736 261.951 172.364C262.161 171.992 262.446 171.704 262.806 171.5C263.172 171.29 263.583 171.185 264.039 171.185C264.495 171.185 264.9 171.29 265.254 171.5C265.614 171.704 265.893 171.992 266.091 172.364C266.295 172.736 266.397 173.162 266.397 173.642ZM264.039 171.914C263.625 171.914 263.277 172.04 262.995 172.292C262.719 172.544 262.557 172.874 262.509 173.282H265.569C265.521 172.88 265.356 172.553 265.074 172.301C264.798 172.043 264.453 171.914 264.039 171.914ZM271.759 169.979C271.243 169.979 270.985 170.258 270.985 170.816V171.23H272.371V171.941H271.003V176H270.139V171.941H269.329V171.23H270.139V170.807C270.139 170.333 270.277 169.958 270.553 169.682C270.829 169.406 271.216 169.268 271.714 169.268C271.906 169.268 272.086 169.292 272.254 169.34C272.422 169.388 272.566 169.457 272.686 169.547L272.425 170.204C272.227 170.054 272.005 169.979 271.759 169.979ZM277.632 171.23V176H276.813V175.28C276.639 175.526 276.408 175.718 276.12 175.856C275.838 175.988 275.529 176.054 275.193 176.054C274.557 176.054 274.056 175.88 273.69 175.532C273.324 175.178 273.141 174.659 273.141 173.975V171.23H274.005V173.876C274.005 174.338 274.116 174.689 274.338 174.929C274.56 175.163 274.878 175.28 275.292 175.28C275.748 175.28 276.108 175.142 276.372 174.866C276.636 174.59 276.768 174.2 276.768 173.696V171.23H277.632ZM281.959 175.721C281.833 175.829 281.677 175.913 281.491 175.973C281.305 176.027 281.113 176.054 280.915 176.054C280.435 176.054 280.063 175.925 279.799 175.667C279.535 175.409 279.403 175.04 279.403 174.56V171.941H278.593V171.23H279.403V170.186H280.267V171.23H281.635V171.941H280.267V174.524C280.267 174.782 280.33 174.98 280.456 175.118C280.588 175.256 280.774 175.325 281.014 175.325C281.278 175.325 281.503 175.25 281.689 175.1L281.959 175.721ZM287.45 171.23V176H286.631V175.28C286.457 175.526 286.226 175.718 285.938 175.856C285.656 175.988 285.347 176.054 285.011 176.054C284.375 176.054 283.874 175.88 283.508 175.532C283.142 175.178 282.959 174.659 282.959 173.975V171.23H283.823V173.876C283.823 174.338 283.934 174.689 284.156 174.929C284.378 175.163 284.696 175.28 285.11 175.28C285.566 175.28 285.926 175.142 286.19 174.866C286.454 174.59 286.586 174.2 286.586 173.696V171.23H287.45ZM289.922 172.031C290.072 171.755 290.294 171.545 290.588 171.401C290.882 171.257 291.239 171.185 291.659 171.185V172.022C291.611 172.016 291.545 172.013 291.461 172.013C290.993 172.013 290.624 172.154 290.354 172.436C290.09 172.712 289.958 173.108 289.958 173.624V176H289.094V171.23H289.922V172.031ZM296.991 173.642C296.991 173.708 296.985 173.795 296.973 173.903H293.103C293.157 174.323 293.34 174.662 293.652 174.92C293.97 175.172 294.363 175.298 294.831 175.298C295.401 175.298 295.86 175.106 296.208 174.722L296.685 175.28C296.469 175.532 296.199 175.724 295.875 175.856C295.557 175.988 295.2 176.054 294.804 176.054C294.3 176.054 293.853 175.952 293.463 175.748C293.073 175.538 292.77 175.247 292.554 174.875C292.344 174.503 292.239 174.083 292.239 173.615C292.239 173.153 292.341 172.736 292.545 172.364C292.755 171.992 293.04 171.704 293.4 171.5C293.766 171.29 294.177 171.185 294.633 171.185C295.089 171.185 295.494 171.29 295.848 171.5C296.208 171.704 296.487 171.992 296.685 172.364C296.889 172.736 296.991 173.162 296.991 173.642ZM294.633 171.914C294.219 171.914 293.871 172.04 293.589 172.292C293.313 172.544 293.151 172.874 293.103 173.282H296.163C296.115 172.88 295.95 172.553 295.668 172.301C295.392 172.043 295.047 171.914 294.633 171.914ZM301.436 172.031C301.586 171.755 301.808 171.545 302.102 171.401C302.396 171.257 302.753 171.185 303.173 171.185V172.022C303.125 172.016 303.059 172.013 302.975 172.013C302.507 172.013 302.138 172.154 301.868 172.436C301.604 172.712 301.472 173.108 301.472 173.624V176H300.608V171.23H301.436V172.031ZM308.505 173.642C308.505 173.708 308.499 173.795 308.487 173.903H304.617C304.671 174.323 304.854 174.662 305.166 174.92C305.484 175.172 305.877 175.298 306.345 175.298C306.915 175.298 307.374 175.106 307.722 174.722L308.199 175.28C307.983 175.532 307.713 175.724 307.389 175.856C307.071 175.988 306.714 176.054 306.318 176.054C305.814 176.054 305.367 175.952 304.977 175.748C304.587 175.538 304.284 175.247 304.068 174.875C303.858 174.503 303.753 174.083 303.753 173.615C303.753 173.153 303.855 172.736 304.059 172.364C304.269 171.992 304.554 171.704 304.914 171.5C305.28 171.29 305.691 171.185 306.147 171.185C306.603 171.185 307.008 171.29 307.362 171.5C307.722 171.704 308.001 171.992 308.199 172.364C308.403 172.736 308.505 173.162 308.505 173.642ZM306.147 171.914C305.733 171.914 305.385 172.04 305.103 172.292C304.827 172.544 304.665 172.874 304.617 173.282H307.677C307.629 172.88 307.464 172.553 307.182 172.301C306.906 172.043 306.561 171.914 306.147 171.914ZM311.073 176.054C310.683 176.054 310.308 176.003 309.948 175.901C309.588 175.793 309.306 175.658 309.102 175.496L309.462 174.812C309.672 174.962 309.927 175.082 310.227 175.172C310.527 175.262 310.83 175.307 311.136 175.307C311.892 175.307 312.27 175.091 312.27 174.659C312.27 174.515 312.219 174.401 312.117 174.317C312.015 174.233 311.886 174.173 311.73 174.137C311.58 174.095 311.364 174.05 311.082 174.002C310.698 173.942 310.383 173.873 310.137 173.795C309.897 173.717 309.69 173.585 309.516 173.399C309.342 173.213 309.255 172.952 309.255 172.616C309.255 172.184 309.435 171.839 309.795 171.581C310.155 171.317 310.638 171.185 311.244 171.185C311.562 171.185 311.88 171.224 312.198 171.302C312.516 171.38 312.777 171.485 312.981 171.617L312.612 172.301C312.222 172.049 311.763 171.923 311.235 171.923C310.869 171.923 310.59 171.983 310.398 172.103C310.206 172.223 310.11 172.382 310.11 172.58C310.11 172.736 310.164 172.859 310.272 172.949C310.38 173.039 310.512 173.105 310.668 173.147C310.83 173.189 311.055 173.237 311.343 173.291C311.727 173.357 312.036 173.429 312.27 173.507C312.51 173.579 312.714 173.705 312.882 173.885C313.05 174.065 313.134 174.317 313.134 174.641C313.134 175.073 312.948 175.418 312.576 175.676C312.21 175.928 311.709 176.054 311.073 176.054ZM318.66 171.23V176H317.841V175.28C317.667 175.526 317.436 175.718 317.148 175.856C316.866 175.988 316.557 176.054 316.221 176.054C315.585 176.054 315.084 175.88 314.718 175.532C314.352 175.178 314.169 174.659 314.169 173.975V171.23H315.033V173.876C315.033 174.338 315.144 174.689 315.366 174.929C315.588 175.163 315.906 175.28 316.32 175.28C316.776 175.28 317.136 175.142 317.4 174.866C317.664 174.59 317.796 174.2 317.796 173.696V171.23H318.66ZM320.304 169.322H321.168V176H320.304V169.322ZM325.614 175.721C325.488 175.829 325.332 175.913 325.146 175.973C324.96 176.027 324.768 176.054 324.57 176.054C324.09 176.054 323.718 175.925 323.454 175.667C323.19 175.409 323.058 175.04 323.058 174.56V171.941H322.248V171.23H323.058V170.186H323.922V171.23H325.29V171.941H323.922V174.524C323.922 174.782 323.985 174.98 324.111 175.118C324.243 175.256 324.429 175.325 324.669 175.325C324.933 175.325 325.158 175.25 325.344 175.1L325.614 175.721ZM328.027 176.054C327.637 176.054 327.262 176.003 326.902 175.901C326.542 175.793 326.26 175.658 326.056 175.496L326.416 174.812C326.626 174.962 326.881 175.082 327.181 175.172C327.481 175.262 327.784 175.307 328.09 175.307C328.846 175.307 329.224 175.091 329.224 174.659C329.224 174.515 329.173 174.401 329.071 174.317C328.969 174.233 328.84 174.173 328.684 174.137C328.534 174.095 328.318 174.05 328.036 174.002C327.652 173.942 327.337 173.873 327.091 173.795C326.851 173.717 326.644 173.585 326.47 173.399C326.296 173.213 326.209 172.952 326.209 172.616C326.209 172.184 326.389 171.839 326.749 171.581C327.109 171.317 327.592 171.185 328.198 171.185C328.516 171.185 328.834 171.224 329.152 171.302C329.47 171.38 329.731 171.485 329.935 171.617L329.566 172.301C329.176 172.049 328.717 171.923 328.189 171.923C327.823 171.923 327.544 171.983 327.352 172.103C327.16 172.223 327.064 172.382 327.064 172.58C327.064 172.736 327.118 172.859 327.226 172.949C327.334 173.039 327.466 173.105 327.622 173.147C327.784 173.189 328.009 173.237 328.297 173.291C328.681 173.357 328.99 173.429 329.224 173.507C329.464 173.579 329.668 173.705 329.836 173.885C330.004 174.065 330.088 174.317 330.088 174.641C330.088 175.073 329.902 175.418 329.53 175.676C329.164 175.928 328.663 176.054 328.027 176.054ZM331.375 176.054C331.207 176.054 331.063 175.997 330.943 175.883C330.823 175.763 330.763 175.613 330.763 175.433C330.763 175.259 330.823 175.115 330.943 175.001C331.063 174.881 331.207 174.821 331.375 174.821C331.543 174.821 331.684 174.878 331.798 174.992C331.912 175.106 331.969 175.253 331.969 175.433C331.969 175.613 331.909 175.763 331.789 175.883C331.675 175.997 331.537 176.054 331.375 176.054Z" fill="white"/>
<defs>
<linearGradient id="paint0_linear" x1="901" y1="-0.000159981" x2="-5.2636" y2="171.124" gradientUnits="userSpaceOnUse">
<stop stop-color="#FFA9D0"/>
<stop offset="1" stop-color="#E7227A"/>
</linearGradient>
<linearGradient id="paint1_linear" x1="901" y1="-0.000159981" x2="-5.2636" y2="171.124" gradientUnits="userSpaceOnUse">
<stop stop-color="#FFA9D0"/>
<stop offset="1" stop-color="#EB1C79"/>
</linearGradient>
</defs>
</svg>
