<svg width="16" height="16" viewBox="0 0 16 16" fill="none" xmlns="http://www.w3.org/2000/svg">
<path opacity="0.8" fill-rule="evenodd" clip-rule="evenodd" d="M8 16C12.4183 16 16 12.4183 16 8C16 3.58172 12.4183 0 8 0C3.58172 0 0 3.58172 0 8C0 12.4183 3.58172 16 8 16ZM7.57101 5.0137C7.68101 5.1237 7.81301 5.1787 7.96701 5.1787H8.03301C8.18701 5.1787 8.31901 5.1237 8.42901 5.0137C8.53901 4.9037 8.59401 4.7717 8.59401 4.6177V4.5737C8.59401 4.4197 8.53901 4.28769 8.42901 4.1777C8.31901 4.0677 8.18701 4.0127 8.03301 4.0127H7.96701C7.81301 4.0127 7.68101 4.0677 7.57101 4.1777C7.46101 4.28769 7.40601 4.4197 7.40601 4.5737V4.6177C7.40601 4.7717 7.46101 4.9037 7.57101 5.0137ZM7.63701 11.8447C7.73234 11.94 7.84967 11.9877 7.98901 11.9877C8.12834 11.9877 8.24567 11.94 8.34101 11.8447C8.44367 11.7494 8.49501 11.632 8.49501 11.4927V6.7737C8.49501 6.62703 8.44734 6.50603 8.35201 6.4107C8.25667 6.31536 8.13567 6.2677 7.98901 6.2677C7.84967 6.2677 7.73234 6.31903 7.63701 6.42169C7.54167 6.51703 7.49401 6.63436 7.49401 6.7737V11.4927C7.49401 11.632 7.54167 11.7494 7.63701 11.8447Z" fill="#197CD8"/>
</svg>
