<svg width="16" height="16" viewBox="0 0 16 16" fill="none" xmlns="http://www.w3.org/2000/svg">
<path fill-rule="evenodd" clip-rule="evenodd" d="M16 8C16 12.4183 12.4183 16 8 16C3.58172 16 0 12.4183 0 8C0 3.58172 3.58172 0 8 0C12.4183 0 16 3.58172 16 8ZM7 3.94118C7 3.42138 7.42138 3 7.94118 3C8.46097 3 8.88235 3.42138 8.88235 3.94118V8.64706C8.88235 9.16686 8.46097 9.58824 7.94118 9.58824C7.42138 9.58824 7 9.16686 7 8.64706V3.94118ZM7.94118 10.8431C7.42138 10.8431 7 11.2645 7 11.7843C7 12.3041 7.42138 12.7255 7.94118 12.7255C8.46097 12.7255 8.88235 12.3041 8.88235 11.7843C8.88235 11.2645 8.46097 10.8431 7.94118 10.8431Z" fill="#197CD8"/>
</svg>
