<svg width="6" height="6" viewBox="0 0 6 6" fill="none" xmlns="http://www.w3.org/2000/svg">
<path fill-rule="evenodd" clip-rule="evenodd" d="M0 0.5C0 0.223858 0.223858 0 0.5 0H5C5.27614 0 5.5 0.223858 5.5 0.5V5C5.5 5.27614 5.27614 5.5 5 5.5C4.72386 5.5 4.5 5.27614 4.5 5V1.70711L4.35385 1.85326L4.35355 1.85355L1.35355 4.85355C1.15829 5.04882 0.841709 5.04882 0.646447 4.85355C0.451184 4.65829 0.451184 4.34171 0.646447 4.14645L3.64645 1.14645L3.64649 1.1464L3.79289 1L0.5 1C0.223858 1 0 0.776143 0 0.5Z" fill="white"/>
</svg>
