<svg width="10" height="18" viewBox="0 0 10 18" fill="none" xmlns="http://www.w3.org/2000/svg">
<path d="M9.35355 1.35355C9.54882 1.15829 9.54882 0.841709 9.35355 0.646447C9.15829 0.451184 8.84171 0.451184 8.64645 0.646447L9.35355 1.35355ZM8.64644 17.3536C8.84171 17.5488 9.15829 17.5488 9.35355 17.3536C9.54881 17.1583 9.54881 16.8417 9.35355 16.6464L8.64644 17.3536ZM1.35355 9.35355L0.999998 9.7071L1.35355 9.35355ZM8.64645 0.646447L0.999997 8.29289L1.7071 9L9.35355 1.35355L8.64645 0.646447ZM0.999998 9.7071L8.64644 17.3536L9.35355 16.6464L1.7071 9L0.999998 9.7071ZM0.999997 8.29289C0.609473 8.68342 0.609474 9.31658 0.999998 9.7071L1.7071 9L1.7071 9L0.999997 8.29289Z" fill="white"/>
</svg>
