<svg width="10" height="18" viewBox="0 0 10 18" fill="none" xmlns="http://www.w3.org/2000/svg">
<path d="M0.646447 16.6464C0.451184 16.8417 0.451184 17.1583 0.646447 17.3536C0.841709 17.5488 1.15829 17.5488 1.35355 17.3536L0.646447 16.6464ZM1.35356 0.646446C1.15829 0.451185 0.841711 0.451185 0.646449 0.646446C0.451187 0.841709 0.451187 1.15829 0.646449 1.35355L1.35356 0.646446ZM8.64645 8.64645L9 8.29289L8.64645 8.64645ZM1.35355 17.3536L9 9.70711L8.29289 9L0.646447 16.6464L1.35355 17.3536ZM9 8.29289L1.35356 0.646446L0.646449 1.35355L8.29289 9L9 8.29289ZM9 9.70711C9.39053 9.31658 9.39053 8.68342 9 8.29289L8.29289 9L8.29289 9L9 9.70711Z" fill="#0A0A1E"/>
</svg>
