<svg width="12" height="12" viewBox="0 0 12 12" fill="none" xmlns="http://www.w3.org/2000/svg">
<path d="M4.09854 8.92218L3.07559 7.89924L10.577 0.17053L11.9978 0L11.8272 1.42074L4.09854 8.92218Z" fill="white"/>
<path d="M3.07502 9.03536C3.7609 9.72279 4.67135 10.1403 5.63982 10.2115L5.65115 9.15371C4.93756 9.24358 4.27188 8.93478 3.72386 8.38684C3.17583 7.83889 2.86696 7.17282 2.95682 6.45938L1.89902 6.47056C1.97022 7.43899 2.38767 8.34943 3.07502 9.03536Z" fill="white"/>
<path d="M0.803704 11.9999C1.24758 11.9999 1.60741 11.6401 1.60741 11.1962C1.60741 10.7523 1.24758 10.3925 0.803704 10.3925C0.359831 10.3925 0 10.7523 0 11.1962C0 11.6401 0.359831 11.9999 0.803704 11.9999Z" fill="white"/>
<path d="M1.42841 11.3659L0.632812 10.5703L2.90597 8.06982L3.92891 9.09277L1.42841 11.3659Z" fill="white"/>
<path d="M7.89924 8.92218L8.92218 7.89924L1.42074 0.17053L0 0L0.17053 1.42074L7.89924 8.92218Z" fill="white"/>
<path d="M8.923 9.03536C8.23712 9.72279 7.32666 10.1403 6.3582 10.2115L6.34686 9.15371C7.06046 9.24358 7.72614 8.93478 8.27416 8.38684C8.82219 7.83889 9.13106 7.17282 9.04119 6.45938L10.0991 6.47063C10.0278 7.43905 9.61036 8.34947 8.923 9.03536Z" fill="white"/>
<path d="M11.1941 11.9999C11.638 11.9999 11.9978 11.6401 11.9978 11.1962C11.9978 10.7523 11.638 10.3925 11.1941 10.3925C10.7503 10.3925 10.3904 10.7523 10.3904 11.1962C10.3904 11.6401 10.7503 11.9999 11.1941 11.9999Z" fill="white"/>
<path d="M10.5699 11.3659L11.3655 10.5703L9.09239 8.06982L8.06952 9.09277L10.5699 11.3659Z" fill="white"/>
</svg>
