<svg width="66" height="15" viewBox="0 0 66 15" fill="none" xmlns="http://www.w3.org/2000/svg">
<path d="M22.916 12.072C22.396 12.072 21.896 12.004 21.416 11.868C20.936 11.724 20.56 11.544 20.288 11.328L20.768 10.416C21.048 10.616 21.388 10.776 21.788 10.896C22.188 11.016 22.592 11.076 23 11.076C24.008 11.076 24.512 10.788 24.512 10.212C24.512 10.02 24.444 9.868 24.308 9.756C24.172 9.644 24 9.564 23.792 9.516C23.592 9.46 23.304 9.4 22.928 9.336C22.416 9.256 21.996 9.164 21.668 9.06C21.348 8.956 21.072 8.78 20.84 8.532C20.608 8.284 20.492 7.936 20.492 7.488C20.492 6.912 20.732 6.452 21.212 6.108C21.692 5.756 22.336 5.58 23.144 5.58C23.568 5.58 23.992 5.632 24.416 5.736C24.84 5.84 25.188 5.98 25.46 6.156L24.968 7.068C24.448 6.732 23.836 6.564 23.132 6.564C22.644 6.564 22.272 6.644 22.016 6.804C21.76 6.964 21.632 7.176 21.632 7.44C21.632 7.648 21.704 7.812 21.848 7.932C21.992 8.052 22.168 8.14 22.376 8.196C22.592 8.252 22.892 8.316 23.276 8.388C23.788 8.476 24.2 8.572 24.512 8.676C24.832 8.772 25.104 8.94 25.328 9.18C25.552 9.42 25.664 9.756 25.664 10.188C25.664 10.764 25.416 11.224 24.92 11.568C24.432 11.904 23.764 12.072 22.916 12.072ZM30.6797 11.628C30.5117 11.772 30.3037 11.884 30.0557 11.964C29.8077 12.036 29.5517 12.072 29.2877 12.072C28.6477 12.072 28.1517 11.9 27.7997 11.556C27.4477 11.212 27.2717 10.72 27.2717 10.08V6.588H26.1917V5.64H27.2717V4.248H28.4237V5.64H30.2477V6.588H28.4237V10.032C28.4237 10.376 28.5077 10.64 28.6757 10.824C28.8517 11.008 29.0997 11.1 29.4197 11.1C29.7717 11.1 30.0717 11 30.3197 10.8L30.6797 11.628ZM34.3885 5.58C35.2685 5.58 35.9405 5.796 36.4045 6.228C36.8765 6.66 37.1125 7.304 37.1125 8.16V12H36.0205V11.16C35.8285 11.456 35.5525 11.684 35.1925 11.844C34.8405 11.996 34.4205 12.072 33.9325 12.072C33.2205 12.072 32.6485 11.9 32.2165 11.556C31.7925 11.212 31.5805 10.76 31.5805 10.2C31.5805 9.64 31.7845 9.192 32.1925 8.856C32.6005 8.512 33.2485 8.34 34.1365 8.34H35.9605V8.112C35.9605 7.616 35.8165 7.236 35.5285 6.972C35.2405 6.708 34.8165 6.576 34.2565 6.576C33.8805 6.576 33.5125 6.64 33.1525 6.768C32.7925 6.888 32.4885 7.052 32.2405 7.26L31.7605 6.396C32.0885 6.132 32.4805 5.932 32.9365 5.796C33.3925 5.652 33.8765 5.58 34.3885 5.58ZM34.1245 11.184C34.5645 11.184 34.9445 11.088 35.2645 10.896C35.5845 10.696 35.8165 10.416 35.9605 10.056V9.168H34.1845C33.2085 9.168 32.7205 9.496 32.7205 10.152C32.7205 10.472 32.8445 10.724 33.0925 10.908C33.3405 11.092 33.6845 11.184 34.1245 11.184ZM41.7163 9.036L40.3963 10.26V12H39.2443V3.096H40.3963V8.808L43.8643 5.64H45.2563L42.5803 8.268L45.5203 12H44.1043L41.7163 9.036ZM46.5568 5.64H47.7088V12H46.5568V5.64ZM47.1328 4.416C46.9088 4.416 46.7208 4.344 46.5688 4.2C46.4248 4.056 46.3528 3.88 46.3528 3.672C46.3528 3.464 46.4248 3.288 46.5688 3.144C46.7208 2.992 46.9088 2.916 47.1328 2.916C47.3568 2.916 47.5408 2.988 47.6848 3.132C47.8368 3.268 47.9128 3.44 47.9128 3.648C47.9128 3.864 47.8368 4.048 47.6848 4.2C47.5408 4.344 47.3568 4.416 47.1328 4.416ZM53.3044 5.58C54.1124 5.58 54.7524 5.816 55.2244 6.288C55.7044 6.752 55.9444 7.436 55.9444 8.34V12H54.7924V8.472C54.7924 7.856 54.6444 7.392 54.3484 7.08C54.0524 6.768 53.6284 6.612 53.0764 6.612C52.4524 6.612 51.9604 6.796 51.6004 7.164C51.2404 7.524 51.0604 8.044 51.0604 8.724V12H49.9084V5.64H51.0124V6.6C51.2444 6.272 51.5564 6.02 51.9484 5.844C52.3484 5.668 52.8004 5.58 53.3044 5.58ZM64.1955 5.64V11.136C64.1955 12.248 63.9195 13.068 63.3675 13.596C62.8155 14.132 61.9915 14.4 60.8955 14.4C60.2955 14.4 59.7235 14.316 59.1795 14.148C58.6355 13.988 58.1955 13.756 57.8595 13.452L58.4115 12.564C58.7075 12.82 59.0715 13.02 59.5035 13.164C59.9435 13.316 60.3955 13.392 60.8595 13.392C61.6035 13.392 62.1515 13.216 62.5035 12.864C62.8635 12.512 63.0435 11.976 63.0435 11.256V10.752C62.7715 11.08 62.4355 11.328 62.0355 11.496C61.6435 11.656 61.2155 11.736 60.7515 11.736C60.1435 11.736 59.5915 11.608 59.0955 11.352C58.6075 11.088 58.2235 10.724 57.9435 10.26C57.6635 9.788 57.5235 9.252 57.5235 8.652C57.5235 8.052 57.6635 7.52 57.9435 7.056C58.2235 6.584 58.6075 6.22 59.0955 5.964C59.5915 5.708 60.1435 5.58 60.7515 5.58C61.2315 5.58 61.6755 5.668 62.0835 5.844C62.4995 6.02 62.8395 6.28 63.1035 6.624V5.64H64.1955ZM60.8835 10.728C61.2995 10.728 61.6715 10.64 61.9995 10.464C62.3355 10.288 62.5955 10.044 62.7795 9.732C62.9715 9.412 63.0675 9.052 63.0675 8.652C63.0675 8.036 62.8635 7.54 62.4555 7.164C62.0475 6.78 61.5235 6.588 60.8835 6.588C60.2355 6.588 59.7075 6.78 59.2995 7.164C58.8915 7.54 58.6875 8.036 58.6875 8.652C58.6875 9.052 58.7795 9.412 58.9635 9.732C59.1555 10.044 59.4155 10.288 59.7435 10.464C60.0795 10.64 60.4595 10.728 60.8835 10.728Z" fill="#0A0A1E"/>
<path d="M3.41627 10.4348L2.56369 9.58222L8.81583 3.14067L9.99996 2.99854L9.85783 4.18267L3.41627 10.4348Z" fill="#0A0A1E"/>
<path d="M2.56301 10.529C3.13466 11.102 3.89348 11.45 4.70066 11.5093L4.7101 10.6277C4.11535 10.7026 3.56054 10.4452 3.10378 9.98853C2.64703 9.53184 2.38959 8.9767 2.46449 8.38208L1.58286 8.39139C1.6422 9.19855 1.99013 9.95736 2.56301 10.529Z" fill="#0A0A1E"/>
<path d="M0.669854 13.0001C1.0398 13.0001 1.33971 12.7002 1.33971 12.3303C1.33971 11.9603 1.0398 11.6604 0.669854 11.6604C0.299904 11.6604 0 11.9603 0 12.3303C0 12.7002 0.299904 13.0001 0.669854 13.0001Z" fill="#0A0A1E"/>
<path d="M1.19014 12.4715L0.527039 11.8084L2.42162 9.72437L3.2742 10.5769L1.19014 12.4715Z" fill="#0A0A1E"/>
<path d="M6.58369 10.4348L7.43627 9.58222L1.18413 3.14067L0 2.99854L0.14213 4.18267L6.58369 10.4348Z" fill="#0A0A1E"/>
<path d="M7.43702 10.529C6.86537 11.102 6.10654 11.45 5.29936 11.5093L5.28992 10.6277C5.88467 10.7026 6.43948 10.4452 6.89624 9.98853C7.353 9.53184 7.61043 8.9767 7.53553 8.38208L8.41723 8.39146C8.35786 9.1986 8.0099 9.95739 7.43702 10.529Z" fill="#0A0A1E"/>
<path d="M9.33013 13.0001C9.70008 13.0001 9.99998 12.7002 9.99998 12.3303C9.99998 11.9603 9.70008 11.6604 9.33013 11.6604C8.96018 11.6604 8.66028 11.9603 8.66028 12.3303C8.66028 12.7002 8.96018 13.0001 9.33013 13.0001Z" fill="#0A0A1E"/>
<path d="M8.8098 12.4715L9.4729 11.8084L7.57832 9.72437L6.7258 10.5769L8.8098 12.4715Z" fill="#0A0A1E"/>
</svg>
