<svg width="343" height="184" viewBox="0 0 343 184" fill="none" xmlns="http://www.w3.org/2000/svg" xmlns:xlink="http://www.w3.org/1999/xlink">
<rect width="343" height="184" rx="10" fill="url(#paint0_linear_1110_91)"/>
<mask id="mask0_1110_91" style="mask-type:alpha" maskUnits="userSpaceOnUse" x="0" y="0" width="343" height="184">
<rect width="343" height="184" rx="10" fill="url(#paint1_linear_1110_91)"/>
</mask>
<g mask="url(#mask0_1110_91)">
<path d="M296.326 16.0004L279.258 44.4848C279.115 44.7222 279.193 45.0301 279.431 45.1716L295.571 54.7667C295.904 54.9649 296.326 54.7247 296.326 54.3369V16.0004ZM296.326 16.0004C296.326 16.0002 296.326 16.0004 296.326 16.0004ZM251.855 -6.9997L240.258 12.3537C240.115 12.5911 240.193 12.899 240.431 13.0405L251.099 19.3828M251.855 -6.9997V18.953M251.855 -6.9997C251.855 -6.99988 251.855 -6.9997 251.855 -6.9997ZM251.099 19.3828C251.433 19.5809 251.855 19.3407 251.855 18.953M251.099 19.3828L240.819 13.266C240.473 13.0599 240.5 12.5495 240.867 12.3817L251.148 7.67599C251.479 7.5244 251.856 7.76641 251.856 8.13062L251.855 18.953M273.366 85.0005V130.217C273.366 130.605 272.944 130.845 272.611 130.647L253.431 119.244C253.193 119.103 253.115 118.795 253.258 118.558L273.367 85.0008M273.366 85.0005L273.367 85.0008M273.366 85.0005C273.366 85.0002 273.366 85.0005 273.366 85.0005ZM273.367 85.0008C273.367 85.0005 273.368 85.0008 273.367 85.0008ZM215.062 26.0005V70.5289C215.062 70.9167 214.64 71.1569 214.307 70.9587L195.431 59.7371C195.193 59.5957 195.115 59.2878 195.258 59.0503L215.063 26.0008M215.062 26.0005L215.063 26.0008M215.062 26.0005C215.062 26.0002 215.062 26.0005 215.062 26.0005ZM215.063 26.0008C215.063 26.0004 215.064 26.0008 215.063 26.0008ZM178.247 92.0003L167.258 110.339C167.115 110.577 167.193 110.884 167.431 111.026L177.491 117.007M178.247 92.0003V116.577M178.247 92.0003C178.247 92.0001 178.247 92.0003 178.247 92.0003ZM177.491 117.007C177.825 117.205 178.247 116.965 178.247 116.577M177.491 117.007L167.819 111.252C167.473 111.046 167.5 110.535 167.867 110.367L177.54 105.94C177.871 105.788 178.248 106.03 178.248 106.395L178.247 116.577M336.207 60.0002L328.258 73.2662C328.115 73.5037 328.193 73.8116 328.431 73.953L335.452 78.1268M336.207 60.0002V77.697M336.207 60.0002C336.207 60.0001 336.207 60.0002 336.207 60.0002ZM335.452 78.1268C335.785 78.3249 336.207 78.0847 336.207 77.697M335.452 78.1268L328.819 74.1803C328.473 73.9742 328.5 73.4638 328.867 73.296L335.5 70.26C335.831 70.1084 336.208 70.3504 336.208 70.7147L336.207 77.697M342.153 -23.9997L329.258 -2.48078C329.115 -2.24332 329.193 -1.93544 329.431 -1.79398L341.397 5.31978M342.153 -23.9997V4.89C342.153 5.27774 341.73 5.51793 341.397 5.31978M342.153 -23.9997C342.153 -23.9999 342.152 -23.9997 342.153 -23.9997ZM341.397 5.31978L329.819 -1.56901C329.473 -1.77515 329.5 -2.28556 329.867 -2.45336L341.445 -7.75304C341.777 -7.90462 342.154 -7.66262 342.154 -7.2984V4.88963C342.154 5.27744 341.73 5.51806 341.397 5.31978ZM235.199 142L220.258 166.934C220.115 167.171 220.193 167.479 220.431 167.621L234.443 175.951C234.776 176.149 235.199 175.909 235.199 175.521V142ZM235.199 142C235.199 142 235.198 142 235.199 142ZM320.23 128.001V184.225C320.23 184.613 319.808 184.853 319.474 184.655L295.431 170.361C295.193 170.219 295.115 169.912 295.258 169.674L320.231 128.001C320.231 128.001 320.23 128.001 320.23 128.001ZM320.23 128.001C320.23 128 320.229 128.001 320.23 128.001ZM314.122 45.1765L297.02 55.0415C296.841 55.1447 296.616 55.1165 296.468 54.9726C296.378 54.8857 296.328 54.7664 296.328 54.6419V17.3675C296.328 17.3187 296.335 17.2701 296.349 17.2233L296.397 17.0641C296.522 16.6513 297.075 16.5788 297.301 16.9456L314.297 44.4807C314.446 44.7207 314.366 45.0356 314.122 45.1765ZM313.179 50.2747L296.911 72.5065C296.758 72.7158 296.433 72.668 296.346 72.4233C296.334 72.3888 296.328 72.3525 296.328 72.3159V59.1465C296.328 59.0294 296.369 58.916 296.444 58.8261L296.492 58.7682C296.53 58.7227 296.576 58.6843 296.628 58.6548L312.527 49.5456C312.995 49.2773 313.497 49.8391 313.179 50.2747ZM281.014 49.5758L296.084 58.5539C296.235 58.6441 296.328 58.8073 296.328 58.9835V71.4206C296.328 71.9088 295.7 72.1076 295.419 71.7084L280.349 50.2931C280.038 49.8519 280.55 49.2997 281.014 49.5758ZM297.027 37.28L313.648 44.5086C314.026 44.6732 314.054 45.1994 313.694 45.4024L297.074 54.7943C296.741 54.9826 296.328 54.7418 296.328 54.359V37.7385C296.328 37.3784 296.697 37.1364 297.027 37.28ZM296.328 37.7546V54.3365C296.328 54.7244 295.905 54.9645 295.572 54.7663L279.819 45.3946C279.473 45.1884 279.5 44.678 279.867 44.5102L295.62 37.2999C295.951 37.1484 296.328 37.3904 296.328 37.7546ZM263.89 13.0441L252.329 19.7126C252.207 19.7832 252.053 19.7639 251.952 19.6654C251.89 19.606 251.856 19.5244 251.856 19.4392V-6.05725C251.856 -6.09537 251.862 -6.13327 251.873 -6.16977C251.97 -6.49183 252.401 -6.54839 252.578 -6.26217L264.065 12.3484C264.213 12.5883 264.134 12.9032 263.89 13.0441ZM262.947 17.0507L252.255 31.6623C252.15 31.8056 251.928 31.7728 251.869 31.6054C251.86 31.5818 251.856 31.557 251.856 31.5319V22.5558C251.856 22.4534 251.892 22.3542 251.958 22.2756C251.991 22.2357 252.031 22.2021 252.076 22.1764L262.295 16.3216C262.763 16.0532 263.265 16.615 262.947 17.0507ZM242.014 16.3518L251.612 22.0699C251.763 22.1601 251.856 22.3233 251.856 22.4995V30.4206C251.856 30.9088 251.228 31.1076 250.947 30.7084L241.349 17.0691C241.038 16.6279 241.55 16.0757 242.014 16.3518ZM252.555 7.65607L263.416 12.3795C263.794 12.5441 263.822 13.0703 263.462 13.2733L252.602 19.4103C252.269 19.5987 251.856 19.3579 251.856 18.975V8.11459C251.856 7.75448 252.225 7.51245 252.555 7.65607ZM294.362 119.25L274.154 130.907C273.96 131.019 273.715 130.988 273.555 130.832L273.519 130.797C273.423 130.703 273.368 130.574 273.368 130.439V86.5945C273.368 86.5457 273.375 86.4971 273.389 86.4503L273.506 86.0641C273.63 85.6513 274.183 85.5788 274.41 85.9456L294.537 118.554C294.686 118.794 294.606 119.109 294.362 119.25ZM293.419 124.955L274.053 151.42C273.873 151.666 273.491 151.61 273.39 151.322C273.375 151.282 273.368 151.239 273.368 151.196V135.684C273.368 135.567 273.409 135.454 273.484 135.364L273.571 135.259C273.609 135.214 273.655 135.175 273.707 135.146L292.767 124.226C293.235 123.957 293.737 124.519 293.419 124.955ZM255.014 124.256L273.124 135.045C273.275 135.135 273.368 135.298 273.368 135.475V150.421C273.368 150.909 272.74 151.108 272.459 150.708L254.349 124.973C254.038 124.532 254.55 123.98 255.014 124.256ZM274.067 109.96L293.888 118.58C294.266 118.745 294.294 119.271 293.934 119.474L274.114 130.674C273.781 130.863 273.368 130.622 273.368 130.239V110.419C273.368 110.058 273.737 109.816 274.067 109.96ZM273.368 110.435V130.217C273.368 130.604 272.945 130.845 272.612 130.646L253.819 119.466C253.473 119.26 253.5 118.749 253.867 118.582L272.66 109.98C272.991 109.828 273.368 110.07 273.368 110.435ZM235.738 59.7426L215.843 71.2189C215.649 71.3307 215.405 71.3002 215.244 71.1442L215.215 71.1161C215.119 71.0219 215.064 70.8927 215.064 70.7577V27.5718C215.064 27.523 215.071 27.4744 215.085 27.4276L215.195 27.0641C215.319 26.6513 215.873 26.5788 216.099 26.9456L235.913 59.0469C236.062 59.2868 235.982 59.6017 235.738 59.7426ZM234.795 65.3868L215.739 91.4286C215.562 91.671 215.185 91.6155 215.085 91.3323C215.071 91.2923 215.064 91.2503 215.064 91.2079V75.9305C215.064 75.8134 215.105 75.7 215.18 75.6101L215.264 75.5102C215.302 75.4647 215.347 75.4263 215.399 75.3968L234.143 64.6577C234.611 64.3893 235.113 64.9511 234.795 65.3868ZM197.014 64.6878L214.82 75.296C214.971 75.3861 215.064 75.5493 215.064 75.7255V90.4206C215.064 90.9089 214.436 91.1076 214.155 90.7084L196.349 65.4051C196.038 64.9639 196.55 64.4117 197.014 64.6878ZM215.763 50.592L235.264 59.0732C235.642 59.2378 235.67 59.764 235.31 59.967L215.81 70.9862C215.477 71.1746 215.064 70.9338 215.064 70.5509V51.0505C215.064 50.6904 215.433 50.4484 215.763 50.592ZM215.064 51.0666V70.5285C215.064 70.9163 214.641 71.1565 214.308 70.9582L195.819 59.9589C195.473 59.7527 195.5 59.2423 195.867 59.0745L214.356 50.6119C214.687 50.4604 215.064 50.7024 215.064 51.0666ZM189.642 111.029L178.697 117.343C178.581 117.41 178.435 117.391 178.339 117.298C178.281 117.242 178.248 117.164 178.248 117.083V92.8944C178.248 92.8582 178.253 92.8223 178.264 92.7877C178.356 92.4821 178.765 92.4285 178.933 92.7L189.817 110.334C189.965 110.574 189.886 110.889 189.642 111.029ZM188.699 114.915L178.626 128.68C178.527 128.816 178.316 128.784 178.26 128.626C178.252 128.603 178.248 128.58 178.248 128.556V120.04C178.248 119.943 178.282 119.849 178.344 119.774C178.376 119.736 178.414 119.705 178.457 119.68L188.047 114.186C188.515 113.917 189.017 114.479 188.699 114.915ZM169.014 114.216L178.004 119.572C178.155 119.662 178.248 119.825 178.248 120.001V127.421C178.248 127.909 177.62 128.108 177.339 127.708L168.349 114.933C168.038 114.492 168.55 113.94 169.014 114.216ZM178.947 105.92L189.168 110.365C189.546 110.53 189.574 111.056 189.214 111.259L178.994 117.034C178.661 117.223 178.248 116.982 178.248 116.599V106.379C178.248 106.018 178.617 105.776 178.947 105.92ZM344.402 73.9559L336.536 78.4933C336.451 78.5422 336.344 78.5289 336.274 78.4607C336.232 78.4195 336.208 78.363 336.208 78.304V60.6527C336.208 60.6263 336.212 60.6 336.219 60.5748C336.287 60.3518 336.586 60.3126 336.708 60.5108L344.577 73.2601C344.725 73.5001 344.646 73.815 344.402 73.9559ZM343.459 77.2347L336.484 86.7662C336.412 86.8654 336.258 86.8427 336.217 86.7268C336.211 86.7105 336.208 86.6933 336.208 86.676V80.4617C336.208 80.3908 336.233 80.3221 336.278 80.2677C336.301 80.2401 336.329 80.2169 336.36 80.199L342.806 76.5056C343.275 76.2372 343.777 76.799 343.459 77.2347ZM330.014 76.5358L335.964 80.0806C336.115 80.1708 336.208 80.3339 336.208 80.5101V85.4206C336.208 85.9088 335.58 86.1076 335.299 85.7084L329.349 77.2531C329.038 76.8119 329.55 76.2597 330.014 76.5358ZM336.907 70.2401L343.928 73.2934C344.306 73.458 344.334 73.9842 343.974 74.1873L336.954 78.1544C336.621 78.3427 336.208 78.1019 336.208 77.719V70.6986C336.208 70.3385 336.577 70.0965 336.907 70.2401ZM355.554 -1.79003L342.679 5.6366C342.543 5.71489 342.372 5.69351 342.26 5.58426C342.192 5.51832 342.154 5.42777 342.154 5.33321V-22.9541C342.154 -22.9963 342.16 -23.0384 342.172 -23.0789C342.28 -23.4362 342.759 -23.499 342.955 -23.1814L355.729 -2.48576C355.877 -2.24581 355.798 -1.93093 355.554 -1.79003ZM354.61 2.4755L342.596 18.8943C342.48 19.0532 342.233 19.0169 342.168 18.8312C342.158 18.805 342.154 18.7774 342.154 18.7497V8.79095C342.154 8.67733 342.194 8.5673 342.266 8.48007C342.303 8.43589 342.348 8.39862 342.398 8.37001L353.958 1.7464C354.427 1.47801 354.929 2.03981 354.61 2.4755ZM331.014 1.77656L341.909 8.26785C342.061 8.35802 342.154 8.52121 342.154 8.6974V17.6896C342.154 18.1778 341.526 18.3766 341.245 17.9773L330.349 2.49386C330.038 2.05268 330.55 1.50046 331.014 1.77656ZM342.853 -7.77295L355.08 -2.45539C355.458 -2.29082 355.485 -1.76458 355.126 -1.56157L342.9 5.34735C342.566 5.53569 342.154 5.29489 342.154 4.91204V-7.31444C342.154 -7.67455 342.523 -7.91658 342.853 -7.77295ZM250.754 167.625L235.807 176.247C235.65 176.337 235.452 176.313 235.322 176.186C235.244 176.11 235.2 176.006 235.2 175.896V143.209C235.2 143.16 235.207 143.111 235.221 143.064C235.346 142.652 235.899 142.579 236.126 142.946L250.929 166.929C251.077 167.169 250.998 167.484 250.754 167.625ZM249.811 172.299L235.711 191.567C235.577 191.751 235.292 191.709 235.216 191.494C235.205 191.464 235.2 191.432 235.2 191.4V179.87C235.2 179.753 235.241 179.64 235.316 179.55L235.337 179.524C235.375 179.479 235.421 179.44 235.472 179.411L249.159 171.57C249.627 171.301 250.129 171.863 249.811 172.299ZM222.014 171.6L234.956 179.31C235.107 179.4 235.2 179.564 235.2 179.74V190.421C235.2 190.909 234.572 191.108 234.291 190.708L221.349 172.317C221.038 171.876 221.55 171.324 222.014 171.6ZM235.899 160.704L250.28 166.958C250.658 167.123 250.686 167.649 250.326 167.852L235.946 175.978C235.613 176.167 235.2 175.926 235.2 175.543V161.163C235.2 160.802 235.569 160.56 235.899 160.704ZM235.2 161.179V175.521C235.2 175.908 234.777 176.149 234.444 175.95L220.819 167.845C220.473 167.638 220.5 167.128 220.867 166.96L234.492 160.724C234.823 160.572 235.2 160.814 235.2 161.179ZM346.346 170.368L321.127 184.915C320.933 185.027 320.689 184.996 320.529 184.84L320.383 184.699C320.287 184.605 320.232 184.476 320.232 184.341V129.958C320.232 129.909 320.239 129.86 320.253 129.814L320.479 129.064C320.603 128.651 321.157 128.579 321.383 128.946L346.521 169.672C346.67 169.912 346.59 170.227 346.346 170.368ZM345.403 177.043L321.081 210.281C320.858 210.586 320.385 210.517 320.259 210.16C320.241 210.11 320.232 210.057 320.232 210.004V190.745C320.232 190.628 320.273 190.514 320.348 190.424L320.498 190.245C320.536 190.2 320.582 190.161 320.633 190.132L344.751 176.314C345.219 176.045 345.721 176.607 345.403 177.043ZM297.014 176.344L319.988 190.031C320.139 190.121 320.232 190.284 320.232 190.46V209.421C320.232 209.909 319.604 210.108 319.323 209.708L296.349 177.061C296.038 176.62 296.55 176.068 297.014 176.344ZM320.932 158.848L345.872 169.695C346.25 169.86 346.278 170.386 345.918 170.589L320.978 184.682C320.645 184.871 320.232 184.63 320.232 184.247V159.306C320.232 158.946 320.601 158.704 320.932 158.848ZM320.232 159.323V184.224C320.232 184.612 319.809 184.852 319.476 184.654L295.819 170.58C295.473 170.374 295.5 169.864 295.867 169.696L319.524 158.868C319.855 158.716 320.232 158.958 320.232 159.323Z" stroke="url(#paint2_linear_1110_91)" stroke-opacity="0.2"/>
</g>
<rect x="303" y="16" width="24" height="24" rx="12" fill="#197CD8"/>
<path d="M313.099 30.9223L312.076 29.8993L319.577 22.1705L320.998 22L320.827 23.4208L313.099 30.9223Z" fill="white"/>
<path d="M312.075 31.0355C312.761 31.7229 313.671 32.1404 314.64 32.2116L314.651 31.1538C313.937 31.2437 313.272 30.9349 312.724 30.3869C312.176 29.839 311.867 29.1729 311.957 28.4595L310.899 28.4706C310.97 29.4391 311.388 30.3495 312.075 31.0355Z" fill="white"/>
<path d="M309.804 34C310.248 34 310.607 33.6402 310.607 33.1963C310.607 32.7524 310.248 32.3926 309.804 32.3926C309.36 32.3926 309 32.7524 309 33.1963C309 33.6402 309.36 34 309.804 34Z" fill="white"/>
<path d="M310.428 33.3662L309.633 32.5705L311.906 30.0701L312.929 31.093L310.428 33.3662Z" fill="white"/>
<path d="M316.899 30.9223L317.922 29.8993L310.421 22.1705L309 22L309.171 23.4208L316.899 30.9223Z" fill="white"/>
<path d="M317.923 31.0355C317.237 31.7229 316.327 32.1404 315.359 32.2116L315.347 31.1538C316.061 31.2437 316.726 30.9349 317.274 30.3869C317.823 29.839 318.131 29.1729 318.042 28.4595L319.099 28.4707C319.028 29.4392 318.611 30.3496 317.923 31.0355V31.0355Z" fill="white"/>
<path d="M320.194 34C320.638 34 320.998 33.6402 320.998 33.1963C320.998 32.7524 320.638 32.3926 320.194 32.3926C319.75 32.3926 319.391 32.7524 319.391 33.1963C319.391 33.6402 319.75 34 320.194 34Z" fill="white"/>
<path d="M319.57 33.3662L320.366 32.5705L318.093 30.0701L317.07 31.093L319.57 33.3662Z" fill="white"/>
<path d="M260.181 124.505C279.631 124.505 295.397 108.693 295.397 89.1877C295.397 69.6823 279.631 53.8701 260.181 53.8701C240.732 53.8701 224.965 69.6823 224.965 89.1877C224.965 108.693 240.732 124.505 260.181 124.505Z" fill="#E6E6E6"/>
<path d="M260.176 60.1902L259.788 61.5118V99.86L260.176 100.247L277.925 89.7296L260.176 60.1902Z" fill="#343434"/>
<path d="M260.176 60.1902L242.424 89.7296L260.174 100.253V60.1902H260.176Z" fill="#8C8C8C"/>
<path d="M260.176 103.617L259.957 103.888V117.545L260.176 118.185L277.936 93.1011L260.176 103.617Z" fill="#3C3C3B"/>
<path d="M260.176 118.185V103.617L242.424 93.1011L260.176 118.185Z" fill="#8C8C8C"/>
<path d="M260.175 100.248L277.925 89.7299L260.175 81.6348V100.248Z" fill="#141414"/>
<path d="M242.424 89.7298L260.174 100.252V81.6348L242.424 89.7298Z" fill="#393939"/>
<rect x="198" y="40" width="59.5468" height="59.7179" fill="url(#pattern0)"/>
<rect x="263.353" y="71.8342" width="66.9733" height="67.1657" fill="url(#pattern1)"/>
<path d="M227.797 84.8423C236.054 84.8423 242.747 78.1296 242.747 69.8491C242.747 61.5686 236.054 54.856 227.797 54.856C219.541 54.856 212.847 61.5686 212.847 69.8491C212.847 78.1296 219.541 84.8423 227.797 84.8423Z" fill="white"/>
<path d="M312.972 119.08L307.371 113.216C308.904 111.136 309.676 108.796 309.614 106.697H306.475C306.565 108.119 306.167 109.655 305.309 111.05L300.036 105.524L314.966 91.1957L315.473 86.75L311.036 87.2632L296.819 102.159L282.601 87.2632L278.169 86.75L278.681 91.2011L293.611 105.524L288.332 111.05C287.476 109.655 287.077 108.119 287.167 106.697H284.028C283.966 108.796 284.738 111.136 286.271 113.216L280.675 119.08C280.176 119.087 279.691 119.24 279.279 119.522C278.867 119.803 278.547 120.201 278.359 120.664C278.171 121.127 278.123 121.635 278.222 122.125C278.321 122.616 278.562 123.066 278.914 123.419C279.267 123.773 279.715 124.014 280.204 124.113C280.693 124.212 281.2 124.165 281.662 123.976C282.124 123.788 282.52 123.467 282.8 123.054C283.081 122.64 283.234 122.153 283.241 121.653L289.087 116.042C291.161 117.579 293.494 118.355 295.589 118.292V115.137C294.171 115.228 292.638 114.828 291.248 113.968L296.828 108.613L302.404 113.968C301.013 114.828 299.48 115.228 298.062 115.137V118.292C300.157 118.355 302.49 117.579 304.564 116.042L310.411 121.653C310.417 122.153 310.57 122.64 310.851 123.054C311.131 123.467 311.528 123.788 311.989 123.976C312.451 124.165 312.958 124.212 313.447 124.113C313.936 124.014 314.384 123.773 314.737 123.419C315.09 123.066 315.33 122.616 315.429 122.125C315.528 121.635 315.48 121.127 315.292 120.664C315.104 120.201 314.784 119.803 314.372 119.522C313.96 119.24 313.475 119.087 312.976 119.08H312.972Z" fill="white"/>
<path d="M233.631 65.9586C233.412 65.8411 233.168 65.7796 232.921 65.7796C232.673 65.7796 232.429 65.8411 232.21 65.9586L228.893 67.918L226.642 69.1652L223.385 71.126C223.166 71.2428 222.922 71.3038 222.674 71.3038C222.426 71.3038 222.182 71.2428 221.963 71.126L219.417 69.5809C219.2 69.4531 219.02 69.2709 218.896 69.0521C218.771 68.8334 218.705 68.5858 218.705 68.3338V65.3641C218.707 65.1124 218.773 64.8655 218.898 64.647C219.023 64.4286 219.201 64.246 219.417 64.1169L221.963 62.6274C222.182 62.5106 222.426 62.4495 222.674 62.4495C222.922 62.4495 223.166 62.5106 223.385 62.6274L225.932 64.1725C226.148 64.3003 226.327 64.4826 226.452 64.7014C226.577 64.9201 226.642 65.1677 226.642 65.4196V67.3858L228.893 66.0791V64.0574C228.891 63.8058 228.825 63.5589 228.701 63.3404C228.576 63.122 228.398 62.9393 228.183 62.8102L223.444 60.0179C223.226 59.9012 222.981 59.8401 222.734 59.8401C222.486 59.8401 222.241 59.9012 222.023 60.0179L217.162 62.8698C216.944 62.9809 216.762 63.1512 216.636 63.3612C216.511 63.5712 216.447 63.8125 216.451 64.0574V69.6405C216.453 69.8921 216.519 70.139 216.644 70.3575C216.768 70.5759 216.946 70.7585 217.162 70.8877L221.959 73.6799C222.178 73.7967 222.422 73.8578 222.67 73.8578C222.918 73.8578 223.162 73.7967 223.381 73.6799L226.638 71.7841L228.889 70.4774L232.147 68.5816C232.365 68.4641 232.609 68.4026 232.857 68.4026C233.105 68.4026 233.349 68.4641 233.567 68.5816L236.115 70.0711C236.332 70.1992 236.511 70.3815 236.635 70.6002C236.76 70.8189 236.825 71.0664 236.826 71.3183V74.2893C236.824 74.5408 236.757 74.7876 236.633 75.0059C236.509 75.2243 236.33 75.407 236.115 75.5365L233.627 77.026C233.408 77.1435 233.164 77.205 232.917 77.205C232.669 77.205 232.425 77.1435 232.206 77.026L229.658 75.5365C229.442 75.4084 229.263 75.226 229.138 75.0073C229.014 74.7886 228.948 74.5412 228.948 74.2893V72.3935L226.697 73.7002V75.6461C226.699 75.8978 226.766 76.1446 226.89 76.363C227.015 76.5814 227.194 76.764 227.409 76.8933L232.206 79.6842C232.425 79.8017 232.669 79.8631 232.917 79.8631C233.164 79.8631 233.408 79.8017 233.627 79.6842L238.424 76.8933C238.641 76.7653 238.82 76.583 238.945 76.3643C239.07 76.1456 239.136 75.8981 239.136 75.6461V69.9966C239.134 69.745 239.067 69.4982 238.943 69.2798C238.818 69.0614 238.64 68.8788 238.424 68.7495L233.631 65.9586Z" fill="#8247E5"/>
<defs>
<pattern id="pattern0" patternContentUnits="objectBoundingBox" width="1" height="1">
<use xlink:href="#image0_1110_91" transform="scale(0.00226757)"/>
</pattern>
<pattern id="pattern1" patternContentUnits="objectBoundingBox" width="1" height="1">
<use xlink:href="#image1_1110_91" transform="scale(0.00201613)"/>
</pattern>
<linearGradient id="paint0_linear_1110_91" x1="-2.01011e-06" y1="106.344" x2="343" y2="106.344" gradientUnits="userSpaceOnUse">
<stop stop-color="#141414"/>
<stop offset="1" stop-color="#8B8B8B"/>
</linearGradient>
<linearGradient id="paint1_linear_1110_91" x1="-2.01011e-06" y1="106.344" x2="343" y2="106.344" gradientUnits="userSpaceOnUse">
<stop stop-color="#141414"/>
<stop offset="1" stop-color="#8B8B8B"/>
</linearGradient>
<linearGradient id="paint2_linear_1110_91" x1="0.499796" y1="151.5" x2="343.5" y2="151.5" gradientUnits="userSpaceOnUse">
<stop offset="0.667898" stop-color="#8A8A8A"/>
<stop offset="0.81184" stop-color="#191919"/>
</linearGradient>
</defs>
</svg>
